<?xml version="1.0" encoding="utf-8"?>
<!-- Generator: Adobe Illustrator 28.1.0, SVG Export Plug-In . SVG Version: 6.00 Build 0)  -->
<svg version="1.1" id="レイヤー_1" xmlns="http://www.w3.org/2000/svg" xmlns:xlink="http://www.w3.org/1999/xlink" x="0px"
	 y="0px" viewBox="0 0 1920 368" style="enable-background:new 0 0 1920 368;" xml:space="preserve">
<style type="text/css">
	.st0{fill:#FFFFFF;}
</style>
<g>
	<path class="st0" d="M129.19,180.28v42.93c-7.95,4.36-18.97,7.18-29.86,7.18c-26.14,0-46.78-20.38-46.78-46.39
		s21.02-46.39,47.8-46.39c9.23,0,17.81,2.44,25.25,6.41l-1.92,10c-6.54-4.49-14.61-7.18-23.32-7.18c-21.02,0-37.55,16.4-37.55,37.17
		c0,20.76,16.02,37.16,36.4,37.16c7.95,0,14.22-1.28,20.25-3.97v-27.68H93.31l1.79-9.23H129.19z"/>
	<path class="st0" d="M190.19,228.85l-30.5-37.55v37.55h-9.74v-89.71h17.68c19.1,0,31.53,11.79,31.53,27.94
		c0,14.22-10.12,24.73-25.12,26.91l28.71,34.86H190.19z M159.69,186.56h7.95c13.2,0,21.27-8.07,21.27-19.35
		c0-10.89-8.07-18.84-21.27-18.84h-7.95V186.56z"/>
	<path class="st0" d="M266.44,197.84h-34.09l-13.2,31.01h-10.38l40.63-92.91l40.62,92.91h-10.38L266.44,197.84z M262.6,188.87
		l-13.2-30.76l-13.2,30.76H262.6z"/>
	<path class="st0" d="M302.84,139.15h19.35c26.78,0,46.9,19.22,46.9,44.85s-20.12,44.85-46.9,44.85h-19.35V139.15z M322.19,219.63
		c20.89,0,36.65-15.38,36.65-35.63c0-20.25-15.76-35.63-36.65-35.63h-9.61v71.25H322.19z"/>
	<path class="st0" d="M386.14,194.89v-54.85l9.74-1.79v55.62c0,16.66,9.1,27.3,23.2,27.3c14.1,0,23.2-10.64,23.2-27.3v-53.83
		l9.74-1.79v56.65c0,21.27-13.2,35.5-32.94,35.5S386.14,216.17,386.14,194.89z"/>
	<path class="st0" d="M519.03,197.84h-34.09l-13.2,31.01h-10.38l40.63-92.91l40.62,92.91h-10.38L519.03,197.84z M515.19,188.87
		l-13.2-30.76l-13.2,30.76H515.19z"/>
	<path class="st0" d="M575.42,148.37v80.48h-9.74v-80.48h-25.89l1.79-9.23h57.93l1.79,9.23H575.42z"/>
	<path class="st0" d="M615.91,140.04l9.74-1.79v90.61h-9.74V140.04z"/>
	<path class="st0" d="M643.98,184c0-26.02,20.76-46.39,47.16-46.39c26.4,0,47.16,20.38,47.16,46.39s-20.76,46.39-47.16,46.39
		C664.74,230.39,643.98,210.02,643.98,184z M728.05,184c0-20.76-16.28-37.17-36.91-37.17c-20.63,0-36.91,16.4-36.91,37.17
		c0,20.76,16.28,37.16,36.91,37.16C711.77,221.16,728.05,204.76,728.05,184z"/>
	<path class="st0" d="M831.72,232.7l-66.38-72.66v68.82h-9.74V135.3l66.38,72.66v-67.92l9.74-1.92V232.7z"/>
	<path class="st0" d="M937.19,219.63l-1.79,9.23h-48.57v-89.71h46.78l1.79,9.23h-38.83v29.6h32.17v9.23h-32.17v32.42H937.19z"/>
	<path class="st0" d="M1011,228.85l-25.5-37.93L960,228.85h-11.53l31.65-46.01l-30.24-43.7h11.53l24.09,35.76l24.09-35.76h11.53
		l-30.24,43.7l31.65,46.01H1011z"/>
	<path class="st0" d="M1110.32,138.25v90.61h-9.74v-41.01h-53.83v41.01h-9.74v-88.81l9.74-1.79v40.37h53.83v-38.57L1110.32,138.25z"
		/>
	<path class="st0" d="M1136.46,140.04l9.74-1.79v90.61h-9.74V140.04z"/>
	<path class="st0" d="M1224.51,204.38c0,14.48-11.41,24.48-27.81,24.48h-24.99v-89.71h23.71c15.89,0,27.04,9.61,27.04,23.32
		c0,9.36-5.51,16.66-14.1,20.25C1218.23,186.18,1224.51,194.12,1224.51,204.38z M1181.45,148.37v30.5h13.97
		c10,0,17.04-6.41,17.04-15.76c0-8.71-7.05-14.74-17.04-14.74H1181.45z M1214.51,203.86c0-9.36-7.3-15.76-17.81-15.76h-15.25v31.53
		h15.25C1207.2,219.63,1214.51,213.22,1214.51,203.86z"/>
	<path class="st0" d="M1245.14,140.04l9.74-1.79v90.61h-9.74V140.04z"/>
	<path class="st0" d="M1304.73,148.37v80.48h-9.74v-80.48h-25.89l1.79-9.23h57.93l1.79,9.23H1304.73z"/>
	<path class="st0" d="M1345.22,140.04l9.74-1.79v90.61h-9.74V140.04z"/>
	<path class="st0" d="M1373.29,184c0-26.02,20.76-46.39,47.16-46.39c26.4,0,47.16,20.38,47.16,46.39s-20.76,46.39-47.16,46.39
		C1394.05,230.39,1373.29,210.02,1373.29,184z M1457.36,184c0-20.76-16.28-37.17-36.91-37.17c-20.63,0-36.91,16.4-36.91,37.17
		c0,20.76,16.28,37.16,36.91,37.16C1441.08,221.16,1457.36,204.76,1457.36,184z"/>
	<path class="st0" d="M1561.03,232.7l-66.38-72.66v68.82h-9.74V135.3l66.38,72.66v-67.92l9.74-1.92V232.7z"/>
	<path class="st0" d="M1663.94,219.63l-1.79,9.23h-52.67l30.12-37.04c10.64-13.2,14.22-20.76,14.22-27.68
		c0-10.13-7.56-17.43-17.17-17.43c-9.61,0-17.17,7.56-17.17,17.3c0,3.97,1.28,7.56,2.95,10.77l-9.74,1.92
		c-2.05-3.72-3.2-8.07-3.2-12.69c0-14.87,11.92-26.53,27.17-26.53c15.12,0,27.17,11.15,27.17,26.66c0,8.33-3.33,16.92-16.28,32.93
		l-18.2,22.56H1663.94z"/>
	<path class="st0" d="M1675.09,184c0-24.99,11.66-46.14,32.68-46.14s32.68,21.15,32.68,46.14s-11.66,46.14-32.68,46.14
		S1675.09,208.99,1675.09,184z M1730.19,184c0-18.97-6.66-36.91-22.43-36.91c-15.76,0-22.43,17.94-22.43,36.91
		s6.66,36.91,22.43,36.91C1723.53,220.91,1730.19,202.97,1730.19,184z"/>
	<path class="st0" d="M1803.88,219.63l-1.79,9.23h-52.67l30.12-37.04c10.64-13.2,14.22-20.76,14.22-27.68
		c0-10.13-7.56-17.43-17.17-17.43c-9.61,0-17.17,7.56-17.17,17.3c0,3.97,1.28,7.56,2.95,10.77l-9.74,1.92
		c-2.05-3.72-3.2-8.07-3.2-12.69c0-14.87,11.92-26.53,27.17-26.53c15.12,0,27.17,11.15,27.17,26.66c0,8.33-3.33,16.92-16.28,32.93
		l-18.2,22.56H1803.88z"/>
	<path class="st0" d="M1867.44,200.79c0,16.4-13.2,29.35-30.12,29.35c-10.38,0-18.71-4.87-24.86-12.56l5.13-8.33
		c4.36,6.41,11.02,11.66,19.74,11.66c11.28,0,20.12-8.84,20.12-20.25c0-11.15-8.33-19.99-21.02-19.99c-3.33,0-7.05,0.64-10.89,1.54
		l23.2-33.83h-33.58l1.79-9.23h50.24l-24.86,34.47C1856.17,174,1867.44,185.79,1867.44,200.79z"/>
</g>
</svg>
