<svg width="191" height="53" viewBox="0 0 191 53" fill="#EA574E" xmlns="http://www.w3.org/2000/svg">
<path d="M27.3965 38L24.7051 29.1641H11.1719L8.48047 38H0L13.1016 0.726562H22.7246L35.877 38H27.3965ZM22.8262 22.5625L20.1348 13.9297C19.9655 13.3542 19.737 12.6178 19.4492 11.7207C19.1784 10.8066 18.8991 9.88411 18.6113 8.95312C18.3405 8.00521 18.1204 7.18424 17.9512 6.49023C17.7819 7.18424 17.5449 8.04753 17.2402 9.08008C16.9525 10.0957 16.6732 11.0605 16.4023 11.9746C16.1315 12.8887 15.9368 13.5404 15.8184 13.9297L13.1523 22.5625H22.8262Z" />
<path d="M57.0698 6.89648C55.5633 6.89648 54.226 7.19271 53.0581 7.78516C51.907 8.36068 50.9337 9.19857 50.1382 10.2988C49.3595 11.3991 48.7671 12.7279 48.3608 14.2852C47.9546 15.8424 47.7514 17.5944 47.7514 19.541C47.7514 22.1647 48.0731 24.4076 48.7163 26.2695C49.3764 28.1146 50.3921 29.528 51.7632 30.5098C53.1343 31.4746 54.9031 31.957 57.0698 31.957C58.5763 31.957 60.0828 31.7878 61.5893 31.4492C63.1128 31.1107 64.7632 30.6283 66.5405 30.002V36.6035C64.8986 37.2806 63.282 37.763 61.6909 38.0508C60.0997 38.3555 58.3139 38.5078 56.3335 38.5078C52.5079 38.5078 49.3595 37.7207 46.8882 36.1465C44.4337 34.5553 42.6141 32.3379 41.4292 29.4941C40.2443 26.6335 39.6518 23.2988 39.6518 19.4902C39.6518 16.6803 40.0327 14.1074 40.7944 11.7715C41.5561 9.43555 42.6733 7.41276 44.146 5.70312C45.6186 3.99349 47.4383 2.67318 49.605 1.74219C51.7716 0.811198 54.2599 0.345703 57.0698 0.345703C58.9148 0.345703 60.7599 0.582682 62.605 1.05664C64.4669 1.51367 66.2443 2.14844 67.937 2.96094L65.3979 9.35938C64.0099 8.69922 62.6134 8.1237 61.2085 7.63281C59.8035 7.14193 58.424 6.89648 57.0698 6.89648Z" />
<path d="M90.958 6.89648C89.4514 6.89648 88.1142 7.19271 86.9462 7.78516C85.7952 8.36068 84.8219 9.19857 84.0263 10.2988C83.2477 11.3991 82.6552 12.7279 82.249 14.2852C81.8427 15.8424 81.6396 17.5944 81.6396 19.541C81.6396 22.1647 81.9612 24.4076 82.6044 26.2695C83.2646 28.1146 84.2802 29.528 85.6513 30.5098C87.0224 31.4746 88.7913 31.957 90.958 31.957C92.4645 31.957 93.971 31.7878 95.4775 31.4492C97.0009 31.1107 98.6513 30.6283 100.429 30.002V36.6035C98.7867 37.2806 97.1702 37.763 95.579 38.0508C93.9879 38.3555 92.2021 38.5078 90.2216 38.5078C86.3961 38.5078 83.2477 37.7207 80.7763 36.1465C78.3219 34.5553 76.5022 32.3379 75.3173 29.4941C74.1324 26.6335 73.54 23.2988 73.54 19.4902C73.54 16.6803 73.9208 14.1074 74.6826 11.7715C75.4443 9.43555 76.5615 7.41276 78.0341 5.70312C79.5068 3.99349 81.3264 2.67318 83.4931 1.74219C85.6598 0.811198 88.1481 0.345703 90.958 0.345703C92.803 0.345703 94.6481 0.582682 96.4931 1.05664C98.3551 1.51367 100.132 2.14844 101.825 2.96094L99.2861 9.35938C97.8981 8.69922 96.5016 8.1237 95.0966 7.63281C93.6917 7.14193 92.3121 6.89648 90.958 6.89648Z" />
<path d="M130.457 38H109.079V0.878906H130.457V7.32812H116.95V15.4785H129.518V21.9277H116.95V31.5H130.457V38Z" />
<path d="M160.867 27.6914C160.867 29.8919 160.334 31.8047 159.267 33.4297C158.201 35.0547 156.644 36.3073 154.596 37.1875C152.564 38.0677 150.093 38.5078 147.182 38.5078C145.895 38.5078 144.634 38.4232 143.398 38.2539C142.18 38.0846 141.003 37.8392 139.869 37.5176C138.752 37.179 137.685 36.7643 136.67 36.2734V28.9609C138.43 29.7396 140.258 30.4421 142.154 31.0684C144.05 31.6947 145.929 32.0078 147.791 32.0078C149.077 32.0078 150.11 31.8385 150.889 31.5C151.684 31.1615 152.26 30.696 152.615 30.1035C152.971 29.5111 153.148 28.834 153.148 28.0723C153.148 27.1413 152.835 26.3457 152.209 25.6855C151.583 25.0254 150.719 24.4076 149.619 23.832C148.536 23.2565 147.308 22.6387 145.937 21.9785C145.074 21.5723 144.135 21.0814 143.119 20.5059C142.103 19.9134 141.139 19.194 140.225 18.3477C139.31 17.5013 138.557 16.4772 137.965 15.2754C137.389 14.0566 137.101 12.6009 137.101 10.9082C137.101 8.69076 137.609 6.79492 138.625 5.2207C139.641 3.64648 141.088 2.44466 142.967 1.61523C144.863 0.76888 147.097 0.345703 149.67 0.345703C151.6 0.345703 153.436 0.574219 155.18 1.03125C156.94 1.47135 158.777 2.11458 160.689 2.96094L158.15 9.08008C156.441 8.38607 154.909 7.85286 153.555 7.48047C152.2 7.09115 150.821 6.89648 149.416 6.89648C148.434 6.89648 147.596 7.05729 146.902 7.37891C146.208 7.68359 145.683 8.1237 145.328 8.69922C144.973 9.25781 144.795 9.90951 144.795 10.6543C144.795 11.5345 145.049 12.2793 145.557 12.8887C146.081 13.4811 146.86 14.0566 147.892 14.6152C148.942 15.1738 150.245 15.8255 151.803 16.5703C153.698 17.4674 155.315 18.4069 156.652 19.3887C158.006 20.3535 159.047 21.4961 159.775 22.8164C160.503 24.1198 160.867 25.7448 160.867 27.6914Z" />
<path d="M190.236 27.6914C190.236 29.8919 189.702 31.8047 188.636 33.4297C187.57 35.0547 186.012 36.3073 183.964 37.1875C181.933 38.0677 179.462 38.5078 176.55 38.5078C175.264 38.5078 174.003 38.4232 172.767 38.2539C171.548 38.0846 170.372 37.8392 169.238 37.5176C168.12 37.179 167.054 36.7643 166.038 36.2734V28.9609C167.799 29.7396 169.627 30.4421 171.523 31.0684C173.419 31.6947 175.298 32.0078 177.16 32.0078C178.446 32.0078 179.479 31.8385 180.257 31.5C181.053 31.1615 181.628 30.696 181.984 30.1035C182.339 29.5111 182.517 28.834 182.517 28.0723C182.517 27.1413 182.204 26.3457 181.577 25.6855C180.951 25.0254 180.088 24.4076 178.988 23.832C177.904 23.2565 176.677 22.6387 175.306 21.9785C174.443 21.5723 173.503 21.0814 172.488 20.5059C171.472 19.9134 170.507 19.194 169.593 18.3477C168.679 17.5013 167.926 16.4772 167.333 15.2754C166.758 14.0566 166.47 12.6009 166.47 10.9082C166.47 8.69076 166.978 6.79492 167.994 5.2207C169.009 3.64648 170.456 2.44466 172.335 1.61523C174.231 0.76888 176.466 0.345703 179.038 0.345703C180.968 0.345703 182.805 0.574219 184.548 1.03125C186.309 1.47135 188.145 2.11458 190.058 2.96094L187.519 9.08008C185.809 8.38607 184.277 7.85286 182.923 7.48047C181.569 7.09115 180.189 6.89648 178.785 6.89648C177.803 6.89648 176.965 7.05729 176.271 7.37891C175.577 7.68359 175.052 8.1237 174.697 8.69922C174.341 9.25781 174.163 9.90951 174.163 10.6543C174.163 11.5345 174.417 12.2793 174.925 12.8887C175.45 13.4811 176.229 14.0566 177.261 14.6152C178.311 15.1738 179.614 15.8255 181.171 16.5703C183.067 17.4674 184.684 18.4069 186.021 19.3887C187.375 20.3535 188.416 21.4961 189.144 22.8164C189.872 24.1198 190.236 25.7448 190.236 27.6914Z" />
</svg>
