<svg width="55" height="13" viewBox="0 0 55 13" fill="none" xmlns="http://www.w3.org/2000/svg">
<path d="M9.37158 12L8.54346 9.28125H4.37939L3.55127 12H0.941895L4.97314 0.53125H7.93408L11.981 12H9.37158ZM7.96533 7.25C7.19971 4.78646 6.76742 3.39323 6.66846 3.07031C6.57471 2.7474 6.507 2.49219 6.46533 2.30469C6.29346 2.97135 5.80127 4.61979 4.98877 7.25H7.96533Z" fill="white"/>
<path d="M17.0096 12.1562C14.2909 12.1562 12.9315 10.6641 12.9315 7.67969C12.9315 6.19531 13.3013 5.0625 14.0409 4.28125C14.7805 3.49479 15.8404 3.10156 17.2206 3.10156C18.231 3.10156 19.1372 3.29948 19.9393 3.69531L19.2362 5.53906C18.8612 5.38802 18.5122 5.26562 18.1893 5.17188C17.8664 5.07292 17.5435 5.02344 17.2206 5.02344C15.981 5.02344 15.3612 5.90365 15.3612 7.66406C15.3612 9.3724 15.981 10.2266 17.2206 10.2266C17.6789 10.2266 18.1034 10.1667 18.494 10.0469C18.8846 9.92188 19.2753 9.72917 19.6659 9.46875V11.5078C19.2805 11.7526 18.8899 11.9219 18.494 12.0156C18.1034 12.1094 17.6086 12.1562 17.0096 12.1562Z" fill="white"/>
<path d="M25.468 12.1562C22.7493 12.1562 21.3899 10.6641 21.3899 7.67969C21.3899 6.19531 21.7597 5.0625 22.4993 4.28125C23.2389 3.49479 24.2987 3.10156 25.679 3.10156C26.6894 3.10156 27.5956 3.29948 28.3977 3.69531L27.6946 5.53906C27.3196 5.38802 26.9706 5.26562 26.6477 5.17188C26.3248 5.07292 26.0019 5.02344 25.679 5.02344C24.4394 5.02344 23.8196 5.90365 23.8196 7.66406C23.8196 9.3724 24.4394 10.2266 25.679 10.2266C26.1373 10.2266 26.5618 10.1667 26.9524 10.0469C27.343 9.92188 27.7336 9.72917 28.1243 9.46875V11.5078C27.7389 11.7526 27.3482 11.9219 26.9524 12.0156C26.5618 12.1094 26.067 12.1562 25.468 12.1562Z" fill="white"/>
<path d="M33.9967 4.79688C33.4915 4.79688 33.0957 4.95833 32.8092 5.28125C32.5228 5.59896 32.3587 6.05208 32.317 6.64062H35.6608C35.6504 6.05208 35.4967 5.59896 35.1998 5.28125C34.903 4.95833 34.5019 4.79688 33.9967 4.79688ZM34.3326 12.1562C32.9264 12.1562 31.8274 11.7682 31.0358 10.9922C30.2441 10.2161 29.8483 9.11719 29.8483 7.69531C29.8483 6.23177 30.2129 5.10156 30.942 4.30469C31.6764 3.5026 32.6894 3.10156 33.9811 3.10156C35.2155 3.10156 36.1764 3.45312 36.8639 4.15625C37.5514 4.85938 37.8951 5.83073 37.8951 7.07031V8.22656H32.2623C32.2884 8.90365 32.4889 9.43229 32.8639 9.8125C33.2389 10.1927 33.7649 10.3828 34.442 10.3828C34.9681 10.3828 35.4655 10.3281 35.9342 10.2188C36.403 10.1094 36.8925 9.9349 37.403 9.69531V11.5391C36.9863 11.7474 36.541 11.901 36.067 12C35.5931 12.1042 35.0149 12.1562 34.3326 12.1562Z" fill="white"/>
<path d="M46.1504 9.40625C46.1504 10.3021 45.8379 10.9844 45.2129 11.4531C44.5931 11.9219 43.6634 12.1562 42.4238 12.1562C41.7884 12.1562 41.2468 12.112 40.7988 12.0234C40.3509 11.9401 39.9316 11.8151 39.541 11.6484V9.67969C39.9837 9.88802 40.4811 10.0625 41.0332 10.2031C41.5905 10.3438 42.0801 10.4141 42.502 10.4141C43.3665 10.4141 43.7988 10.1641 43.7988 9.66406C43.7988 9.47656 43.7415 9.32552 43.627 9.21094C43.5124 9.09115 43.3145 8.95833 43.0332 8.8125C42.752 8.66146 42.377 8.48698 41.9082 8.28906C41.2363 8.00781 40.7415 7.7474 40.4238 7.50781C40.1113 7.26823 39.8822 6.99479 39.7363 6.6875C39.5957 6.375 39.5254 5.99219 39.5254 5.53906C39.5254 4.76302 39.8249 4.16406 40.4238 3.74219C41.028 3.3151 41.8822 3.10156 42.9863 3.10156C44.0384 3.10156 45.0619 3.33073 46.0566 3.78906L45.3379 5.50781C44.9004 5.32031 44.4915 5.16667 44.1113 5.04688C43.7311 4.92708 43.3431 4.86719 42.9473 4.86719C42.2441 4.86719 41.8926 5.05729 41.8926 5.4375C41.8926 5.65104 42.0046 5.83594 42.2285 5.99219C42.4577 6.14844 42.9551 6.38021 43.7207 6.6875C44.403 6.96354 44.903 7.22135 45.2207 7.46094C45.5384 7.70052 45.7728 7.97656 45.9238 8.28906C46.0749 8.60156 46.1504 8.97396 46.1504 9.40625Z" fill="white"/>
<path d="M54.3275 9.40625C54.3275 10.3021 54.015 10.9844 53.39 11.4531C52.7702 11.9219 51.8405 12.1562 50.601 12.1562C49.9655 12.1562 49.4239 12.112 48.976 12.0234C48.528 11.9401 48.1088 11.8151 47.7181 11.6484V9.67969C48.1609 9.88802 48.6583 10.0625 49.2103 10.2031C49.7676 10.3438 50.2572 10.4141 50.6791 10.4141C51.5437 10.4141 51.976 10.1641 51.976 9.66406C51.976 9.47656 51.9187 9.32552 51.8041 9.21094C51.6895 9.09115 51.4916 8.95833 51.2103 8.8125C50.9291 8.66146 50.5541 8.48698 50.0853 8.28906C49.4135 8.00781 48.9187 7.7474 48.601 7.50781C48.2885 7.26823 48.0593 6.99479 47.9135 6.6875C47.7728 6.375 47.7025 5.99219 47.7025 5.53906C47.7025 4.76302 48.002 4.16406 48.601 3.74219C49.2051 3.3151 50.0593 3.10156 51.1635 3.10156C52.2155 3.10156 53.239 3.33073 54.2338 3.78906L53.515 5.50781C53.0775 5.32031 52.6687 5.16667 52.2885 5.04688C51.9083 4.92708 51.5202 4.86719 51.1244 4.86719C50.4213 4.86719 50.0697 5.05729 50.0697 5.4375C50.0697 5.65104 50.1817 5.83594 50.4056 5.99219C50.6348 6.14844 51.1322 6.38021 51.8978 6.6875C52.5801 6.96354 53.0801 7.22135 53.3978 7.46094C53.7155 7.70052 53.9499 7.97656 54.101 8.28906C54.252 8.60156 54.3275 8.97396 54.3275 9.40625Z" fill="white"/>
</svg>
