<svg width="73" height="13" viewBox="0 0 73 13" fill="none" xmlns="http://www.w3.org/2000/svg">
<path d="M5.5918 2.42969C4.68034 2.42969 3.97461 2.77344 3.47461 3.46094C2.97461 4.14323 2.72461 5.09635 2.72461 6.32031C2.72461 8.86719 3.68034 10.1406 5.5918 10.1406C6.39388 10.1406 7.36523 9.9401 8.50586 9.53906V11.5703C7.56836 11.9609 6.52148 12.1562 5.36523 12.1562C3.70378 12.1562 2.43294 11.6536 1.55273 10.6484C0.672526 9.63802 0.232422 8.1901 0.232422 6.30469C0.232422 5.11719 0.448568 4.07812 0.880859 3.1875C1.31315 2.29167 1.93294 1.60677 2.74023 1.13281C3.55273 0.653646 4.50326 0.414062 5.5918 0.414062C6.70117 0.414062 7.81576 0.682292 8.93555 1.21875L8.1543 3.1875C7.72721 2.98438 7.29753 2.80729 6.86523 2.65625C6.43294 2.50521 6.00846 2.42969 5.5918 2.42969Z" fill="white"/>
<path d="M12.8783 7.61719C12.8783 8.48177 13.0189 9.13542 13.3002 9.57812C13.5866 10.0208 14.0502 10.2422 14.6908 10.2422C15.3262 10.2422 15.7819 10.0234 16.058 9.58594C16.3392 9.14323 16.4799 8.48698 16.4799 7.61719C16.4799 6.7526 16.3392 6.10417 16.058 5.67188C15.7767 5.23958 15.3158 5.02344 14.6752 5.02344C14.0398 5.02344 13.5814 5.23958 13.3002 5.67188C13.0189 6.09896 12.8783 6.7474 12.8783 7.61719ZM18.9174 7.61719C18.9174 9.03906 18.5424 10.151 17.7924 10.9531C17.0424 11.7552 15.9981 12.1562 14.6595 12.1562C13.821 12.1562 13.0814 11.974 12.4408 11.6094C11.8002 11.2396 11.308 10.7109 10.9642 10.0234C10.6205 9.33594 10.4486 8.53385 10.4486 7.61719C10.4486 6.1901 10.821 5.08073 11.5658 4.28906C12.3106 3.4974 13.3575 3.10156 14.7064 3.10156C15.545 3.10156 16.2845 3.28385 16.9252 3.64844C17.5658 4.01302 18.058 4.53646 18.4017 5.21875C18.7455 5.90104 18.9174 6.70052 18.9174 7.61719Z" fill="white"/>
<path d="M29.1726 12H26.7898V6.89844C26.7898 6.26823 26.6778 5.79688 26.4539 5.48438C26.2299 5.16667 25.8731 5.00781 25.3835 5.00781C24.7169 5.00781 24.2351 5.23177 23.9382 5.67969C23.6414 6.1224 23.4929 6.85938 23.4929 7.89062V12H21.1101V3.26562H22.9304L23.2507 4.38281H23.3835C23.6492 3.96094 24.0138 3.64323 24.4773 3.42969C24.946 3.21094 25.4773 3.10156 26.071 3.10156C27.0867 3.10156 27.8575 3.3776 28.3835 3.92969C28.9096 4.47656 29.1726 5.26823 29.1726 6.30469V12Z" fill="white"/>
<path d="M35.5294 10.2578C35.9461 10.2578 36.4461 10.1667 37.0294 9.98438V11.7578C36.4357 12.0234 35.7065 12.1562 34.8419 12.1562C33.8888 12.1562 33.1935 11.9167 32.756 11.4375C32.3237 10.9531 32.1075 10.2292 32.1075 9.26562V5.05469H30.9669V4.04688L32.2794 3.25L32.9669 1.40625H34.4904V3.26562H36.9357V5.05469H34.4904V9.26562C34.4904 9.60417 34.5841 9.85417 34.7716 10.0156C34.9643 10.1771 35.2169 10.2578 35.5294 10.2578Z" fill="white"/>
<path d="M42.644 4.79688C42.1388 4.79688 41.743 4.95833 41.4565 5.28125C41.1701 5.59896 41.006 6.05208 40.9644 6.64062H44.3081C44.2977 6.05208 44.144 5.59896 43.8472 5.28125C43.5503 4.95833 43.1493 4.79688 42.644 4.79688ZM42.98 12.1562C41.5737 12.1562 40.4748 11.7682 39.6831 10.9922C38.8914 10.2161 38.4956 9.11719 38.4956 7.69531C38.4956 6.23177 38.8602 5.10156 39.5894 4.30469C40.3237 3.5026 41.3368 3.10156 42.6284 3.10156C43.8628 3.10156 44.8237 3.45312 45.5112 4.15625C46.1987 4.85938 46.5425 5.83073 46.5425 7.07031V8.22656H40.9097C40.9357 8.90365 41.1362 9.43229 41.5112 9.8125C41.8862 10.1927 42.4123 10.3828 43.0894 10.3828C43.6154 10.3828 44.1128 10.3281 44.5815 10.2188C45.0503 10.1094 45.5399 9.9349 46.0503 9.69531V11.5391C45.6336 11.7474 45.1883 11.901 44.7144 12C44.2404 12.1042 43.6623 12.1562 42.98 12.1562Z" fill="white"/>
<path d="M56.7665 12H54.3837V6.89844C54.3837 6.26823 54.2717 5.79688 54.0477 5.48438C53.8238 5.16667 53.467 5.00781 52.9774 5.00781C52.3108 5.00781 51.829 5.23177 51.5321 5.67969C51.2352 6.1224 51.0868 6.85938 51.0868 7.89062V12H48.704V3.26562H50.5243L50.8446 4.38281H50.9774C51.243 3.96094 51.6076 3.64323 52.0712 3.42969C52.5399 3.21094 53.0712 3.10156 53.6649 3.10156C54.6805 3.10156 55.4514 3.3776 55.9774 3.92969C56.5035 4.47656 56.7665 5.26823 56.7665 6.30469V12Z" fill="white"/>
<path d="M63.1233 10.2578C63.54 10.2578 64.04 10.1667 64.6233 9.98438V11.7578C64.0296 12.0234 63.3004 12.1562 62.4358 12.1562C61.4827 12.1562 60.7874 11.9167 60.3499 11.4375C59.9176 10.9531 59.7014 10.2292 59.7014 9.26562V5.05469H58.5608V4.04688L59.8733 3.25L60.5608 1.40625H62.0842V3.26562H64.5296V5.05469H62.0842V9.26562C62.0842 9.60417 62.178 9.85417 62.3655 10.0156C62.5582 10.1771 62.8108 10.2578 63.1233 10.2578Z" fill="white"/>
<path d="M72.7145 9.40625C72.7145 10.3021 72.402 10.9844 71.777 11.4531C71.1572 11.9219 70.2275 12.1562 68.9879 12.1562C68.3525 12.1562 67.8108 12.112 67.3629 12.0234C66.915 11.9401 66.4957 11.8151 66.1051 11.6484V9.67969C66.5478 9.88802 67.0452 10.0625 67.5973 10.2031C68.1546 10.3438 68.6442 10.4141 69.0661 10.4141C69.9306 10.4141 70.3629 10.1641 70.3629 9.66406C70.3629 9.47656 70.3056 9.32552 70.1911 9.21094C70.0765 9.09115 69.8786 8.95833 69.5973 8.8125C69.3161 8.66146 68.9411 8.48698 68.4723 8.28906C67.8004 8.00781 67.3056 7.7474 66.9879 7.50781C66.6754 7.26823 66.4463 6.99479 66.3004 6.6875C66.1598 6.375 66.0895 5.99219 66.0895 5.53906C66.0895 4.76302 66.389 4.16406 66.9879 3.74219C67.5921 3.3151 68.4463 3.10156 69.5504 3.10156C70.6025 3.10156 71.626 3.33073 72.6207 3.78906L71.902 5.50781C71.4645 5.32031 71.0556 5.16667 70.6754 5.04688C70.2952 4.92708 69.9072 4.86719 69.5114 4.86719C68.8082 4.86719 68.4567 5.05729 68.4567 5.4375C68.4567 5.65104 68.5687 5.83594 68.7926 5.99219C69.0218 6.14844 69.5192 6.38021 70.2848 6.6875C70.9671 6.96354 71.4671 7.22135 71.7848 7.46094C72.1025 7.70052 72.3369 7.97656 72.4879 8.28906C72.639 8.60156 72.7145 8.97396 72.7145 9.40625Z" fill="white"/>
</svg>
