<svg width="236" height="53" viewBox="0 0 236 53" fill="#EA574E" xmlns="http://www.w3.org/2000/svg">
<path d="M17.4395 6.89648C15.9329 6.89648 14.5957 7.19271 13.4277 7.78516C12.2767 8.36068 11.3034 9.19857 10.5078 10.2988C9.72917 11.3991 9.13672 12.7279 8.73047 14.2852C8.32422 15.8424 8.12109 17.5944 8.12109 19.541C8.12109 22.1647 8.44271 24.4076 9.08594 26.2695C9.74609 28.1146 10.7617 29.528 12.1328 30.5098C13.5039 31.4746 15.2728 31.957 17.4395 31.957C18.946 31.957 20.4525 31.7878 21.959 31.4492C23.4824 31.1107 25.1328 30.6283 26.9102 30.002V36.6035C25.2682 37.2806 23.6517 37.763 22.0605 38.0508C20.4694 38.3555 18.6836 38.5078 16.7031 38.5078C12.8776 38.5078 9.72917 37.7207 7.25781 36.1465C4.80339 34.5553 2.98372 32.3379 1.79883 29.4941C0.613932 26.6335 0.0214844 23.2988 0.0214844 19.4902C0.0214844 16.6803 0.402344 14.1074 1.16406 11.7715C1.92578 9.43555 3.04297 7.41276 4.51562 5.70312C5.98828 3.99349 7.80794 2.67318 9.97461 1.74219C12.1413 0.811198 14.6296 0.345703 17.4395 0.345703C19.2845 0.345703 21.1296 0.582682 22.9746 1.05664C24.8366 1.51367 26.6139 2.14844 28.3066 2.96094L25.7676 9.35938C24.3796 8.69922 22.9831 8.1237 21.5781 7.63281C20.1732 7.14193 18.7936 6.89648 17.4395 6.89648Z" />
<path d="M60.7475 23.7559C60.7475 26.1257 60.4259 28.2246 59.7827 30.0527C59.1564 31.8809 58.2339 33.4297 57.0151 34.6992C55.8133 35.9518 54.3576 36.8997 52.6479 37.543C50.9552 38.1862 49.0425 38.5078 46.9096 38.5078C44.9122 38.5078 43.0757 38.1862 41.3999 37.543C39.741 36.8997 38.2938 35.9518 37.0581 34.6992C35.8393 33.4297 34.8914 31.8809 34.2143 30.0527C33.5542 28.2246 33.2241 26.1257 33.2241 23.7559C33.2241 20.6074 33.7827 17.9414 34.8999 15.7578C36.0171 13.5742 37.6082 11.9154 39.6733 10.7812C41.7384 9.64714 44.2013 9.08008 47.062 9.08008C49.7195 9.08008 52.0724 9.64714 54.1206 10.7812C56.1857 11.9154 57.8022 13.5742 58.9702 15.7578C60.1551 17.9414 60.7475 20.6074 60.7475 23.7559ZM41.1206 23.7559C41.1206 25.6178 41.3237 27.1836 41.73 28.4531C42.1362 29.7227 42.771 30.679 43.6343 31.3223C44.4975 31.9655 45.6232 32.2871 47.0112 32.2871C48.3823 32.2871 49.491 31.9655 50.3374 31.3223C51.2007 30.679 51.827 29.7227 52.2163 28.4531C52.6225 27.1836 52.8257 25.6178 52.8257 23.7559C52.8257 21.877 52.6225 20.3197 52.2163 19.084C51.827 17.8314 51.2007 16.8919 50.3374 16.2656C49.4741 15.6393 48.3484 15.3262 46.9604 15.3262C44.9122 15.3262 43.4227 16.0286 42.4917 17.4336C41.5776 18.8385 41.1206 20.946 41.1206 23.7559Z" />
<path d="M83.997 9.08008C87.027 9.08008 89.4645 9.90951 91.3095 11.5684C93.1546 13.2103 94.0771 15.8509 94.0771 19.4902V38H86.333V21.4199C86.333 19.3887 85.9606 17.8568 85.2158 16.8242C84.4879 15.7917 83.3369 15.2754 81.7626 15.2754C79.3929 15.2754 77.7763 16.0794 76.913 17.6875C76.0498 19.2956 75.6181 21.6146 75.6181 24.6445V38H67.874V9.61328H73.79L74.831 13.2441H75.2626C75.872 12.2624 76.6253 11.4668 77.5224 10.8574C78.4365 10.248 79.4436 9.79948 80.5439 9.51172C81.6611 9.22396 82.8121 9.08008 83.997 9.08008Z" />
<path d="M114.737 32.3379C115.583 32.3379 116.404 32.2533 117.2 32.084C118.012 31.9147 118.816 31.7031 119.612 31.4492V37.2129C118.782 37.5853 117.75 37.89 116.514 38.127C115.295 38.3809 113.958 38.5078 112.502 38.5078C110.81 38.5078 109.286 38.237 107.932 37.6953C106.595 37.1367 105.537 36.1803 104.758 34.8262C103.996 33.4551 103.616 31.5508 103.616 29.1133V15.4277H99.9086V12.1523L104.174 9.5625L106.409 3.57031H111.36V9.61328H119.307V15.4277H111.36V29.1133C111.36 30.1966 111.664 31.0091 112.274 31.5508C112.9 32.0755 113.721 32.3379 114.737 32.3379Z" />
<path d="M137.808 9.08008C140.432 9.08008 142.692 9.58789 144.588 10.6035C146.484 11.6022 147.948 13.0579 148.98 14.9707C150.013 16.8835 150.529 19.2194 150.529 21.9785V25.7363H132.223C132.307 27.9199 132.959 29.638 134.178 30.8906C135.413 32.1263 137.123 32.7441 139.307 32.7441C141.118 32.7441 142.777 32.5579 144.283 32.1855C145.79 31.8132 147.338 31.2546 148.93 30.5098V36.502C147.525 37.196 146.052 37.7038 144.512 38.0254C142.988 38.347 141.135 38.5078 138.951 38.5078C136.107 38.5078 133.585 37.9831 131.385 36.9336C129.201 35.8841 127.483 34.2845 126.23 32.1348C124.995 29.985 124.377 27.2767 124.377 24.0098C124.377 20.6921 124.935 17.9329 126.053 15.7324C127.187 13.515 128.761 11.8561 130.775 10.7559C132.79 9.63867 135.134 9.08008 137.808 9.08008ZM137.859 14.5898C136.353 14.5898 135.1 15.0723 134.101 16.0371C133.12 17.002 132.553 18.5169 132.4 20.582H143.267C143.251 19.431 143.039 18.4069 142.633 17.5098C142.243 16.6126 141.651 15.9017 140.855 15.377C140.077 14.8522 139.078 14.5898 137.859 14.5898Z" />
<path d="M173.677 9.08008C176.707 9.08008 179.145 9.90951 180.99 11.5684C182.835 13.2103 183.757 15.8509 183.757 19.4902V38H176.013V21.4199C176.013 19.3887 175.641 17.8568 174.896 16.8242C174.168 15.7917 173.017 15.2754 171.443 15.2754C169.073 15.2754 167.456 16.0794 166.593 17.6875C165.73 19.2956 165.298 21.6146 165.298 24.6445V38H157.554V9.61328H163.47L164.511 13.2441H164.943C165.552 12.2624 166.305 11.4668 167.202 10.8574C168.117 10.248 169.124 9.79948 170.224 9.51172C171.341 9.22396 172.492 9.08008 173.677 9.08008Z" />
<path d="M204.417 32.3379C205.263 32.3379 206.084 32.2533 206.88 32.084C207.692 31.9147 208.496 31.7031 209.292 31.4492V37.2129C208.462 37.5853 207.43 37.89 206.194 38.127C204.975 38.3809 203.638 38.5078 202.182 38.5078C200.49 38.5078 198.966 38.237 197.612 37.6953C196.275 37.1367 195.217 36.1803 194.438 34.8262C193.677 33.4551 193.296 31.5508 193.296 29.1133V15.4277H189.589V12.1523L193.854 9.5625L196.089 3.57031H201.04V9.61328H208.987V15.4277H201.04V29.1133C201.04 30.1966 201.345 31.0091 201.954 31.5508C202.58 32.0755 203.401 32.3379 204.417 32.3379Z" />
<path d="M235.588 29.5703C235.588 31.5 235.131 33.1335 234.217 34.4707C233.32 35.791 231.974 36.7982 230.18 37.4922C228.386 38.1693 226.151 38.5078 223.477 38.5078C221.496 38.5078 219.795 38.3809 218.373 38.127C216.968 37.873 215.547 37.4499 214.108 36.8574V30.459C215.648 31.153 217.298 31.7285 219.059 32.1855C220.836 32.6257 222.394 32.8457 223.731 32.8457C225.237 32.8457 226.312 32.6257 226.955 32.1855C227.616 31.7285 227.946 31.1361 227.946 30.4082C227.946 29.9342 227.81 29.5111 227.539 29.1387C227.285 28.7493 226.727 28.3177 225.864 27.8438C225 27.3529 223.646 26.7181 221.801 25.9395C220.024 25.1947 218.56 24.4414 217.408 23.6797C216.274 22.918 215.428 22.0208 214.869 20.9883C214.328 19.9388 214.057 18.61 214.057 17.002C214.057 14.3783 215.073 12.4062 217.104 11.0859C219.152 9.7487 221.886 9.08008 225.305 9.08008C227.065 9.08008 228.741 9.25781 230.332 9.61328C231.94 9.96875 233.591 10.5358 235.283 11.3145L232.948 16.9004C231.543 16.291 230.214 15.7917 228.961 15.4023C227.726 15.013 226.464 14.8184 225.178 14.8184C224.044 14.8184 223.189 14.9707 222.614 15.2754C222.038 15.5801 221.75 16.0456 221.75 16.6719C221.75 17.1289 221.894 17.5352 222.182 17.8906C222.487 18.2461 223.062 18.6439 223.908 19.084C224.772 19.5072 226.033 20.0573 227.692 20.7344C229.3 21.3945 230.696 22.0885 231.881 22.8164C233.066 23.5273 233.98 24.416 234.623 25.4824C235.267 26.5319 235.588 27.8945 235.588 29.5703Z" />
</svg>
