<svg width="45" height="13" viewBox="0 0 45 13" fill="none" xmlns="http://www.w3.org/2000/svg">
<path d="M7.32129 12H0.743164V0.578125H7.32129V2.5625H3.16504V5.07031H7.03223V7.05469H3.16504V10H7.32129V12Z" fill="white"/>
<path d="M11.8265 12L8.49841 3.26562H10.9906L12.6781 8.24219C12.8656 8.8724 12.9828 9.46875 13.0297 10.0312H13.0765C13.1026 9.53125 13.2198 8.9349 13.4281 8.24219L15.1078 3.26562H17.6L14.2719 12H11.8265Z" fill="white"/>
<path d="M22.699 4.79688C22.1938 4.79688 21.7979 4.95833 21.5115 5.28125C21.225 5.59896 21.061 6.05208 21.0193 6.64062H24.363C24.3526 6.05208 24.199 5.59896 23.9021 5.28125C23.6052 4.95833 23.2042 4.79688 22.699 4.79688ZM23.0349 12.1562C21.6287 12.1562 20.5297 11.7682 19.738 10.9922C18.9464 10.2161 18.5505 9.11719 18.5505 7.69531C18.5505 6.23177 18.9151 5.10156 19.6443 4.30469C20.3787 3.5026 21.3917 3.10156 22.6833 3.10156C23.9177 3.10156 24.8787 3.45312 25.5662 4.15625C26.2537 4.85938 26.5974 5.83073 26.5974 7.07031V8.22656H20.9646C20.9906 8.90365 21.1912 9.43229 21.5662 9.8125C21.9412 10.1927 22.4672 10.3828 23.1443 10.3828C23.6703 10.3828 24.1677 10.3281 24.6365 10.2188C25.1052 10.1094 25.5948 9.9349 26.1052 9.69531V11.5391C25.6886 11.7474 25.2432 11.901 24.7693 12C24.2953 12.1042 23.7172 12.1562 23.0349 12.1562Z" fill="white"/>
<path d="M36.8214 12H34.4386V6.89844C34.4386 6.26823 34.3266 5.79688 34.1027 5.48438C33.8787 5.16667 33.5219 5.00781 33.0324 5.00781C32.3657 5.00781 31.8839 5.23177 31.587 5.67969C31.2902 6.1224 31.1417 6.85938 31.1417 7.89062V12H28.7589V3.26562H30.5792L30.8995 4.38281H31.0324C31.298 3.96094 31.6626 3.64323 32.1261 3.42969C32.5949 3.21094 33.1261 3.10156 33.7199 3.10156C34.7355 3.10156 35.5063 3.3776 36.0324 3.92969C36.5584 4.47656 36.8214 5.26823 36.8214 6.30469V12Z" fill="white"/>
<path d="M43.1782 10.2578C43.5949 10.2578 44.0949 10.1667 44.6782 9.98438V11.7578C44.0845 12.0234 43.3553 12.1562 42.4907 12.1562C41.5376 12.1562 40.8423 11.9167 40.4048 11.4375C39.9725 10.9531 39.7564 10.2292 39.7564 9.26562V5.05469H38.6157V4.04688L39.9282 3.25L40.6157 1.40625H42.1392V3.26562H44.5845V5.05469H42.1392V9.26562C42.1392 9.60417 42.2329 9.85417 42.4204 10.0156C42.6131 10.1771 42.8657 10.2578 43.1782 10.2578Z" fill="white"/>
</svg>
