<svg width="144" height="53" viewBox="0 0 144 53" fill="#EA574E" xmlns="http://www.w3.org/2000/svg">
<path d="M22.0508 38H0.671875V0.878906H22.0508V7.32812H8.54297V15.4785H21.1113V21.9277H8.54297V31.5H22.0508V38Z" />
<path d="M36.6928 38L25.8764 9.61328H33.976L39.4604 25.7871C39.7651 26.735 40.0021 27.7337 40.1714 28.7832C40.3576 29.8327 40.4845 30.7721 40.5522 31.6016H40.7553C40.8061 30.7044 40.9246 29.748 41.1108 28.7324C41.3139 27.7168 41.5763 26.735 41.8979 25.7871L47.3569 9.61328H55.4565L44.6401 38H36.6928Z" />
<path d="M71.9775 9.08008C74.6012 9.08008 76.8609 9.58789 78.7568 10.6035C80.6526 11.6022 82.1168 13.0579 83.1494 14.9707C84.1819 16.8835 84.6982 19.2194 84.6982 21.9785V25.7363H66.3915C66.4762 27.9199 67.1279 29.638 68.3466 30.8906C69.5823 32.1263 71.2919 32.7441 73.4755 32.7441C75.2867 32.7441 76.9456 32.5579 78.4521 32.1855C79.9586 31.8132 81.5074 31.2546 83.0986 30.5098V36.502C81.6936 37.196 80.221 37.7038 78.6806 38.0254C77.1572 38.347 75.3037 38.5078 73.1201 38.5078C70.2763 38.5078 67.7542 37.9831 65.5537 36.9336C63.3701 35.8841 61.652 34.2845 60.3994 32.1348C59.1637 29.985 58.5458 27.2767 58.5458 24.0098C58.5458 20.6921 59.1044 17.9329 60.2216 15.7324C61.3557 13.515 62.93 11.8561 64.9443 10.7559C66.9586 9.63867 69.303 9.08008 71.9775 9.08008ZM72.0283 14.5898C70.5218 14.5898 69.2692 15.0723 68.2705 16.0371C67.2887 17.002 66.7216 18.5169 66.5693 20.582H77.4365C77.4195 19.431 77.208 18.4069 76.8017 17.5098C76.4124 16.6126 75.8199 15.9017 75.0244 15.377C74.2457 14.8522 73.247 14.5898 72.0283 14.5898Z" />
<path d="M107.846 9.08008C110.876 9.08008 113.314 9.90951 115.159 11.5684C117.004 13.2103 117.926 15.8509 117.926 19.4902V38H110.182V21.4199C110.182 19.3887 109.81 17.8568 109.065 16.8242C108.337 15.7917 107.186 15.2754 105.612 15.2754C103.242 15.2754 101.625 16.0794 100.762 17.6875C99.8988 19.2956 99.4672 21.6146 99.4672 24.6445V38H91.7231V9.61328H97.6391L98.6801 13.2441H99.1117C99.7211 12.2624 100.474 11.4668 101.371 10.8574C102.286 10.248 103.293 9.79948 104.393 9.51172C105.51 9.22396 106.661 9.08008 107.846 9.08008Z" />
<path d="M138.586 32.3379C139.432 32.3379 140.253 32.2533 141.049 32.084C141.861 31.9147 142.665 31.7031 143.461 31.4492V37.2129C142.631 37.5853 141.599 37.89 140.363 38.127C139.144 38.3809 137.807 38.5078 136.351 38.5078C134.659 38.5078 133.135 38.237 131.781 37.6953C130.444 37.1367 129.386 36.1803 128.607 34.8262C127.846 33.4551 127.465 31.5508 127.465 29.1133V15.4277H123.758V12.1523L128.023 9.5625L130.258 3.57031H135.209V9.61328H143.156V15.4277H135.209V29.1133C135.209 30.1966 135.514 31.0091 136.123 31.5508C136.749 32.0755 137.57 32.3379 138.586 32.3379Z" />
</svg>
