<svg width="71" height="17" viewBox="0 0 71 17" fill="none" xmlns="http://www.w3.org/2000/svg">
<path d="M5.77539 6.58594H10.3066V12.5078C9.57227 12.7474 8.87956 12.9141 8.22852 13.0078C7.58268 13.1068 6.92122 13.1562 6.24414 13.1562C4.52018 13.1562 3.20247 12.651 2.29102 11.6406C1.38477 10.625 0.931641 9.16927 0.931641 7.27344C0.931641 5.42969 1.45768 3.99219 2.50977 2.96094C3.56706 1.92969 5.0306 1.41406 6.90039 1.41406C8.07227 1.41406 9.20247 1.64844 10.291 2.11719L9.48633 4.05469C8.65299 3.63802 7.78581 3.42969 6.88477 3.42969C5.83789 3.42969 4.99935 3.78125 4.36914 4.48438C3.73893 5.1875 3.42383 6.13281 3.42383 7.32031C3.42383 8.5599 3.67643 9.50781 4.18164 10.1641C4.69206 10.8151 5.43164 11.1406 6.40039 11.1406C6.9056 11.1406 7.41862 11.0885 7.93945 10.9844V8.60156H5.77539V6.58594Z" fill="white"/>
<path d="M17.9447 4.10156C18.2676 4.10156 18.5358 4.125 18.7494 4.17188L18.5697 6.40625C18.377 6.35417 18.1426 6.32812 17.8666 6.32812C17.1062 6.32812 16.5124 6.52344 16.0853 6.91406C15.6635 7.30469 15.4525 7.85156 15.4525 8.55469V13H13.0697V4.26562H14.8744L15.226 5.73438H15.3431C15.614 5.24479 15.9786 4.85156 16.4369 4.55469C16.9004 4.2526 17.403 4.10156 17.9447 4.10156Z" fill="white"/>
<path d="M24.1765 5.79688C23.6713 5.79688 23.2755 5.95833 22.989 6.28125C22.7026 6.59896 22.5385 7.05208 22.4968 7.64062H25.8406C25.8302 7.05208 25.6765 6.59896 25.3796 6.28125C25.0828 5.95833 24.6817 5.79688 24.1765 5.79688ZM24.5125 13.1562C23.1062 13.1562 22.0072 12.7682 21.2156 11.9922C20.4239 11.2161 20.0281 10.1172 20.0281 8.69531C20.0281 7.23177 20.3927 6.10156 21.1218 5.30469C21.8562 4.5026 22.8692 4.10156 24.1609 4.10156C25.3953 4.10156 26.3562 4.45312 27.0437 5.15625C27.7312 5.85938 28.075 6.83073 28.075 8.07031V9.22656H22.4421C22.4682 9.90365 22.6687 10.4323 23.0437 10.8125C23.4187 11.1927 23.9447 11.3828 24.6218 11.3828C25.1479 11.3828 25.6453 11.3281 26.114 11.2188C26.5828 11.1094 27.0723 10.9349 27.5828 10.6953V12.5391C27.1661 12.7474 26.7208 12.901 26.2468 13C25.7729 13.1042 25.1947 13.1562 24.5125 13.1562Z" fill="white"/>
<path d="M33.8536 5.79688C33.3484 5.79688 32.9526 5.95833 32.6661 6.28125C32.3797 6.59896 32.2156 7.05208 32.174 7.64062H35.5177C35.5073 7.05208 35.3536 6.59896 35.0568 6.28125C34.7599 5.95833 34.3588 5.79688 33.8536 5.79688ZM34.1896 13.1562C32.7833 13.1562 31.6844 12.7682 30.8927 11.9922C30.101 11.2161 29.7052 10.1172 29.7052 8.69531C29.7052 7.23177 30.0698 6.10156 30.799 5.30469C31.5333 4.5026 32.5463 4.10156 33.838 4.10156C35.0724 4.10156 36.0333 4.45312 36.7208 5.15625C37.4083 5.85938 37.7521 6.83073 37.7521 8.07031V9.22656H32.1193C32.1453 9.90365 32.3458 10.4323 32.7208 10.8125C33.0958 11.1927 33.6219 11.3828 34.299 11.3828C34.825 11.3828 35.3224 11.3281 35.7911 11.2188C36.2599 11.1094 36.7495 10.9349 37.2599 10.6953V12.5391C36.8432 12.7474 36.3979 12.901 35.924 13C35.45 13.1042 34.8719 13.1562 34.1896 13.1562Z" fill="white"/>
<path d="M43.5933 11.2578C44.0099 11.2578 44.5099 11.1667 45.0933 10.9844V12.7578C44.4995 13.0234 43.7704 13.1562 42.9058 13.1562C41.9526 13.1562 41.2573 12.9167 40.8198 12.4375C40.3875 11.9531 40.1714 11.2292 40.1714 10.2656V6.05469H39.0308V5.04688L40.3433 4.25L41.0308 2.40625H42.5542V4.26562H44.9995V6.05469H42.5542V10.2656C42.5542 10.6042 42.648 10.8542 42.8355 11.0156C43.0282 11.1771 43.2808 11.2578 43.5933 11.2578Z" fill="white"/>
<path d="M46.9891 2.00781C46.9891 1.23177 47.4214 0.84375 48.286 0.84375C49.1506 0.84375 49.5829 1.23177 49.5829 2.00781C49.5829 2.3776 49.4735 2.66667 49.2548 2.875C49.0412 3.07812 48.7183 3.17969 48.286 3.17969C47.4214 3.17969 46.9891 2.78906 46.9891 2.00781ZM49.4735 13H47.0907V4.26562H49.4735V13Z" fill="white"/>
<path d="M60.2678 13H57.885V7.89844C57.885 7.26823 57.773 6.79688 57.5491 6.48438C57.3251 6.16667 56.9684 6.00781 56.4788 6.00781C55.8121 6.00781 55.3303 6.23177 55.0335 6.67969C54.7366 7.1224 54.5881 7.85938 54.5881 8.89062V13H52.2053V4.26562H54.0256L54.346 5.38281H54.4788C54.7444 4.96094 55.109 4.64323 55.5725 4.42969C56.0413 4.21094 56.5725 4.10156 57.1663 4.10156C58.1819 4.10156 58.9527 4.3776 59.4788 4.92969C60.0048 5.47656 60.2678 6.26823 60.2678 7.30469V13Z" fill="white"/>
<path d="M70.5465 4.26562V5.47656L69.1793 5.82812C69.4293 6.21875 69.5543 6.65625 69.5543 7.14062C69.5543 8.07812 69.2262 8.8099 68.57 9.33594C67.9189 9.85677 67.0127 10.1172 65.8512 10.1172L65.4215 10.0938L65.07 10.0547C64.8252 10.2422 64.7028 10.4505 64.7028 10.6797C64.7028 11.0234 65.1403 11.1953 66.0153 11.1953H67.4996C68.458 11.1953 69.1871 11.401 69.6871 11.8125C70.1923 12.224 70.445 12.8281 70.445 13.625C70.445 14.6458 70.0179 15.4375 69.1637 16C68.3147 16.5625 67.0934 16.8438 65.4996 16.8438C64.2809 16.8438 63.3486 16.6302 62.7028 16.2031C62.0621 15.7812 61.7418 15.1875 61.7418 14.4219C61.7418 13.8958 61.9059 13.4557 62.234 13.1016C62.5621 12.7474 63.0439 12.4948 63.6793 12.3438C63.4345 12.2396 63.221 12.0703 63.0387 11.8359C62.8564 11.5964 62.7653 11.3438 62.7653 11.0781C62.7653 10.7448 62.8616 10.4688 63.0543 10.25C63.247 10.026 63.5257 9.80729 63.8903 9.59375C63.4319 9.39583 63.0673 9.07812 62.7965 8.64062C62.5309 8.20312 62.3981 7.6875 62.3981 7.09375C62.3981 6.14062 62.708 5.40365 63.3278 4.88281C63.9476 4.36198 64.833 4.10156 65.984 4.10156C66.2288 4.10156 66.5179 4.125 66.8512 4.17188C67.1897 4.21354 67.4059 4.24479 67.4996 4.26562H70.5465ZM63.8043 14.2344C63.8043 14.5625 63.9606 14.8203 64.2731 15.0078C64.5908 15.1953 65.0335 15.2891 65.6012 15.2891C66.4554 15.2891 67.1246 15.1719 67.609 14.9375C68.0934 14.7031 68.3356 14.3828 68.3356 13.9766C68.3356 13.6484 68.1923 13.4219 67.9059 13.2969C67.6194 13.1719 67.1767 13.1094 66.5778 13.1094H65.3434C64.9059 13.1094 64.5387 13.2109 64.2418 13.4141C63.9502 13.6224 63.8043 13.8958 63.8043 14.2344ZM64.6715 7.125C64.6715 7.59896 64.7783 7.97396 64.9918 8.25C65.2106 8.52604 65.5413 8.66406 65.984 8.66406C66.4319 8.66406 66.7601 8.52604 66.9684 8.25C67.1767 7.97396 67.2809 7.59896 67.2809 7.125C67.2809 6.07292 66.8486 5.54688 65.984 5.54688C65.109 5.54688 64.6715 6.07292 64.6715 7.125Z" fill="white"/>
</svg>
