<svg width="227" height="53" viewBox="0 0 227 53" fill="#EA574E" xmlns="http://www.w3.org/2000/svg">
<path d="M15.7637 19.1543H30.4902V38.4004C28.5436 39.0436 26.5208 39.5599 24.4219 39.9492C22.3229 40.3216 19.9447 40.5078 17.2871 40.5078C13.597 40.5078 10.4655 39.7799 7.89258 38.3242C5.31966 36.8685 3.36458 34.7188 2.02734 31.875C0.690104 29.0312 0.0214844 25.5358 0.0214844 21.3887C0.0214844 17.4954 0.766276 14.127 2.25586 11.2832C3.76237 8.43945 5.95443 6.23893 8.83203 4.68164C11.7266 3.12435 15.2559 2.3457 19.4199 2.3457C21.3835 2.3457 23.3216 2.55729 25.2344 2.98047C27.1471 3.40365 28.8822 3.95378 30.4395 4.63086L27.8242 10.9277C26.6901 10.3522 25.3952 9.86979 23.9395 9.48047C22.4837 9.09115 20.9603 8.89648 19.3691 8.89648C17.084 8.89648 15.0951 9.42122 13.4023 10.4707C11.7266 11.5202 10.4232 12.9928 9.49219 14.8887C8.57812 16.7676 8.12109 18.985 8.12109 21.541C8.12109 23.9616 8.45117 26.1113 9.11133 27.9902C9.77148 29.8522 10.8125 31.3164 12.2344 32.3828C13.6562 33.4323 15.5098 33.957 17.7949 33.957C18.9121 33.957 19.8516 33.9062 20.6133 33.8047C21.3919 33.6862 22.1198 33.5677 22.7969 33.4492V25.7051H15.7637V19.1543Z" />
<path d="M55.3139 11.0801C55.7033 11.0801 56.1518 11.1055 56.6596 11.1562C57.1844 11.1901 57.6076 11.2409 57.9292 11.3086L57.3452 18.5703C57.0913 18.4857 56.7273 18.4264 56.2534 18.3926C55.7964 18.3418 55.3986 18.3164 55.06 18.3164C54.0613 18.3164 53.088 18.4434 52.1401 18.6973C51.2091 18.9512 50.3712 19.3659 49.6264 19.9414C48.8816 20.5 48.2892 21.2448 47.8491 22.1758C47.4259 23.0898 47.2143 24.2155 47.2143 25.5527V40H39.4702V11.6133H45.3354L46.478 16.3867H46.8589C47.4175 15.4219 48.1115 14.5417 48.9409 13.7461C49.7872 12.9336 50.7436 12.2904 51.81 11.8164C52.8934 11.3255 54.0613 11.0801 55.3139 11.0801Z" />
<path d="M75.5165 11.0801C78.1402 11.0801 80.4 11.5879 82.2958 12.6035C84.1917 13.6022 85.6559 15.0579 86.6884 16.9707C87.721 18.8835 88.2373 21.2194 88.2373 23.9785V27.7363H69.9306C70.0152 29.9199 70.6669 31.638 71.8857 32.8906C73.1214 34.1263 74.831 34.7441 77.0146 34.7441C78.8258 34.7441 80.4846 34.5579 81.9912 34.1855C83.4977 33.8132 85.0465 33.2546 86.6376 32.5098V38.502C85.2327 39.196 83.76 39.7038 82.2197 40.0254C80.6962 40.347 78.8427 40.5078 76.6591 40.5078C73.8154 40.5078 71.2932 39.9831 69.0927 38.9336C66.9091 37.8841 65.191 36.2845 63.9384 34.1348C62.7027 31.985 62.0849 29.2767 62.0849 26.0098C62.0849 22.6921 62.6435 19.9329 63.7607 17.7324C64.8948 15.515 66.469 13.8561 68.4833 12.7559C70.4977 11.6387 72.8421 11.0801 75.5165 11.0801ZM75.5673 16.5898C74.0608 16.5898 72.8082 17.0723 71.8095 18.0371C70.8277 19.002 70.2607 20.5169 70.1083 22.582H80.9755C80.9586 21.431 80.747 20.4069 80.3408 19.5098C79.9514 18.6126 79.359 17.9017 78.5634 17.377C77.7848 16.8522 76.7861 16.5898 75.5673 16.5898Z" />
<path d="M106.967 11.0801C109.591 11.0801 111.851 11.5879 113.746 12.6035C115.642 13.6022 117.107 15.0579 118.139 16.9707C119.172 18.8835 119.688 21.2194 119.688 23.9785V27.7363H101.381C101.466 29.9199 102.118 31.638 103.336 32.8906C104.572 34.1263 106.282 34.7441 108.465 34.7441C110.276 34.7441 111.935 34.5579 113.442 34.1855C114.948 33.8132 116.497 33.2546 118.088 32.5098V38.502C116.683 39.196 115.211 39.7038 113.67 40.0254C112.147 40.347 110.293 40.5078 108.11 40.5078C105.266 40.5078 102.744 39.9831 100.543 38.9336C98.3598 37.8841 96.6417 36.2845 95.3891 34.1348C94.1534 31.985 93.5356 29.2767 93.5356 26.0098C93.5356 22.6921 94.0942 19.9329 95.2113 17.7324C96.3455 15.515 97.9197 13.8561 99.934 12.7559C101.948 11.6387 104.293 11.0801 106.967 11.0801ZM107.018 16.5898C105.511 16.5898 104.259 17.0723 103.26 18.0371C102.278 19.002 101.711 20.5169 101.559 22.582H112.426C112.409 21.431 112.198 20.4069 111.791 19.5098C111.402 18.6126 110.81 17.9017 110.014 17.377C109.235 16.8522 108.237 16.5898 107.018 16.5898Z" />
<path d="M138.672 34.3379C139.518 34.3379 140.339 34.2533 141.135 34.084C141.947 33.9147 142.751 33.7031 143.547 33.4492V39.2129C142.717 39.5853 141.685 39.89 140.449 40.127C139.23 40.3809 137.893 40.5078 136.437 40.5078C134.745 40.5078 133.221 40.237 131.867 39.6953C130.53 39.1367 129.472 38.1803 128.693 36.8262C127.932 35.4551 127.551 33.5508 127.551 31.1133V17.4277H123.844V14.1523L128.109 11.5625L130.344 5.57031H135.295V11.6133H143.242V17.4277H135.295V31.1133C135.295 32.1966 135.6 33.0091 136.209 33.5508C136.835 34.0755 137.656 34.3379 138.672 34.3379Z" />
<path d="M157.783 11.6133V40H150.038V11.6133H157.783ZM153.923 0.492188C155.074 0.492188 156.064 0.763021 156.894 1.30469C157.723 1.82943 158.138 2.81966 158.138 4.27539C158.138 5.71419 157.723 6.71289 156.894 7.27148C156.064 7.81315 155.074 8.08398 153.923 8.08398C152.755 8.08398 151.757 7.81315 150.927 7.27148C150.115 6.71289 149.708 5.71419 149.708 4.27539C149.708 2.81966 150.115 1.82943 150.927 1.30469C151.757 0.763021 152.755 0.492188 153.923 0.492188Z" />
<path d="M182.784 11.0801C185.814 11.0801 188.251 11.9095 190.097 13.5684C191.942 15.2103 192.864 17.8509 192.864 21.4902V40H185.12V23.4199C185.12 21.3887 184.748 19.8568 184.003 18.8242C183.275 17.7917 182.124 17.2754 180.55 17.2754C178.18 17.2754 176.563 18.0794 175.7 19.6875C174.837 21.2956 174.405 23.6146 174.405 26.6445V40H166.661V11.6133H172.577L173.618 15.2441H174.05C174.659 14.2624 175.412 13.4668 176.309 12.8574C177.223 12.248 178.231 11.7995 179.331 11.5117C180.448 11.224 181.599 11.0801 182.784 11.0801Z" />
<path d="M209.867 52.4922C205.907 52.4922 202.877 51.7982 200.778 50.4102C198.696 49.0391 197.655 47.1094 197.655 44.6211C197.655 42.9115 198.188 41.4811 199.254 40.3301C200.321 39.179 201.886 38.3581 203.951 37.8672C203.156 37.5286 202.462 36.9785 201.869 36.2168C201.277 35.4382 200.981 34.6172 200.981 33.7539C200.981 32.6706 201.294 31.7734 201.92 31.0625C202.547 30.3346 203.452 29.6237 204.637 28.9297C203.147 28.2865 201.963 27.2539 201.082 25.832C200.219 24.4102 199.787 22.7344 199.787 20.8047C199.787 18.7396 200.236 16.9876 201.133 15.5488C202.047 14.0931 203.367 12.9844 205.094 12.2227C206.838 11.4609 208.953 11.0801 211.442 11.0801C211.966 11.0801 212.576 11.1139 213.27 11.1816C213.964 11.2493 214.599 11.3255 215.174 11.4102C215.767 11.4948 216.164 11.5625 216.367 11.6133H226.27V15.5488L221.826 16.6914C222.233 17.3177 222.537 17.9863 222.741 18.6973C222.944 19.4082 223.045 20.1615 223.045 20.957C223.045 24.0039 221.979 26.3822 219.846 28.0918C217.73 29.7845 214.785 30.6309 211.01 30.6309C210.113 30.5801 209.267 30.5124 208.471 30.4277C208.082 30.7324 207.785 31.054 207.582 31.3926C207.379 31.7311 207.278 32.0866 207.278 32.459C207.278 32.8314 207.43 33.1445 207.735 33.3984C208.056 33.6354 208.53 33.8216 209.157 33.957C209.8 34.0755 210.595 34.1348 211.543 34.1348H216.367C219.482 34.1348 221.852 34.8034 223.477 36.1406C225.119 37.4779 225.94 39.4414 225.94 42.0312C225.94 45.349 224.552 47.9219 221.776 49.75C219.017 51.5781 215.047 52.4922 209.867 52.4922ZM210.198 47.4395C212.043 47.4395 213.625 47.2617 214.946 46.9062C216.283 46.5677 217.307 46.0768 218.018 45.4336C218.729 44.8073 219.084 44.054 219.084 43.1738C219.084 42.4629 218.873 41.8958 218.45 41.4727C218.043 41.0664 217.417 40.7786 216.571 40.6094C215.741 40.4401 214.675 40.3555 213.371 40.3555H209.36C208.412 40.3555 207.557 40.5078 206.795 40.8125C206.05 41.1172 205.458 41.5404 205.018 42.082C204.578 42.6406 204.358 43.2839 204.358 44.0117C204.358 45.0781 204.866 45.916 205.881 46.5254C206.914 47.1348 208.353 47.4395 210.198 47.4395ZM211.442 25.9082C212.897 25.9082 213.964 25.4596 214.641 24.5625C215.318 23.6654 215.657 22.4466 215.657 20.9062C215.657 19.1966 215.301 17.9186 214.59 17.0723C213.896 16.209 212.847 15.7773 211.442 15.7773C210.02 15.7773 208.953 16.209 208.242 17.0723C207.532 17.9186 207.176 19.1966 207.176 20.9062C207.176 22.4466 207.523 23.6654 208.217 24.5625C208.928 25.4596 210.003 25.9082 211.442 25.9082Z" />
</svg>
