<svg width="194" height="53" viewBox="0 0 194 53" fill="#EA574E" xmlns="http://www.w3.org/2000/svg">
<path d="M35.3652 21.3887C35.3652 24.2493 35.0098 26.8561 34.2988 29.209C33.5879 31.5449 32.5046 33.5592 31.0488 35.252C29.61 36.9447 27.7819 38.248 25.5645 39.1621C23.347 40.0592 20.7233 40.5078 17.6934 40.5078C14.6634 40.5078 12.0397 40.0592 9.82227 39.1621C7.60482 38.248 5.76823 36.9447 4.3125 35.252C2.8737 33.5592 1.79883 31.5365 1.08789 29.1836C0.376953 26.8307 0.0214844 24.2155 0.0214844 21.3379C0.0214844 17.4954 0.647786 14.1523 1.90039 11.3086C3.16992 8.44792 5.11654 6.23047 7.74023 4.65625C10.3639 3.08203 13.6986 2.29492 17.7441 2.29492C21.7728 2.29492 25.082 3.08203 27.6719 4.65625C30.2786 6.23047 32.2083 8.44792 33.4609 11.3086C34.7305 14.1693 35.3652 17.5293 35.3652 21.3887ZM8.27344 21.3887C8.27344 23.9785 8.59505 26.2129 9.23828 28.0918C9.89844 29.9538 10.9225 31.3926 12.3105 32.4082C13.6986 33.4069 15.4928 33.9062 17.6934 33.9062C19.9277 33.9062 21.7389 33.4069 23.127 32.4082C24.515 31.3926 25.5221 29.9538 26.1484 28.0918C26.7917 26.2129 27.1133 23.9785 27.1133 21.3887C27.1133 17.4954 26.3854 14.4316 24.9297 12.1973C23.474 9.96289 21.0788 8.8457 17.7441 8.8457C15.5267 8.8457 13.7155 9.35352 12.3105 10.3691C10.9225 11.3678 9.89844 12.8066 9.23828 14.6855C8.59505 16.5475 8.27344 18.7819 8.27344 21.3887Z" />
<path d="M69.228 11.6133V40H63.2866L62.2456 36.3691H61.8393C61.2299 37.334 60.4682 38.1211 59.5542 38.7305C58.6401 39.3398 57.6329 39.7884 56.5327 40.0762C55.4324 40.3639 54.2898 40.5078 53.105 40.5078C51.0737 40.5078 49.3048 40.1523 47.7983 39.4414C46.2918 38.7135 45.1154 37.5879 44.269 36.0645C43.4396 34.541 43.0249 32.5605 43.0249 30.123V11.6133H50.769V28.1934C50.769 30.2246 51.1329 31.7565 51.8608 32.7891C52.5887 33.8216 53.7482 34.3379 55.3393 34.3379C56.9135 34.3379 58.1492 33.9824 59.0464 33.2715C59.9435 32.5436 60.5698 31.4857 60.9253 30.0977C61.2977 28.6927 61.4839 26.9831 61.4839 24.9688V11.6133H69.228Z" />
<path d="M90.04 34.3379C90.8863 34.3379 91.7073 34.2533 92.5029 34.084C93.3154 33.9147 94.1194 33.7031 94.915 33.4492V39.2129C94.0856 39.5853 93.053 39.89 91.8173 40.127C90.5986 40.3809 89.2613 40.5078 87.8056 40.5078C86.1129 40.5078 84.5895 40.237 83.2353 39.6953C81.8981 39.1367 80.8401 38.1803 80.0615 36.8262C79.2998 35.4551 78.9189 33.5508 78.9189 31.1133V17.4277H75.2119V14.1523L79.4775 11.5625L81.7119 5.57031H86.663V11.6133H94.6103V17.4277H86.663V31.1133C86.663 32.1966 86.9677 33.0091 87.5771 33.5508C88.2034 34.0755 89.0244 34.3379 90.04 34.3379Z" />
<path d="M109.151 40H101.407V0.492188H109.151V40Z" />
<path d="M125.773 11.6133V40H118.029V11.6133H125.773ZM121.914 0.492188C123.065 0.492188 124.055 0.763021 124.885 1.30469C125.714 1.82943 126.129 2.81966 126.129 4.27539C126.129 5.71419 125.714 6.71289 124.885 7.27148C124.055 7.81315 123.065 8.08398 121.914 8.08398C120.746 8.08398 119.747 7.81315 118.918 7.27148C118.105 6.71289 117.699 5.71419 117.699 4.27539C117.699 2.81966 118.105 1.82943 118.918 1.30469C119.747 0.763021 120.746 0.492188 121.914 0.492188Z" />
<path d="M150.775 11.0801C153.805 11.0801 156.242 11.9095 158.087 13.5684C159.932 15.2103 160.855 17.8509 160.855 21.4902V40H153.111V23.4199C153.111 21.3887 152.738 19.8568 151.994 18.8242C151.266 17.7917 150.115 17.2754 148.54 17.2754C146.171 17.2754 144.554 18.0794 143.691 19.6875C142.827 21.2956 142.396 23.6146 142.396 26.6445V40H134.652V11.6133H140.568L141.609 15.2441H142.04C142.65 14.2624 143.403 13.4668 144.3 12.8574C145.214 12.248 146.221 11.7995 147.322 11.5117C148.439 11.224 149.59 11.0801 150.775 11.0801Z" />
<path d="M181.261 11.0801C183.884 11.0801 186.144 11.5879 188.04 12.6035C189.936 13.6022 191.4 15.0579 192.432 16.9707C193.465 18.8835 193.981 21.2194 193.981 23.9785V27.7363H175.675C175.759 29.9199 176.411 31.638 177.63 32.8906C178.865 34.1263 180.575 34.7441 182.759 34.7441C184.57 34.7441 186.229 34.5579 187.735 34.1855C189.242 33.8132 190.791 33.2546 192.382 32.5098V38.502C190.977 39.196 189.504 39.7038 187.964 40.0254C186.44 40.347 184.587 40.5078 182.403 40.5078C179.559 40.5078 177.037 39.9831 174.837 38.9336C172.653 37.8841 170.935 36.2845 169.682 34.1348C168.447 31.985 167.829 29.2767 167.829 26.0098C167.829 22.6921 168.388 19.9329 169.505 17.7324C170.639 15.515 172.213 13.8561 174.227 12.7559C176.242 11.6387 178.586 11.0801 181.261 11.0801ZM181.311 16.5898C179.805 16.5898 178.552 17.0723 177.554 18.0371C176.572 19.002 176.005 20.5169 175.852 22.582H186.72C186.703 21.431 186.491 20.4069 186.085 19.5098C185.695 18.6126 185.103 17.9017 184.307 17.377C183.529 16.8522 182.53 16.5898 181.311 16.5898Z" />
</svg>