<svg width="61" height="14" viewBox="0 0 61 14" fill="none" xmlns="http://www.w3.org/2000/svg">
<path d="M11.8428 7.27344C11.8428 8.15365 11.7334 8.95573 11.5146 9.67969C11.2959 10.3984 10.9626 11.0182 10.5146 11.5391C10.0719 12.0599 9.50944 12.4609 8.82715 12.7422C8.14486 13.0182 7.33757 13.1562 6.40527 13.1562C5.47298 13.1562 4.66569 13.0182 3.9834 12.7422C3.30111 12.4609 2.736 12.0599 2.28809 11.5391C1.84538 11.0182 1.51465 10.3958 1.2959 9.67188C1.07715 8.94792 0.967773 8.14323 0.967773 7.25781C0.967773 6.07552 1.16048 5.04688 1.5459 4.17188C1.93652 3.29167 2.53548 2.60938 3.34277 2.125C4.15007 1.64062 5.17611 1.39844 6.4209 1.39844C7.66048 1.39844 8.67871 1.64062 9.47559 2.125C10.2777 2.60938 10.8714 3.29167 11.2568 4.17188C11.6475 5.05208 11.8428 6.08594 11.8428 7.27344ZM3.50684 7.27344C3.50684 8.07031 3.60579 8.75781 3.80371 9.33594C4.00684 9.90885 4.32194 10.3516 4.74902 10.6641C5.17611 10.9714 5.72819 11.125 6.40527 11.125C7.09277 11.125 7.65007 10.9714 8.07715 10.6641C8.50423 10.3516 8.81413 9.90885 9.00684 9.33594C9.20475 8.75781 9.30371 8.07031 9.30371 7.27344C9.30371 6.07552 9.07975 5.13281 8.63184 4.44531C8.18392 3.75781 7.44694 3.41406 6.4209 3.41406C5.73861 3.41406 5.18132 3.57031 4.74902 3.88281C4.32194 4.1901 4.00684 4.63281 3.80371 5.21094C3.60579 5.78385 3.50684 6.47135 3.50684 7.27344Z" fill="white"/>
<path d="M22.2621 4.26562V13H20.434L20.1136 11.8828H19.9886C19.8011 12.1797 19.5668 12.4219 19.2855 12.6094C19.0043 12.7969 18.6944 12.9349 18.3558 13.0234C18.0173 13.112 17.6657 13.1562 17.3011 13.1562C16.6761 13.1562 16.1319 13.0469 15.6683 12.8281C15.2048 12.6042 14.8428 12.2578 14.5824 11.7891C14.3272 11.3203 14.1996 10.7109 14.1996 9.96094V4.26562H16.5824V9.36719C16.5824 9.99219 16.6944 10.4635 16.9183 10.7812C17.1423 11.099 17.4991 11.2578 17.9886 11.2578C18.473 11.2578 18.8532 11.1484 19.1293 10.9297C19.4053 10.7057 19.598 10.3802 19.7074 9.95312C19.822 9.52083 19.8793 8.99479 19.8793 8.375V4.26562H22.2621Z" fill="white"/>
<path d="M28.6658 11.2578C28.9262 11.2578 29.1788 11.2318 29.4236 11.1797C29.6736 11.1276 29.921 11.0625 30.1658 10.9844V12.7578C29.9106 12.8724 29.5929 12.9661 29.2126 13.0391C28.8376 13.1172 28.4262 13.1562 27.9783 13.1562C27.4574 13.1562 26.9887 13.0729 26.572 12.9062C26.1606 12.7344 25.835 12.4401 25.5955 12.0234C25.3611 11.6016 25.2439 11.0156 25.2439 10.2656V6.05469H24.1033V5.04688L25.4158 4.25L26.1033 2.40625H27.6267V4.26562H30.072V6.05469H27.6267V10.2656C27.6267 10.599 27.7205 10.849 27.908 11.0156C28.1007 11.1771 28.3533 11.2578 28.6658 11.2578Z" fill="white"/>
<path d="M34.546 13H32.1632V0.84375H34.546V13Z" fill="white"/>
<path d="M39.6607 4.26562V13H37.2778V4.26562H39.6607ZM38.4732 0.84375C38.8273 0.84375 39.132 0.927083 39.3872 1.09375C39.6424 1.25521 39.77 1.5599 39.77 2.00781C39.77 2.45052 39.6424 2.75781 39.3872 2.92969C39.132 3.09635 38.8273 3.17969 38.4732 3.17969C38.1138 3.17969 37.8065 3.09635 37.5513 2.92969C37.3013 2.75781 37.1763 2.45052 37.1763 2.00781C37.1763 1.5599 37.3013 1.25521 37.5513 1.09375C37.8065 0.927083 38.1138 0.84375 38.4732 0.84375Z" fill="white"/>
<path d="M47.3534 4.10156C48.2857 4.10156 49.0357 4.35677 49.6034 4.86719C50.1711 5.3724 50.455 6.1849 50.455 7.30469V13H48.0722V7.89844C48.0722 7.27344 47.9576 6.80208 47.7284 6.48438C47.5044 6.16667 47.1503 6.00781 46.6659 6.00781C45.9367 6.00781 45.4393 6.25521 45.1737 6.75C44.9081 7.24479 44.7753 7.95833 44.7753 8.89062V13H42.3925V4.26562H44.2128L44.5331 5.38281H44.6659C44.8534 5.08073 45.0852 4.83594 45.3612 4.64844C45.6425 4.46094 45.9524 4.32292 46.2909 4.23438C46.6347 4.14583 46.9888 4.10156 47.3534 4.10156Z" fill="white"/>
<path d="M56.7337 4.10156C57.5409 4.10156 58.2363 4.25781 58.8196 4.57031C59.4029 4.8776 59.8534 5.32552 60.1712 5.91406C60.4889 6.5026 60.6477 7.22135 60.6477 8.07031V9.22656H55.0149C55.0409 9.89844 55.2415 10.4271 55.6165 10.8125C55.9967 11.1927 56.5227 11.3828 57.1946 11.3828C57.7519 11.3828 58.2623 11.3255 58.7258 11.2109C59.1894 11.0964 59.6659 10.9245 60.1555 10.6953V12.5391C59.7232 12.7526 59.2701 12.9089 58.7962 13.0078C58.3274 13.1068 57.7571 13.1562 57.0852 13.1562C56.2102 13.1562 55.4342 12.9948 54.7571 12.6719C54.0852 12.349 53.5566 11.8568 53.1712 11.1953C52.7909 10.5339 52.6008 9.70052 52.6008 8.69531C52.6008 7.67448 52.7727 6.82552 53.1165 6.14844C53.4654 5.46615 53.9498 4.95573 54.5696 4.61719C55.1894 4.27344 55.9107 4.10156 56.7337 4.10156ZM56.7493 5.79688C56.2857 5.79688 55.9003 5.94531 55.593 6.24219C55.2909 6.53906 55.1165 7.00521 55.0696 7.64062H58.4133C58.4081 7.28646 58.343 6.97135 58.218 6.69531C58.0982 6.41927 57.9159 6.20052 57.6712 6.03906C57.4316 5.8776 57.1243 5.79688 56.7493 5.79688Z" fill="white"/>
</svg>
