<?xml version="1.0" encoding="utf-8"?>
<!-- Generator: Adobe Illustrator 25.0.1, SVG Export Plug-In . SVG Version: 6.00 Build 0)  -->
<svg version="1.1" xmlns="http://www.w3.org/2000/svg" xmlns:xlink="http://www.w3.org/1999/xlink" x="0px" y="0px"
	 viewBox="0 0 1009.07 504.54" style="enable-background:new 0 0 1009.07 504.54;" xml:space="preserve">
<style type="text/css">
	.st0{fill:#FFFFFF;}
</style>
<g id="レイヤー_4">
</g>
<g id="レイヤー_1">
	<g>
		<path class="st0" d="M463.03,46.4v26.2h-6.39l-1.49-6.04c-3.27,5.11-7.31,7.1-14.2,7.1c-13.42,0-21.65-9.3-21.65-24.42
			c0-15.19,9.09-25.06,23-25.06c10.37,0,18.18,5.89,20.38,15.41l-10.29,0.64c-1.14-4.4-4.83-7.03-10.01-7.03
			c-7.67,0-12.42,5.82-12.42,15.34c0,10.22,4.61,16.33,12.35,16.33c6.03,0,10.58-3.76,11.64-9.73h-11.57V46.4H463.03z"/>
		<path class="st0" d="M482.84,38.3l-0.28,6.11c1.99-5.54,4.54-7.1,11.86-7.03v9.51c-1.21-0.14-1.7-0.14-2.56-0.14
			c-3.48,0-6.32,1.56-7.45,4.12c-0.99,2.27-1.35,5.47-1.35,12.07v9.66h-10.08V38.3H482.84z"/>
		<path class="st0" d="M502.86,49.09c0.64-7.88,5.54-11.72,15.19-11.72c5.18,0,9.16,1.21,11.86,3.55c2.48,2.2,3.41,4.97,3.41,10.01
			V66.7c0,3.69,0.14,4.19,1.28,5.89H524.3c-0.43-1.21-0.43-1.42-0.78-2.7c-3.34,2.77-5.75,3.62-9.8,3.62
			c-7.6,0-12.64-4.26-12.64-10.72s4.05-9.8,13.63-11.36l5.47-0.92c2.27-0.35,3.05-0.92,3.05-2.34c0-1.92-1.99-3.12-5.25-3.12
			c-3.69,0-5.68,1.28-6.11,4.05H502.86z M523.52,56.27c-1.06,0.43-1.99,0.71-3.69,1.06l-3.62,0.78c-3.62,0.85-5.18,2.06-5.18,4.12
			c0,2.27,1.92,3.62,5.11,3.62c3.34,0,5.75-1.42,7.38-4.33V56.27z"/>
		<path class="st0" d="M576.13,72.59h-9.66V68.9c-2.56,3.34-5.25,4.61-9.44,4.61c-9.02,0-15.05-7.17-15.05-18.03
			c0-10.93,6.11-18.18,15.34-18.18c3.69,0,6.32,1.06,8.73,3.55V25.24h10.08V72.59z M551.92,55.41c0,6.03,2.84,9.94,7.24,9.94
			c4.33,0,7.24-3.98,7.24-9.8c0-6.11-2.84-10.08-7.24-10.08C554.76,45.47,551.92,49.38,551.92,55.41z"/>
		<path class="st0" d="M618.87,72.59h-9.58v-3.76c-2.41,3.41-4.9,4.69-9.09,4.69c-3.55,0-6.82-1.28-9.09-3.55
			c-2.34-2.34-3.27-5.25-3.27-10.15V38.3h10.08v19.31c0,3.34,0.14,4.19,1.06,5.4c0.92,1.28,2.56,1.99,4.4,1.99s3.41-0.71,4.33-1.99
			c0.92-1.21,1.06-1.99,1.06-5.4V38.3h10.08V72.59z"/>
		<path class="st0" d="M629.31,49.09c0.64-7.88,5.54-11.72,15.19-11.72c5.18,0,9.16,1.21,11.86,3.55c2.48,2.2,3.41,4.97,3.41,10.01
			V66.7c0,3.69,0.14,4.19,1.28,5.89h-10.29c-0.43-1.21-0.43-1.42-0.78-2.7c-3.34,2.77-5.75,3.62-9.8,3.62
			c-7.6,0-12.64-4.26-12.64-10.72s4.05-9.8,13.63-11.36l5.47-0.92c2.27-0.35,3.05-0.92,3.05-2.34c0-1.92-1.99-3.12-5.25-3.12
			c-3.69,0-5.68,1.28-6.11,4.05H629.31z M649.97,56.27c-1.06,0.43-1.99,0.71-3.69,1.06l-3.62,0.78c-3.62,0.85-5.18,2.06-5.18,4.12
			c0,2.27,1.92,3.62,5.11,3.62c3.34,0,5.75-1.42,7.38-4.33V56.27z"/>
		<path class="st0" d="M690.37,45.83h-6.18v13.35c0,5.4,0.21,5.82,2.56,5.82h3.62v7.6h-6.18c-4.4,0-6.6-0.64-8.09-2.27
			c-1.56-1.7-1.99-3.55-1.99-8.88V45.83h-4.83v-7.1h4.83V27.87h10.08v10.86h6.18V45.83z"/>
		<path class="st0" d="M711.95,33.55h-10.08v-8.31h10.08V33.55z M711.95,72.59h-10.08V38.3h10.08V72.59z"/>
		<path class="st0" d="M756.96,55.7c0,10.37-7.67,17.82-18.25,17.82c-10.65,0-18.18-7.45-18.18-18.1c0-10.58,7.53-18.03,18.18-18.03
			C749.58,37.38,756.96,44.76,756.96,55.7z M730.69,55.41c0,6.46,2.91,10.08,8.09,10.08c5.04,0,8.02-3.62,8.02-9.87
			c0-6.6-2.84-10.22-8.09-10.22C733.6,45.4,730.69,49.02,730.69,55.41z"/>
		<path class="st0" d="M775.35,38.3v3.34c3.69-3.41,5.82-4.33,9.37-4.33c7.45,0,12,4.97,12,13.06v22.22h-10.08V53.92
			c0-3.48-0.21-4.83-1.07-6.11c-0.85-1.28-2.34-1.99-4.12-1.99c-1.7,0-3.27,0.64-4.33,1.85c-1.14,1.28-1.49,2.7-1.49,5.68v19.24
			h-10.08V38.3H775.35z"/>
		<path class="st0" d="M429.02,154.59l-12.78-47.36h10.58l5.11,21.23c0.92,3.98,1.42,6.18,2.63,11.79c0.78-5.4,1.28-8.24,1.99-11.79
			l4.47-21.23h10.22l4.4,21.58c0.92,4.69,1.42,7.24,2.06,11.43c0.43-2.06,1.21-5.89,2.41-11.43l5.25-21.58h10.58l-13.21,47.36h-9.94
			l-4.33-19.74c-1.06-4.9-2.06-10.01-2.34-12.28c-0.92,5.11-1.49,8.17-2.41,12.28l-4.47,19.74H429.02z"/>
		<path class="st0" d="M515.14,137.7c0,10.37-7.67,17.82-18.25,17.82c-10.65,0-18.18-7.45-18.18-18.1
			c0-10.58,7.53-18.03,18.18-18.03C507.76,119.38,515.14,126.76,515.14,137.7z M488.87,137.41c0,6.46,2.91,10.08,8.09,10.08
			c5.04,0,8.02-3.62,8.02-9.87c0-6.6-2.84-10.22-8.09-10.22C491.78,127.4,488.87,131.02,488.87,137.41z"/>
		<path class="st0" d="M533.6,120.3l-0.28,6.11c1.99-5.54,4.54-7.1,11.86-7.03v9.51c-1.21-0.14-1.7-0.14-2.56-0.14
			c-3.48,0-6.32,1.56-7.45,4.12c-0.99,2.27-1.35,5.47-1.35,12.07v9.66h-10.08V120.3H533.6z"/>
		<path class="st0" d="M589.19,154.59h-12.35l-8.52-14.63l-3.27,3.2v11.43h-10.08v-47.36h10.08v24.85l10.51-11.79h12.5l-13.06,13.06
			L589.19,154.59z"/>
		<path class="st0" d="M613.76,130.6c-0.43-2.56-2.49-3.91-5.82-3.91c-2.91,0-4.83,1.14-4.83,2.84c0,1.28,0.99,1.92,4.19,2.63
			l6.32,1.35c4.19,0.85,6.32,1.78,7.81,3.34c1.63,1.56,2.56,4.12,2.56,6.89c0,7.24-5.89,11.79-15.41,11.79
			c-9.51,0-15.41-4.47-15.97-12.07h9.44c0.57,3.27,2.7,4.76,6.74,4.76c3.2,0,5.25-1.28,5.25-3.34c0-1.63-1.14-2.48-3.83-3.12
			l-6.25-1.42c-7.53-1.63-10.44-4.4-10.44-9.87c0-6.89,5.47-11.08,14.63-11.08c8.8,0,14.13,3.98,15.05,11.22H613.76z"/>
		<path class="st0" d="M690.79,116.33h-24.64v9.23h21.51v8.38h-21.51v11.57h25.06v9.09h-35.71v-47.36h35.29V116.33z"/>
		<path class="st0" d="M732.68,154.59h-11.71l-6.46-9.8l-6.32,9.8h-11.5l12.28-17.96l-11.22-16.33h11.22l5.61,8.66l5.4-8.66h11.22
			l-11.15,16.33L732.68,154.59z"/>
		<path class="st0" d="M751.35,123.21c2.84-2.7,5.54-3.83,9.09-3.83c3.48,0,6.6,1.28,8.8,3.69c2.2,2.41,3.05,5.32,3.05,10.44v21.09
			h-10.08v-19.24c0-3.19-0.28-4.47-1.14-5.68c-0.85-1.14-2.27-1.77-3.98-1.77c-1.7,0-3.34,0.64-4.4,1.7
			c-1.14,1.21-1.35,2.2-1.35,5.75v19.24h-10.08v-47.36h10.08V123.21z"/>
		<path class="st0" d="M792.68,115.55h-10.08v-8.31h10.08V115.55z M792.68,154.59h-10.08V120.3h10.08V154.59z"/>
		<path class="st0" d="M801.55,107.24h10.08v15.48c3.27-2.41,5.96-3.34,9.44-3.34c8.73,0,14.63,7.1,14.63,17.61
			c0,10.79-6.32,18.53-15.12,18.53c-4.26,0-6.67-1.28-9.37-4.83v3.9h-9.66V107.24z M811.21,137.41c0,5.96,2.91,9.94,7.31,9.94
			c4.4,0,7.24-3.83,7.24-9.8c0-6.18-2.77-10.01-7.24-10.01C814.12,127.54,811.21,131.52,811.21,137.41z"/>
		<path class="st0" d="M854.37,115.55h-10.08v-8.31h10.08V115.55z M854.37,154.59h-10.08V120.3h10.08V154.59z"/>
		<path class="st0" d="M887.74,127.83h-6.18v13.35c0,5.4,0.21,5.82,2.56,5.82h3.62v7.6h-6.18c-4.4,0-6.6-0.64-8.09-2.27
			c-1.56-1.7-1.99-3.55-1.99-8.88v-15.62h-4.83v-7.1h4.83v-10.86h10.08v10.86h6.18V127.83z"/>
		<path class="st0" d="M909.33,115.55h-10.08v-8.31h10.08V115.55z M909.33,154.59h-10.08V120.3h10.08V154.59z"/>
		<path class="st0" d="M954.34,137.7c0,10.37-7.67,17.82-18.25,17.82c-10.65,0-18.18-7.45-18.18-18.1
			c0-10.58,7.53-18.03,18.18-18.03C946.96,119.38,954.34,126.76,954.34,137.7z M928.07,137.41c0,6.46,2.91,10.08,8.09,10.08
			c5.04,0,8.02-3.62,8.02-9.87c0-6.6-2.84-10.22-8.09-10.22C930.98,127.4,928.07,131.02,928.07,137.41z"/>
		<path class="st0" d="M972.73,120.3v3.34c3.69-3.41,5.82-4.33,9.37-4.33c7.45,0,12,4.97,12,13.06v22.22h-10.08v-18.67
			c0-3.48-0.21-4.83-1.06-6.11c-0.85-1.28-2.34-1.99-4.12-1.99c-1.7,0-3.27,0.64-4.33,1.85c-1.14,1.28-1.49,2.7-1.49,5.68v19.24
			h-10.08V120.3H972.73z"/>
	</g>
	<g>
		<path class="st0" d="M26.55,131.11c0.15-0.27,0.33-0.51,0.54-0.66c0.15-0.12,0.21-0.24,0.21-0.36c0-0.18-0.06-0.27-0.36-0.42
			c-0.48-0.21-1.18-0.45-1.84-0.63c-0.09,0.63-0.21,1.09-0.51,1.72c-1.69,3.77-4.98,7.87-9.41,10.53c0.39,0.21,0.75,0.57,1.06,1.03
			c0.21,0.27,0.27,0.39,0.42,0.39c0.09,0,0.21-0.09,0.45-0.27C21.33,139.38,24.11,136.03,26.55,131.11"/>
		<path class="st0" d="M32.86,129.18c-0.12-0.24-0.18-0.24-0.54-0.06l-0.84,0.36c-0.33,0.15-0.39,0.18-0.3,0.42
			c2.14,4.74,5.7,9.14,10.35,12.37c0.21,0.15,0.33,0.24,0.42,0.24c0.12,0,0.21-0.12,0.39-0.42c0.27-0.45,0.63-0.93,1-1.21
			C38.71,138.17,34.97,133.95,32.86,129.18"/>
		<path class="st0" d="M33.34,143.84c-0.18-0.18-0.21-0.18-0.51,0.03l-0.78,0.48c-0.36,0.24-0.45,0.3-0.3,0.48
			c1.45,1.75,2.68,3.41,3.8,5.16c-3.41,0.45-7.54,0.9-11.25,1.21c1.63-3.59,3.11-7.45,4.19-10.47c0.27-0.78,0.48-1.15,0.72-1.48
			c0.15-0.18,0.21-0.24,0.21-0.42c0-0.15-0.15-0.3-0.39-0.39c-0.57-0.21-1.21-0.39-1.93-0.57c-0.12,0.97-0.36,1.81-0.81,3.2
			c-0.78,2.47-2.29,6.43-4.07,10.32c-0.3,0-0.6,0.03-0.9,0.03c-1.33,0.09-2.38,0.12-3.35,0.06c0.15,0.75,0.33,1.45,0.51,1.99
			c0.06,0.24,0.18,0.36,0.3,0.36c0.15,0,0.24-0.06,0.39-0.15c0.24-0.15,0.54-0.27,1.21-0.33c5.31-0.48,11.28-1.09,16.11-1.84
			c0.54,0.9,1.06,1.84,1.6,2.87c0.12,0.24,0.18,0.21,0.6,0l0.94-0.54c0.39-0.21,0.42-0.27,0.3-0.45
			C37.71,149.58,36.05,147.07,33.34,143.84"/>
		<path class="st0" d="M74.02,135.67c0.21,0,0.24-0.03,0.24-0.27v-1.45c0-0.21-0.03-0.24-0.24-0.24c-0.15,0-1.15,0.06-4.16,0.06
			h-6.76v-2.5c0-1.3,0.06-1.81,0.18-2.08c0.09-0.21,0.15-0.33,0.15-0.54c0-0.12-0.15-0.24-0.39-0.27c-0.66-0.09-1.12-0.12-2.08-0.15
			c0.15,0.72,0.21,1.54,0.21,3.05v2.5h-6.15c-2.99,0-3.98-0.06-4.16-0.06c-0.21,0-0.24,0.03-0.24,0.24v1.45
			c0,0.24,0.03,0.27,0.24,0.27c0.18,0,1.18-0.06,4.16-0.06h14.84C72.88,135.61,73.87,135.67,74.02,135.67"/>
		<path class="st0" d="M55.96,137.9l-1,0.33c-0.42,0.15-0.45,0.18-0.36,0.39c1.3,3.35,2.2,6.42,2.9,10.47
			c0.06,0.27,0.12,0.3,0.57,0.18l1.06-0.3c0.36-0.09,0.36-0.18,0.33-0.39c-0.75-4.1-1.81-7.42-3.08-10.59
			C56.32,137.81,56.26,137.81,55.96,137.9"/>
		<path class="st0" d="M75.53,151.29c-0.18,0-1.09,0.06-3.92,0.06H65.7c1.57-3.65,2.75-7.12,3.83-10.86
			c0.18-0.63,0.33-1.06,0.57-1.33c0.12-0.15,0.27-0.33,0.27-0.51c0-0.15-0.06-0.24-0.3-0.33c-0.69-0.27-1.33-0.45-2.11-0.66
			c-0.09,1-0.24,1.78-0.6,3.14c-0.84,3.11-1.99,6.73-3.62,10.56H53.21c-2.81,0-3.74-0.06-3.89-0.06c-0.21,0-0.24,0.03-0.24,0.24
			v1.51c0,0.21,0.03,0.24,0.24,0.24c0.15,0,1.09-0.06,3.89-0.06h18.4c2.84,0,3.74,0.06,3.92,0.06c0.21,0,0.24-0.03,0.24-0.24v-1.51
			C75.77,151.32,75.74,151.29,75.53,151.29"/>
		<path class="st0" d="M96.58,138.35h7.54c2.9,0,3.86,0.06,4.01,0.06c0.21,0,0.24-0.03,0.24-0.27v-1.39c0-0.21-0.03-0.24-0.24-0.24
			c-0.15,0-1.12,0.06-4.01,0.06h-8.11c0.18-1.57,0.27-3.2,0.3-4.89c0.03-1.39,0.09-1.96,0.24-2.26c0.09-0.21,0.18-0.33,0.18-0.57
			c0-0.15-0.12-0.27-0.42-0.33c-0.6-0.09-1.45-0.15-2.14-0.18c0.15,0.9,0.18,1.72,0.15,3.41c-0.03,1.72-0.09,3.32-0.24,4.83h-7.12
			c-2.9,0-3.86-0.06-4.01-0.06c-0.21,0-0.24,0.03-0.24,0.24v1.39c0,0.24,0.03,0.27,0.24,0.27c0.15,0,1.12-0.06,4.01-0.06h6.91
			c-0.33,2.17-0.87,4.1-1.75,5.91c-1.75,3.62-4.95,6.82-10.04,8.93c0.39,0.27,0.78,0.6,1.12,1.03c0.21,0.3,0.3,0.42,0.45,0.42
			c0.12,0,0.24-0.06,0.48-0.15c4.64-2.32,7.66-5.19,9.74-9.47c0.72-1.51,1.27-3.23,1.66-5.1c1.96,6.49,6.33,11.73,11.55,14.48
			c0.21,0.12,0.36,0.18,0.45,0.18c0.15,0,0.24-0.12,0.42-0.45c0.3-0.48,0.69-0.93,1.09-1.27
			C102.92,150.45,98.51,144.66,96.58,138.35"/>
		<path class="st0" d="M141.76,144.81c-0.15,0-1.09,0.06-3.92,0.06h-8.02v-0.36c0-0.48,0-0.81,0.03-1.03
			c1.9-1.09,3.44-2.08,4.65-3.05c0.69-0.57,0.97-0.69,1.27-0.78c0.18-0.06,0.3-0.18,0.3-0.39c0-0.21-0.18-0.51-0.6-0.94
			c-0.48-0.48-0.66-0.63-0.84-0.63c-0.12,0-0.21,0.03-0.3,0.06c-0.09,0.03-0.3,0.06-0.78,0.06h-8.45c-2.84,0-3.77-0.06-3.92-0.06
			c-0.21,0-0.24,0.03-0.24,0.24v1.24c0,0.21,0.03,0.24,0.24,0.24c0.15,0,1.09-0.06,3.92-0.06h8.11c-1.24,1.06-2.47,1.93-3.92,2.78
			c-0.45-0.12-0.97-0.21-1.54-0.3c0.15,0.75,0.21,1.66,0.21,2.99h-8.24c-2.84,0-3.77-0.06-3.92-0.06c-0.21,0-0.24,0.03-0.24,0.24
			v1.33c0,0.21,0.03,0.24,0.24,0.24c0.15,0,1.09-0.06,3.92-0.06h8.24v5.22c0,0.97-0.45,1.18-1.33,1.18c-1.24,0-2.08-0.06-3.14-0.18
			c0.27,0.36,0.48,0.94,0.63,1.39c0.15,0.6,0.15,0.57,0.72,0.57c2.81,0.06,3.56-0.09,4.19-0.48c0.6-0.42,0.81-0.9,0.81-1.96
			c0-0.72-0.03-1.96-0.03-2.59v-3.14h8.02c2.84,0,3.77,0.06,3.92,0.06c0.21,0,0.24-0.03,0.24-0.24v-1.33
			C142,144.84,141.97,144.81,141.76,144.81"/>
		<path class="st0" d="M120.95,133.38c-2.93,0-3.98-0.06-4.16-0.06c-0.21,0-0.24,0.03-0.24,0.21c0,0.18,0.06,0.63,0.06,1.66v1.06
			c0,2.65-0.06,3.05-0.06,3.23c0,0.21,0.03,0.24,0.24,0.24h1.39c0.21,0,0.24-0.03,0.24-0.24v-4.49h20.78v4.49
			c0,0.21,0.03,0.24,0.24,0.24h1.36c0.24,0,0.27-0.03,0.27-0.24c0-0.15-0.06-0.54-0.06-3.23v-1.24c0-0.84,0.06-1.33,0.06-1.48
			c0-0.18-0.03-0.21-0.27-0.21c-0.15,0-1.21,0.06-4.16,0.06h-1.27c0.75-1.12,1.27-2.02,1.81-3.05c0.15-0.27,0.39-0.57,0.57-0.69
			c0.15-0.09,0.21-0.21,0.21-0.33c0-0.15-0.09-0.27-0.33-0.39c-0.48-0.24-1.12-0.48-1.78-0.63c-0.09,0.57-0.24,1.06-0.39,1.39
			c-0.54,1.3-1.12,2.44-1.96,3.71H120.95z"/>
		<path class="st0" d="M122.04,132.89c0.09,0,0.18-0.06,0.39-0.15l0.81-0.39c0.36-0.18,0.39-0.18,0.27-0.39
			c-0.66-1.18-1.39-2.29-2.26-3.38c-0.15-0.18-0.24-0.18-0.57-0.03l-0.75,0.33c-0.36,0.15-0.39,0.24-0.27,0.39
			c0.78,0.97,1.66,2.26,2.2,3.41C121.91,132.83,121.94,132.89,122.04,132.89"/>
		<path class="st0" d="M129.03,132.38l0.81-0.3c0.39-0.18,0.42-0.18,0.33-0.39c-0.48-1.21-1.12-2.44-1.87-3.56
			c-0.12-0.18-0.21-0.18-0.51-0.06l-0.81,0.27c-0.33,0.12-0.42,0.18-0.27,0.39c0.69,1.09,1.27,2.08,1.75,3.56
			C128.55,132.56,128.61,132.56,129.03,132.38"/>
		<path class="st0" d="M155.54,132.02c-1.18-1.24-2.59-2.35-4.01-3.26c-0.18-0.12-0.27-0.09-0.48,0.15l-0.66,0.69
			c-0.27,0.27-0.27,0.33-0.09,0.45c1.24,0.78,2.81,2.14,4.01,3.47c0.18,0.18,0.24,0.15,0.48-0.12l0.66-0.81
			C155.69,132.32,155.69,132.2,155.54,132.02"/>
		<path class="st0" d="M175.06,141.4c-0.18,0-1.24,0.06-4.28,0.06h-5.19v-5.49h3.8c2.96,0,3.95,0.06,4.1,0.06
			c0.21,0,0.24-0.03,0.24-0.24v-1.27c0-0.21-0.03-0.24-0.24-0.24c-0.15,0-1.15,0.06-4.1,0.06h-3.8v-2.23c0-1.81,0.09-2.62,0.18-2.9
			c0.09-0.24,0.15-0.36,0.15-0.54c0-0.12-0.15-0.24-0.36-0.27c-0.66-0.09-1.18-0.12-1.96-0.15c0.15,1.06,0.18,1.9,0.18,3.92v2.17
			h-2.59c-2.96,0-3.92-0.06-4.07-0.06c-0.21,0-0.24,0.03-0.24,0.24v1.27c0,0.21,0.03,0.24,0.24,0.24c0.15,0,1.12-0.06,4.07-0.06
			h2.59v5.49h-4.01c-3.05,0-4.1-0.06-4.28-0.06c-0.21,0-0.24,0.03-0.24,0.24v1.27c0,0.24,0.03,0.27,0.24,0.27
			c0.18,0,1.24-0.06,4.28-0.06h2.62c-0.84,3.17-1.9,5.88-3.05,8.48l-1.09,0.09c-0.87,0.06-1.84,0.09-3.08,0.09
			c0.12,0.63,0.3,1.3,0.48,1.9c0.06,0.21,0.21,0.39,0.39,0.39c0.18,0,0.3-0.12,0.48-0.21c0.15-0.09,0.39-0.18,1.24-0.27
			c5.07-0.57,9.14-1.09,13.9-1.87c0.57,0.87,1.12,1.81,1.63,2.78c0.09,0.21,0.15,0.21,0.54-0.06l0.84-0.54
			c0.3-0.21,0.3-0.27,0.21-0.45c-1.72-2.9-3.44-5.31-5.58-7.63c-0.12-0.12-0.21-0.12-0.42,0.03l-0.75,0.45
			c-0.33,0.21-0.36,0.3-0.18,0.48c0.97,1.12,1.9,2.26,2.74,3.47c-3.11,0.48-6.03,0.87-9.38,1.18c1.06-2.35,2.11-5.13,3.08-8.3h6.37
			c3.05,0,4.1,0.06,4.28,0.06c0.18,0,0.21-0.03,0.21-0.27v-1.27C175.27,141.43,175.24,141.4,175.06,141.4"/>
		<path class="st0" d="M153.22,140.65l0.72-0.84c0.18-0.21,0.18-0.27,0.03-0.42c-1.33-1.27-2.81-2.29-4.25-3.17
			c-0.18-0.09-0.3-0.09-0.48,0.15l-0.63,0.75c-0.21,0.24-0.24,0.3-0.03,0.42c1.36,0.84,2.9,2.02,4.13,3.32
			C152.89,141.04,152.92,141.01,153.22,140.65"/>
		<path class="st0" d="M154.06,145.26c-0.42-0.3-0.72-0.51-1.03-0.9c-0.84,2.99-1.81,5.4-2.75,7.24c-0.45,0.9-0.78,1.51-1.36,2.23
			c0.54,0.42,0.94,0.69,1.45,1c0.21,0.12,0.33,0.15,0.45,0.15c0.12,0,0.21-0.15,0.24-0.36c0.03-0.27,0.24-0.72,0.51-1.36
			c0.91-2.11,1.93-4.61,2.75-7.09C154.52,145.56,154.52,145.53,154.06,145.26"/>
		<path class="st0" d="M195.9,133.26c0.03-0.51,0.03-1.03,0.03-1.57c0-0.75,0.12-1.36,0.27-1.69c0.09-0.21,0.18-0.36,0.18-0.6
			c0-0.18-0.18-0.3-0.42-0.36c-0.66-0.12-1.54-0.21-2.26-0.24c0.15,1.06,0.18,1.93,0.21,3.59c0.12,8.66-4.04,16.56-12.13,20.45
			c0.39,0.27,0.78,0.63,1.12,1.09c0.21,0.3,0.3,0.45,0.42,0.45c0.12,0,0.24-0.09,0.45-0.21c6.12-3.47,10.23-9.02,11.49-16.59
			c1.12,6.06,4.37,12.25,11.22,16.62c0.21,0.15,0.33,0.21,0.45,0.21c0.12,0,0.21-0.12,0.39-0.42c0.27-0.48,0.63-0.9,1.06-1.24
			C200.48,148.28,197.1,141.37,195.9,133.26"/>
		<path class="st0" d="M250.06,146.14c0-0.24-0.03-0.27-0.24-0.27c-0.18,0-1.24,0.06-4.28,0.06h-6.37c0.45-1,0.84-2.05,1.24-3.32
			h2.84c2.84,0,3.83,0.06,3.98,0.06c0.21,0,0.24-0.03,0.24-0.24c0-0.15-0.06-0.66-0.06-2.23v-2.23c0-1.54,0.06-2.05,0.06-2.2
			c0-0.21-0.03-0.24-0.24-0.24c-0.15,0-1.15,0.06-3.98,0.06h-6.73c-2.84,0-3.8-0.06-3.98-0.06c-0.21,0-0.24,0.03-0.24,0.24
			c0,0.15,0.06,0.66,0.06,2.2v2.23c0,1.57-0.06,2.08-0.06,2.23c0,0.21,0.03,0.24,0.24,0.24c0.18,0,1.15-0.06,3.98-0.06h1.99
			c-0.3,1.03-0.75,2.2-1.27,3.32h-2.93c-3.08,0-4.16-0.06-4.31-0.06c-0.21,0-0.24,0.03-0.24,0.27c0,0.15,0.06,0.78,0.06,2.59v1.78
			c0,3.68-0.06,4.25-0.06,4.43s0.03,0.21,0.24,0.21h1.42c0.18,0,0.21-0.03,0.21-0.21v-1.27h16.56v1.15c0,0.18,0.03,0.21,0.24,0.21
			h1.39c0.21,0,0.24-0.03,0.24-0.21c0-0.18-0.06-0.75-0.06-4.4v-2.02C250,146.92,250.06,146.29,250.06,146.14 M234.11,137.06h11.55
			v4.1h-11.55V137.06z M248.19,152.11h-16.56v-4.65h16.56V152.11z"/>
		<path class="st0" d="M252.08,131.51c0-0.21-0.03-0.24-0.24-0.24c-0.18,0-1.21,0.06-4.16,0.06h-7.12v-0.42
			c0-1.36,0.03-1.81,0.15-2.11c0.06-0.21,0.15-0.33,0.15-0.54c0-0.12-0.12-0.24-0.36-0.27c-0.57-0.06-1.24-0.09-1.96-0.12
			c0.18,0.72,0.21,1.51,0.21,3.08v0.39h-6.61c-2.96,0-3.98-0.06-4.16-0.06c-0.21,0-0.24,0.03-0.24,0.24c0,0.15,0.06,0.6,0.06,1.63
			v1.03c0,2.68-0.06,3.05-0.06,3.2c0,0.21,0.03,0.24,0.24,0.24h1.39c0.21,0,0.24-0.03,0.24-0.24v-4.43h20.6v4.43
			c0,0.21,0.03,0.24,0.24,0.24h1.39c0.21,0,0.24-0.03,0.24-0.24c0-0.15-0.06-0.54-0.06-3.2v-1.21
			C252.02,132.11,252.08,131.66,252.08,131.51"/>
		<path class="st0" d="M283.84,132.44c0.09,0,0.18-0.06,0.36-0.18l0.57-0.39c0.36-0.24,0.39-0.3,0.27-0.48
			c-0.69-0.99-1.42-1.87-2.26-2.62c-0.18-0.18-0.18-0.21-0.51,0l-0.6,0.36c-0.36,0.21-0.39,0.27-0.21,0.42
			c0.78,0.75,1.54,1.69,2.17,2.68C283.72,132.35,283.75,132.44,283.84,132.44"/>
		<path class="st0" d="M267.49,146.29c0-0.42,0.03-0.81,0.12-1.15c-0.9,0.51-1.84,0.97-2.78,1.36v-8.75h0.21
			c1.9,0,2.44,0.06,2.62,0.06c0.21,0,0.24-0.03,0.24-0.24v-1.27c0-0.21-0.03-0.24-0.24-0.24c-0.18,0-0.72,0.06-2.62,0.06h-0.21
			v-3.62c0-2.02,0.09-2.78,0.18-3.14c0.09-0.21,0.15-0.36,0.15-0.51c0-0.15-0.15-0.24-0.36-0.27c-0.57-0.09-1.18-0.15-1.96-0.18
			c0.21,1.18,0.24,2.02,0.24,4.16v3.56h-0.48c-1.93,0-2.47-0.06-2.62-0.06c-0.21,0-0.24,0.03-0.24,0.24v1.27
			c0,0.21,0.03,0.24,0.24,0.24c0.15,0,0.69-0.06,2.62-0.06h0.48v9.44l-1.21,0.39c-0.94,0.3-1.57,0.42-2.41,0.54
			c0.15,0.6,0.33,1.18,0.51,1.66c0.09,0.21,0.21,0.33,0.33,0.33c0.15,0,0.27-0.12,0.39-0.21c0.12-0.09,0.39-0.24,1.03-0.48
			c1.78-0.63,3.65-1.42,5.22-2.26C267.49,146.86,267.49,146.92,267.49,146.29"/>
		<path class="st0" d="M286.65,148.85c-0.36-0.18-0.78-0.42-1.06-0.75c-0.18,2.59-0.42,4.19-1,4.19c-0.72,0-2.11-1.51-3.2-4.95
			c1.06-1.78,1.96-3.86,2.75-6.46c0.3-1.03,0.42-1.42,0.63-1.69c0.15-0.21,0.24-0.33,0.24-0.48c0-0.18-0.12-0.33-0.36-0.42
			c-0.48-0.21-0.97-0.36-1.63-0.54c-0.09,1-0.27,1.93-0.54,2.93c-0.48,1.69-1.03,3.2-1.72,4.52c-0.78-3.02-1.21-6.33-1.39-10.29h2.5
			c2.96,0,3.95,0.06,4.13,0.06c0.21,0,0.24-0.03,0.24-0.24v-1.27c0-0.21-0.03-0.21-0.24-0.21c-0.18,0-1.18,0.03-4.13,0.03h-2.56
			v-2.05c0-1.45,0.09-1.96,0.18-2.17c0.09-0.21,0.15-0.39,0.15-0.57c0-0.12-0.09-0.24-0.39-0.3c-0.63-0.12-1.21-0.18-1.87-0.21
			c0.15,1.12,0.18,2.5,0.18,3.71c0,0.54,0,1.09,0.03,1.6h-4.28c-2.96,0-4.01-0.03-4.16-0.03c-0.21,0-0.24,0-0.24,0.21
			c0,0.18,0.06,1.09,0.06,3.41c0,3.17-0.03,5.94-0.45,8.63c-0.54,3.35-2.08,6.18-4.01,8.21c0.39,0.15,0.81,0.39,1.18,0.69
			c0.21,0.18,0.3,0.3,0.42,0.3c0.09,0,0.18-0.12,0.33-0.36c1.69-2.17,3.23-5.19,3.74-8.2c0.3-1.84,0.45-3.59,0.51-5.46h3.77
			c0,2.56-0.27,5.1-0.48,5.97c-0.24,0.78-0.54,0.99-1.18,0.99c-0.6,0-1.21-0.09-2.11-0.24c0.18,0.42,0.27,0.81,0.33,1.27
			c0.06,0.57,0.09,0.57,0.48,0.63c0.54,0.06,1.09,0.06,1.75,0.06c0.97,0,1.9-0.51,2.14-1.51c0.39-1.3,0.66-3.5,0.75-6.73
			c0.03-0.54,0.03-1.12,0.09-1.84c0-0.21-0.06-0.27-0.27-0.27c-0.18,0-0.54,0.06-1.99,0.06h-3.26v-4.16h6.94
			c0.21,4.4,0.78,8.69,1.93,12.28c-1.9,2.78-4.49,4.71-7.81,6.24c0.36,0.18,0.72,0.48,1,0.81c0.21,0.24,0.3,0.36,0.45,0.36
			c0.09,0,0.24-0.09,0.48-0.21c2.71-1.45,4.83-3.11,6.52-5.34c1.42,3.74,3.11,5.34,4.4,5.34c1.33,0,2.08-1.03,2.44-4.71
			C287.13,149.12,287.13,149.09,286.65,148.85"/>
		<path class="st0" d="M307.24,138.35h7.54c2.9,0,3.86,0.06,4.01,0.06c0.21,0,0.24-0.03,0.24-0.27v-1.39c0-0.21-0.03-0.24-0.24-0.24
			c-0.15,0-1.12,0.06-4.01,0.06h-8.11c0.18-1.57,0.27-3.2,0.3-4.89c0.03-1.39,0.09-1.96,0.24-2.26c0.09-0.21,0.18-0.33,0.18-0.57
			c0-0.15-0.12-0.27-0.42-0.33c-0.6-0.09-1.45-0.15-2.14-0.18c0.15,0.9,0.18,1.72,0.15,3.41c-0.03,1.72-0.09,3.32-0.24,4.83h-7.12
			c-2.9,0-3.86-0.06-4.01-0.06c-0.21,0-0.24,0.03-0.24,0.24v1.39c0,0.24,0.03,0.27,0.24,0.27c0.15,0,1.12-0.06,4.01-0.06h6.91
			c-0.33,2.17-0.87,4.1-1.75,5.91c-1.75,3.62-4.95,6.82-10.05,8.93c0.39,0.27,0.78,0.6,1.12,1.03c0.21,0.3,0.3,0.42,0.45,0.42
			c0.12,0,0.24-0.06,0.48-0.15c4.65-2.32,7.66-5.19,9.74-9.47c0.72-1.51,1.27-3.23,1.66-5.1c1.96,6.49,6.33,11.73,11.55,14.48
			c0.21,0.12,0.36,0.18,0.45,0.18c0.15,0,0.24-0.12,0.42-0.45c0.3-0.48,0.69-0.93,1.09-1.27
			C313.58,150.45,309.17,144.66,307.24,138.35"/>
		<path class="st0" d="M332.7,132.89c0.09,0,0.18-0.06,0.39-0.15l0.81-0.39c0.36-0.18,0.39-0.18,0.27-0.39
			c-0.66-1.18-1.39-2.29-2.26-3.38c-0.15-0.18-0.24-0.18-0.57-0.03l-0.75,0.33c-0.36,0.15-0.39,0.24-0.27,0.39
			c0.78,0.97,1.66,2.26,2.2,3.41C332.57,132.83,332.61,132.89,332.7,132.89"/>
		<path class="st0" d="M327.21,139.47c0,0.21,0.03,0.24,0.24,0.24h1.39c0.21,0,0.24-0.03,0.24-0.24v-4.49h20.78v4.49
			c0,0.21,0.03,0.24,0.24,0.24h1.36c0.24,0,0.27-0.03,0.27-0.24c0-0.15-0.06-0.54-0.06-3.23v-1.24c0-0.84,0.06-1.33,0.06-1.48
			c0-0.18-0.03-0.21-0.27-0.21c-0.15,0-1.21,0.06-4.16,0.06h-1.27c0.75-1.12,1.27-2.02,1.81-3.05c0.15-0.27,0.39-0.57,0.57-0.69
			c0.15-0.09,0.21-0.21,0.21-0.33c0-0.15-0.09-0.27-0.33-0.39c-0.48-0.24-1.12-0.48-1.78-0.63c-0.09,0.57-0.24,1.06-0.39,1.39
			c-0.54,1.3-1.12,2.44-1.96,3.71h-12.55c-2.93,0-3.98-0.06-4.16-0.06c-0.21,0-0.24,0.03-0.24,0.21c0,0.18,0.06,0.63,0.06,1.66v1.06
			C327.27,138.9,327.21,139.29,327.21,139.47"/>
		<path class="st0" d="M339.69,132.38l0.81-0.3c0.39-0.18,0.42-0.18,0.33-0.39c-0.48-1.21-1.12-2.44-1.87-3.56
			c-0.12-0.18-0.21-0.18-0.51-0.06l-0.81,0.27c-0.33,0.12-0.42,0.18-0.27,0.39c0.69,1.09,1.27,2.08,1.75,3.56
			C339.21,132.56,339.27,132.56,339.69,132.38"/>
		<path class="st0" d="M352.42,144.81c-0.15,0-1.09,0.06-3.92,0.06h-8.02v-0.36c0-0.48,0-0.81,0.03-1.03
			c1.9-1.09,3.44-2.08,4.65-3.05c0.69-0.57,0.97-0.69,1.27-0.78c0.18-0.06,0.3-0.18,0.3-0.39c0-0.21-0.18-0.51-0.6-0.94
			c-0.48-0.48-0.66-0.63-0.84-0.63c-0.12,0-0.21,0.03-0.3,0.06c-0.09,0.03-0.3,0.06-0.78,0.06h-8.45c-2.84,0-3.77-0.06-3.92-0.06
			c-0.21,0-0.24,0.03-0.24,0.24v1.24c0,0.21,0.03,0.24,0.24,0.24c0.15,0,1.09-0.06,3.92-0.06h8.11c-1.24,1.06-2.47,1.93-3.92,2.78
			c-0.45-0.12-0.97-0.21-1.54-0.3c0.15,0.75,0.21,1.66,0.21,2.99h-8.24c-2.84,0-3.77-0.06-3.92-0.06c-0.21,0-0.24,0.03-0.24,0.24
			v1.33c0,0.21,0.03,0.24,0.24,0.24c0.15,0,1.09-0.06,3.92-0.06h8.24v5.22c0,0.97-0.45,1.18-1.33,1.18c-1.24,0-2.08-0.06-3.14-0.18
			c0.27,0.36,0.48,0.94,0.63,1.39c0.15,0.6,0.15,0.57,0.72,0.57c2.81,0.06,3.56-0.09,4.19-0.48c0.6-0.42,0.81-0.9,0.81-1.96
			c0-0.72-0.03-1.96-0.03-2.59v-3.14h8.02c2.84,0,3.77,0.06,3.92,0.06c0.21,0,0.24-0.03,0.24-0.24v-1.33
			C352.66,144.84,352.63,144.81,352.42,144.81"/>
		<path class="st0" d="M51.67,115.63c-12.32,0-14.85-4.45-14.85-17.22V24.77h0.3l30.44,95.91h5.2l31.62-96.5h0.3v81.66
			c0,7.13-2.52,9.8-13.36,9.8v5.05h43.06v-5.05c-12.02,0-14.55-2.67-14.55-9.8V33.38c0-7.13,2.52-9.8,13.21-9.8v-5.05h-32.81
			L75.43,94.55h-0.3l-24.2-76.02H16.04v5.05c12.03,0,14.55,2.67,14.55,9.8v65.03c0,12.77-2.52,17.22-14.55,17.22v5.05h35.63V115.63z
			"/>
		<path class="st0" d="M222.68,37.69c5.49-10.39,7.42-14.1,18.11-14.1v-5.05h-34v5.05c9.35,0,12.62,1.78,12.62,4.9
			c0,7.57-17.67,35.19-20.49,41.42c-2.52-6.68-19.89-36.23-19.89-41.27c0-3.56,3.56-5.05,12.47-5.05v-5.05h-42.16v5.05
			c7.72,0,10.54,1.19,14.55,9.06l22.72,44.69v28.51c0,7.13-2.52,9.8-15.44,9.8v5.05h46.62v-5.05c-13.51,0-16.03-2.67-16.03-9.8
			V77.33L222.68,37.69z"/>
		<path class="st0" d="M323.32,18.54v5.05c14.4,0,15.89,6.24,15.89,14.25v50.18c0,16.63-8.17,29.4-29.84,29.4
			c-16.33,0-24.2-8.61-24.2-24.5V33.38c0-7.13,2.52-9.8,14.25-9.8v-5.05h-43.65v5.05c11.73,0,14.25,2.67,14.25,9.8v59.09
			c0,20.78,14.7,29.99,37.56,29.99c21.38,0,36.97-11.88,36.97-33.26V37.84c0-8.02,1.48-14.25,14.55-14.25v-5.05H323.32z"/>
	</g>
	<g>
		<path class="st0" d="M46.41,348.22H35.35v-4.52h11.06v-11.77h4.79v11.77h11.06v4.52H51.2v11.77h-4.79V348.22z"/>
		<path class="st0" d="M126.65,340.82c3.7,11.33,10.57,20.54,20.86,24.84c-1.25,1.09-2.94,3.21-3.76,4.74
			c-10.19-4.74-16.78-13.56-21.03-25.11c-2.78,9.86-8.66,19.28-21.03,25.11c-0.82-1.36-2.45-3.16-3.87-4.25
			c12.96-5.67,18.25-15.47,20.43-25.33H98.92v-5.23h20.26c0.65-5.45,0.6-10.68,0.65-15.04h5.5c-0.05,4.41-0.11,9.64-0.76,15.04
			h21.95v5.23H126.65z"/>
		<path class="st0" d="M203.62,355.69h-21.46v9.1c0,2.78-0.71,4.2-2.94,4.96c-2.23,0.71-5.45,0.76-10.19,0.76
			c-0.38-1.42-1.36-3.49-2.12-4.9c3.81,0.16,7.63,0.16,8.72,0.11s1.36-0.27,1.36-1.09v-8.93h-21.24V351h21.24v-3.76h2.56
			c2.12-1.14,4.3-2.62,6.16-4.09H165v-4.41h25.55l1.09-0.27l3.27,2.45c-3.27,3.49-8.06,6.97-12.75,9.37V351h21.46V355.69z
			 M161.4,341.8h-4.74v-12.47h7.84c-0.98-1.96-2.67-4.41-4.25-6.26l4.36-1.96c1.96,2.18,4.14,5.23,5.07,7.3l-1.96,0.93h10.08
			c-0.76-2.18-2.34-5.17-3.81-7.46l4.41-1.63c1.85,2.45,3.7,5.88,4.41,8.06l-2.67,1.04h9.21c1.91-2.51,4.03-5.94,5.28-8.5l5.34,1.69
			c-1.58,2.34-3.38,4.74-5.07,6.81h7.9v12.47h-5.01v-8.01H161.4V341.8z"/>
		<path class="st0" d="M228.68,324.53c-1.52,4.58-3.43,10.24-5.17,14.49c3.7,4.3,4.52,8.06,4.52,11.33c0,3.11-0.65,5.39-2.23,6.48
			c-0.82,0.54-1.85,0.93-2.94,1.09c-1.04,0.11-2.34,0.11-3.6,0.05c-0.05-1.25-0.44-3.16-1.2-4.36c1.14,0.11,2.07,0.11,2.78,0.05
			c0.65,0,1.2-0.16,1.69-0.49c0.76-0.54,0.98-1.85,0.98-3.43c0-2.72-0.87-6.26-4.41-10.19c1.36-3.65,2.78-8.5,3.81-12.2h-5.83v43.14
			h-4.47v-47.72h11.98l0.76-0.16L228.68,324.53z M254.83,365.33c0.98,0,1.2-0.87,1.31-6.54c0.98,0.82,3,1.58,4.3,1.91
			c-0.44,7.25-1.69,9.15-5.07,9.15h-4.25c-4.14,0-5.12-1.47-5.12-6.1v-13.29h-5.23c-0.76,10.08-3,16.51-13.24,20.05
			c-0.44-1.2-1.74-3.1-2.78-3.92c8.77-2.83,10.62-7.9,11.17-16.12h-6.65v-4.63h30.4v4.63h-8.88v13.24c0,1.47,0.16,1.63,1.14,1.63
			H254.83z M241.21,326.6v-5.94h4.9v5.94h13.56v10.19h-4.3v3.87h-22.55v-3.87h-4.14V326.6H241.21z M254.99,330.96H233.2v5.28h21.79
			V330.96z"/>
		<path class="st0" d="M315.95,355.25h-5.67v9.53h-5.12v-2.34h-11.6v2.83c0,2.78-0.71,3.92-2.56,4.63
			c-1.85,0.65-4.68,0.71-9.26,0.71c-0.27-1.14-1.04-3-1.74-4.09c3,0.11,6.26,0.11,7.14,0.05c0.98-0.05,1.31-0.33,1.31-1.25v-2.89
			h-17v-3.81h17v-3.38h-21.79v-3.98h21.79v-3.11h-16.51v-3.59h16.51v-3.21h-15.09v-10.02h15.09v-2.78h-20.65v-4.09h20.65v-3.98h5.12
			v3.98h21.24v4.09h-21.24v2.78h15.85v10.02h-15.85v3.21h16.72v6.7h5.67V355.25z M288.44,337.98v-3.27H278.2v3.27H288.44z
			 M293.56,334.71v3.27h10.73v-3.27H293.56z M293.56,351.27h11.6v-3.11h-11.6V351.27z M305.16,355.25h-11.6v3.38h11.6V355.25z"/>
		<path class="st0" d="M353.86,357.87c4.79,3.38,11.82,6.16,18.47,7.41c-1.14,1.09-2.61,3.16-3.38,4.52
			c-7.08-1.91-14.38-5.56-19.5-10.24v10.95h-4.96v-10.57c-5.18,4.36-12.53,7.9-19.34,9.81c-0.76-1.31-2.18-3.21-3.32-4.3
			c6.48-1.36,13.56-4.19,18.36-7.57h-16.83v-4.25h21.14v-3.32h-16.07v-3.81h16.07v-3.27h-18.74v-4.03h11.17
			c-0.49-1.53-1.42-3.49-2.29-4.96l1.31-0.22h-12.37v-4.25h8.06c-0.82-2.12-2.45-5.12-3.98-7.35l4.41-1.47
			c1.69,2.34,3.6,5.67,4.36,7.79l-2.78,1.04h5.99v-9.31h4.74v9.31h5.39v-9.31h4.79v9.31h5.88l-2.07-0.65c1.31-2.18,3-5.61,3.81-8.06
			l5.23,1.31c-1.47,2.67-3.1,5.39-4.52,7.41h7.84v4.25h-10.51c-1.04,1.85-2.12,3.65-3.05,5.17h11.55v4.03h-19.28v3.27h16.72v3.81
			h-16.72v3.32h21.46v4.25H353.86z M339.86,334.01c0.98,1.58,1.96,3.54,2.34,4.85l-1.58,0.33h11.49c0.82-1.47,1.69-3.43,2.4-5.17
			H339.86z"/>
		<path class="st0" d="M394.07,353.24c-0.71-1.74-2.29-4.74-3.7-7.3v24.51h-4.69v-23.04c-1.63,5.17-3.65,9.97-5.83,13.07
			c-0.49-1.36-1.69-3.27-2.4-4.36c3.21-4.47,6.32-12.53,7.79-19.45h-6.65v-4.68h7.08V320.5h4.69v11.49h5.83v4.68h-5.83v3.21
			c1.52,2.02,5.56,8.17,6.43,9.64L394.07,353.24z M428.39,361.79h-3.21v3.6c0,2.29-0.49,3.43-2.07,4.19
			c-1.58,0.6-4.03,0.65-7.52,0.65c-0.22-1.2-0.82-2.94-1.36-4.09c2.29,0.11,4.63,0.11,5.34,0.05c0.65,0,0.87-0.22,0.87-0.87v-3.54
			h-17.05v8.44h-4.63v-8.44h-3.49v-3.81h3.49v-13.62h10.68v-2.67h-13.24v-3.76h7.14v-3.05h-4.79v-3.54h4.79v-3h-5.94v-3.65h5.94
			v-4.19h4.74v4.19h7.46v-4.19h4.74v4.19h6.48v3.65h-6.48v3h5.67v3.54h-5.67v3.05h7.57v3.76H414v2.67h11.17v13.62h3.21V361.79z
			 M403.38,348.01v3.1h6.05v-3.1H403.38z M403.38,357.98h6.05v-3.38h-6.05V357.98z M408.07,331.34h7.46v-3h-7.46V331.34z
			 M408.07,337.93h7.46v-3.05h-7.46V337.93z M414,348.01v3.1h6.43v-3.1H414z M420.43,357.98v-3.38H414v3.38H420.43z"/>
		<path class="st0" d="M445.16,352.47v-12.75c-2.12,3.92-4.74,7.46-7.41,9.75c-0.76-1.14-2.29-2.72-3.32-3.6
			c3.81-2.72,7.63-7.95,9.91-13.13h-8.61v-4.3h9.42v-7.79h4.79v7.79h8.17v4.3h-8.17v2.62c2.07,1.25,7.46,5.17,8.88,6.21l-2.72,4.14
			c-1.31-1.36-3.92-3.76-6.16-5.67v12.37L445.16,352.47z M435.03,365.33c2.12-2.89,3.92-7.41,4.96-11.17l4.47,1.8
			c-1.09,3.76-2.83,8.61-4.85,11.66L435.03,365.33z M466.08,364.84c2.56,0,2.94-0.76,3.27-6.21c1.09,0.82,3.16,1.53,4.58,1.85
			c-0.71,7.19-2.12,8.88-7.46,8.88h-10.62c-6.54,0-8.23-1.36-8.23-6.16v-8.12h5.01v8.06c0,1.47,0.54,1.69,3.65,1.69H466.08z
			 M458.51,350.95c2.45,2.29,5.77,5.5,7.46,7.46l-3.7,3.11c-1.53-2.02-4.79-5.39-7.25-7.84L458.51,350.95z M481.88,351.82h-21.52
			v-28.49h21.52V351.82z M477.03,327.42h-12.04v4.14h12.04V327.42z M477.03,335.42h-12.04v4.25h12.04V335.42z M477.03,343.48h-12.04
			v4.3h12.04V343.48z M478.07,353.34c2.23,3.38,5.23,8.01,6.65,10.79l-4.69,2.4c-1.31-2.83-4.19-7.63-6.37-11.11L478.07,353.34z"/>
		<path class="st0" d="M538.64,355.69h-21.46v9.1c0,2.78-0.71,4.2-2.94,4.96c-2.23,0.71-5.45,0.76-10.19,0.76
			c-0.38-1.42-1.36-3.49-2.12-4.9c3.81,0.16,7.63,0.16,8.72,0.11c1.09-0.05,1.36-0.27,1.36-1.09v-8.93h-21.25V351h21.25v-3.76h2.56
			c2.12-1.14,4.3-2.62,6.16-4.09h-20.7v-4.41h25.55l1.09-0.27l3.27,2.45c-3.27,3.49-8.06,6.97-12.75,9.37V351h21.46V355.69z
			 M496.43,341.8h-4.74v-12.47h7.84c-0.98-1.96-2.67-4.41-4.25-6.26l4.36-1.96c1.96,2.18,4.14,5.23,5.07,7.3l-1.96,0.93h10.08
			c-0.76-2.18-2.34-5.17-3.81-7.46l4.41-1.63c1.85,2.45,3.7,5.88,4.41,8.06l-2.67,1.04h9.21c1.91-2.51,4.03-5.94,5.28-8.5l5.34,1.69
			c-1.58,2.34-3.38,4.74-5.07,6.81h7.9v12.47h-5.01v-8.01h-36.39V341.8z"/>
		<path class="st0" d="M546,323.27h19.28v4.58h-8.17c-0.82,4.14-1.85,8.17-3.16,11.98h10.51v23.97h-10.68v4.2h-4.25v-18.41
			c-0.82,1.36-1.63,2.62-2.56,3.76c-0.22-1.31-1.25-4.36-2.02-5.72c3.6-4.85,5.94-12.04,7.35-19.77H546V323.27z M560.11,344.36
			h-6.32v14.98h6.32V344.36z M595.41,347.46h-5.88v23.04h-4.85v-23.04h-7.74c-0.27,8.17-1.69,17.21-7.57,23.31
			c-0.87-0.82-2.72-2.29-3.87-2.94c5.17-5.39,6.43-13.4,6.7-20.37h-5.61v-4.79h5.67v-14.6h-4.19v-4.74h26.26v4.74h-4.79v14.6h5.88
			V347.46z M584.67,342.67v-14.6h-7.68v14.6H584.67z"/>
		<path class="st0" d="M646.01,365.17c1.36,0,1.58-0.93,1.8-7.9c1.09,0.93,3.38,1.8,4.79,2.18c-0.49,8.5-1.85,10.68-5.99,10.68
			h-5.28c-4.69,0-6.05-1.47-6.05-6.7v-9.81h-9.15c-1.14,6.37-5.56,13.07-20.16,17.05c-0.76-1.2-2.23-3.05-3.43-4.14
			c12.58-3.32,16.89-8.28,18.25-12.91h-14.38v-4.74h14.98v-6.26h5.07v6.26h14.11v14.49c0,1.58,0.27,1.8,1.58,1.8H646.01z
			 M623.46,329.87c-1.14,8.66-4.41,13.73-17.32,16.4c-0.44-1.2-1.63-3.16-2.67-4.09c11.22-1.96,13.78-5.72,14.71-12.31h-8.66v5.72
			h-5.07v-10.24h20.37v-4.9H630v4.9h20.75v9.75h-5.34v-5.23h-9.59v8.55c0,1.42,0.27,1.58,2.07,1.58h5.72c1.42,0,1.69-0.49,1.85-3.92
			c1.04,0.76,3.1,1.53,4.47,1.74c-0.54,5.28-1.91,6.65-5.72,6.65h-6.97c-5.23,0-6.43-1.36-6.43-5.99v-8.61H623.46z"/>
		<path class="st0" d="M678.37,353.83c-0.76-1.63-2.61-4.68-4.25-7.19v23.81h-4.9v-22.06c-2.02,4.96-4.47,9.59-6.97,12.69
			c-0.49-1.36-1.69-3.43-2.45-4.68c3.21-3.7,6.7-10.19,8.72-15.96h-8.01v-4.74h8.72v-7.3c-2.34,0.44-4.68,0.76-6.86,1.09
			c-0.16-1.09-0.87-2.89-1.42-3.92c6.1-0.98,13.07-2.56,17.32-4.41l2.89,4.14c-2.07,0.82-4.47,1.47-7.03,2.07v8.33h7.63v4.74h-7.63
			v0.76c1.63,1.69,6.26,7.25,7.3,8.66L678.37,353.83z M703.92,356.5v13.95h-5.01v-13.07l-17.16,2.89l-0.76-4.85l17.92-3V320.5h5.01
			v31.1l5.94-0.98l0.76,4.74L703.92,356.5z M692.05,349.15c-1.8-2.34-5.77-5.83-9.1-8.12l3.21-2.94c3.27,2.18,7.41,5.45,9.31,7.74
			L692.05,349.15z M693.41,334.82c-1.63-2.29-5.34-5.61-8.44-7.9l3.32-2.89c3.1,2.12,6.86,5.28,8.66,7.57L693.41,334.82z"/>
		<path class="st0" d="M746.74,322.08c-1.2,3.54-2.61,7.14-4.19,10.62v37.75h-4.79v-28.87c-1.42,2.23-2.83,4.25-4.36,6.05
			c-0.44-1.25-1.8-4.08-2.56-5.34c4.52-5.28,8.72-13.35,11.22-21.52L746.74,322.08z M777.13,330.3c-1.74,3.38-4.03,6.26-6.75,8.72
			c3.54,1.91,7.79,3.38,12.75,4.25c-0.87,1.04-2.18,2.89-2.78,4.14c-5.34-1.2-9.86-3.21-13.62-5.61c-3.81,2.61-8.28,4.58-13.13,6.05
			c-0.49-0.93-1.74-2.56-2.67-3.59v17.27h-4.41v-34.43h4.41v7.25c3.92-3.49,7.35-8.55,9.31-13.89l4.63,1.14
			c-0.6,1.58-1.31,3.1-2.12,4.63h18.63v4.09H777.13z M750.93,343.81c4.47-1.09,8.55-2.67,12.04-4.79c-2.02-1.69-3.65-3.49-5.01-5.34
			c-1.31,1.63-2.67,3.05-4.03,4.3c-0.65-0.6-1.96-1.63-3-2.4V343.81z M781.6,358.03c-5.45,6.43-15.36,10.19-26.64,12.2
			c-0.54-1.2-1.63-2.94-2.61-3.98c10.51-1.53,20.16-4.69,24.89-10.02L781.6,358.03z M771.31,346.7c-3.38,3.38-8.82,6.1-13.89,7.74
			c-0.65-0.87-1.8-2.18-2.78-2.94c4.69-1.31,10.02-3.65,12.86-6.37L771.31,346.7z M776.43,351.71c-4.19,4.63-11.38,7.9-18.68,9.86
			c-0.6-0.98-1.63-2.4-2.51-3.27c6.75-1.52,13.84-4.36,17.43-8.12L776.43,351.71z M760.41,330.3l-0.05,0.05
			c1.47,2.18,3.49,4.3,6.1,6.21c2.18-1.8,3.98-3.87,5.39-6.26H760.41z"/>
		<path class="st0" d="M815.43,342.23v20.48h18.9v5.07h-42.76v-5.07h18.47v-20.48h-21.46v-5.01h21.46v-16.61h5.39v16.61h21.79v5.01
			H815.43z"/>
		<path class="st0" d="M863.75,337.6h12.53v4.63h-12.53v4.85h10.89v14.33c0,2.07-0.33,3.38-1.74,4.14
			c-1.42,0.76-3.49,0.82-6.32,0.76c-0.11-1.25-0.71-3.1-1.36-4.3c1.96,0.05,3.6,0.05,4.14,0c0.54,0,0.71-0.16,0.71-0.71v-9.7h-6.32
			v18.9h-4.79v-18.9h-5.94v14.54h-4.52v-19.07h10.46v-4.85h-12.8v-4.63h3.76c-1.04-0.6-3.05-1.31-4.25-1.74
			c2.4-3.6,4.19-8.99,5.23-14.16l4.74,0.98c-0.44,1.8-0.93,3.65-1.42,5.39h4.74v-7.25h4.79v7.25h10.4v4.58h-10.4V337.6z
			 M858.96,337.6v-4.96h-6.37c-0.71,1.85-1.53,3.59-2.4,4.96H858.96z M884.29,355.41h-4.68v-30.12h4.68V355.41z M894.09,321.26
			v42.76c0,3.05-0.65,4.47-2.45,5.34c-1.74,0.87-4.79,0.98-8.88,0.98c-0.22-1.36-0.93-3.7-1.63-5.17c3.05,0.11,5.99,0.11,6.92,0.05
			c0.87,0,1.14-0.27,1.14-1.14v-42.82H894.09z"/>
		<path class="st0" d="M914.85,322.24c-1.47,3.81-3.32,7.74-5.39,11.39v36.77h-5.12v-28.76c-1.42,1.96-2.94,3.76-4.47,5.34
			c-0.49-1.25-1.96-4.09-2.83-5.23c5.18-5.12,10.02-13.07,12.96-21.03L914.85,322.24z M931.3,334.28v6.92h14.82v4.63H931.3v7.24
			h15.58v4.74H931.3v12.64h-5.17v-36.17h-3.05c-2.29,4.25-4.79,8.06-7.41,10.95c-0.82-0.87-2.78-2.67-3.92-3.43
			c4.79-5.01,9.15-12.86,11.77-20.7l4.85,1.31c-0.87,2.34-1.8,4.74-2.83,7.03h21.9v4.85H931.3z"/>
		<path class="st0" d="M995.74,356.99c-2.4,1.85-5.39,3.59-8.01,5.01c3.05,2.02,6.75,3.54,11.06,4.41c-1.09,0.93-2.34,2.89-3,4.14
			c-9.64-2.4-16.07-7.84-19.83-16.07h-5.77v9.15c3.38-0.49,6.97-1.09,10.57-1.63l0.16,4.41c-7.25,1.2-14.93,2.45-20.59,3.32
			l-0.76-4.63c1.74-0.22,3.76-0.49,5.94-0.82v-9.8h-6.32v-4.25h9.15v-4.74h-7.57v-4.3h7.57v-4.36h-9.1v2.02
			c0,9.31-0.76,22.88-6.43,31.7c-0.98-0.82-3.21-2.12-4.47-2.61c5.39-8.39,5.83-20.43,5.83-29.09v-15.91h40.96v13.89h-7.74v4.36
			h8.55v4.3h-8.55v4.74h10.79v4.25h-6.1L995.74,356.99z M959.25,332.48h30.83v-5.17h-30.83V332.48z M972.97,341.2h9.7v-4.36h-9.7
			V341.2z M972.97,350.24h9.7v-4.74h-9.7V350.24z M980.76,354.49c1.04,1.85,2.29,3.49,3.81,4.96c2.51-1.47,5.34-3.38,7.24-4.96
			H980.76z"/>
	</g>
	<g>
		<path class="st0" d="M653.37,279.5h-21.84v12.53h-5.23V279.5H605v-4.85h21.3v-3.6h3.49c-0.98-0.98-2.45-2.18-3.38-2.78
			c5.61-3.1,9.86-8.17,11.82-14.44l5.12,0.98c-0.65,2.02-1.47,3.92-2.45,5.67c3.92,2.61,8.72,6.1,11.17,8.44l-3.54,3.76
			c-2.18-2.18-6.43-5.5-10.24-8.23c-1.96,2.61-4.3,4.79-6.81,6.59h0.05v3.6h21.84V279.5z M624.33,268.82
			c-1.36-1.36-3.81-3.38-6.1-5.07c-2.45,3.76-5.45,6.97-8.72,9.31c-0.82-0.87-2.94-2.61-4.09-3.38c5.56-3.43,9.81-9.21,11.88-15.96
			l5.12,1.14c-0.6,1.74-1.25,3.43-2.07,5.07c2.51,1.69,5.45,3.81,7.03,5.28L624.33,268.82z M651.79,253.57h-45.38v-4.85h19.88v-6.65
			h5.23v6.65h20.26V253.57z"/>
		<path class="st0" d="M692.86,279.44c4.79,3.38,11.82,6.16,18.47,7.41c-1.14,1.09-2.61,3.16-3.38,4.52
			c-7.08-1.91-14.38-5.56-19.5-10.24v10.95h-4.96v-10.57c-5.18,4.36-12.53,7.9-19.34,9.81c-0.76-1.31-2.18-3.21-3.32-4.3
			c6.48-1.36,13.56-4.19,18.36-7.57h-16.83v-4.25h21.14v-3.32h-16.07v-3.81h16.07v-3.27h-18.74v-4.03h11.17
			c-0.49-1.53-1.42-3.49-2.29-4.96l1.31-0.22h-12.37v-4.25h8.06c-0.82-2.12-2.45-5.12-3.98-7.35l4.41-1.47
			c1.69,2.34,3.6,5.67,4.36,7.79l-2.78,1.04h5.99v-9.31h4.74v9.31h5.39v-9.31h4.79v9.31h5.88l-2.07-0.65c1.31-2.18,3-5.61,3.81-8.06
			l5.23,1.31c-1.47,2.67-3.1,5.39-4.52,7.41h7.84v4.25h-10.51c-1.04,1.85-2.12,3.65-3.05,5.17h11.55v4.03h-19.28v3.27h16.72v3.81
			h-16.72v3.32h21.46v4.25H692.86z M678.86,255.58c0.98,1.58,1.96,3.54,2.34,4.85l-1.58,0.33h11.49c0.82-1.47,1.69-3.43,2.4-5.17
			H678.86z"/>
		<path class="st0" d="M718.58,244.85h19.28v4.58h-8.17c-0.82,4.14-1.85,8.17-3.16,11.98h10.51v23.97h-10.68v4.19h-4.25v-18.41
			c-0.82,1.36-1.63,2.61-2.56,3.76c-0.22-1.31-1.25-4.36-2.02-5.72c3.6-4.85,5.94-12.04,7.35-19.77h-6.32V244.85z M732.69,265.93
			h-6.32v14.98h6.32V265.93z M767.98,269.04h-5.88v23.04h-4.85v-23.04h-7.74c-0.27,8.17-1.69,17.21-7.57,23.32
			c-0.87-0.82-2.72-2.29-3.87-2.94c5.18-5.39,6.43-13.4,6.7-20.37h-5.61v-4.79h5.67v-14.6h-4.19v-4.74h26.26v4.74h-4.79v14.6h5.88
			V269.04z M757.25,264.24v-14.6h-7.68v14.6H757.25z"/>
		<path class="st0" d="M818.59,286.74c1.36,0,1.58-0.93,1.8-7.9c1.09,0.93,3.38,1.8,4.79,2.18c-0.49,8.5-1.85,10.68-5.99,10.68
			h-5.28c-4.68,0-6.05-1.47-6.05-6.7v-9.8h-9.15c-1.14,6.37-5.56,13.07-20.16,17.05c-0.76-1.2-2.23-3.05-3.43-4.14
			c12.58-3.32,16.89-8.28,18.25-12.91h-14.38v-4.74h14.98v-6.27h5.07v6.27h14.11v14.49c0,1.58,0.27,1.8,1.58,1.8H818.59z
			 M796.04,251.44c-1.14,8.66-4.41,13.73-17.32,16.4c-0.44-1.2-1.63-3.16-2.67-4.09c11.22-1.96,13.78-5.72,14.71-12.31h-8.66v5.72
			h-5.07v-10.24h20.37v-4.9h5.18v4.9h20.75v9.75h-5.34v-5.23h-9.59v8.55c0,1.42,0.27,1.58,2.07,1.58h5.72
			c1.42,0,1.69-0.49,1.85-3.92c1.03,0.76,3.1,1.53,4.47,1.74c-0.54,5.28-1.91,6.65-5.72,6.65h-6.97c-5.23,0-6.43-1.36-6.43-5.99
			v-8.61H796.04z"/>
		<path class="st0" d="M836.83,267.08c0,2.79-2.27,5.06-5.06,5.06s-5.06-2.27-5.06-5.06s2.27-5.06,5.06-5.06
			S836.83,264.29,836.83,267.08z"/>
		<path class="st0" d="M863.48,259.18h12.53v4.63h-12.53v4.85h10.89v14.33c0,2.07-0.33,3.38-1.74,4.14
			c-1.42,0.76-3.49,0.82-6.32,0.76c-0.11-1.25-0.71-3.11-1.36-4.3c1.96,0.05,3.6,0.05,4.14,0c0.54,0,0.71-0.16,0.71-0.71v-9.7h-6.32
			v18.9h-4.79v-18.9h-5.94v14.54h-4.52v-19.07h10.46v-4.85h-12.8v-4.63h3.76c-1.04-0.6-3.05-1.31-4.25-1.74
			c2.4-3.6,4.19-8.99,5.23-14.16l4.74,0.98c-0.44,1.8-0.93,3.65-1.42,5.39h4.74v-7.25h4.79v7.25h10.4v4.58h-10.4V259.18z
			 M858.69,259.18v-4.96h-6.37c-0.71,1.85-1.53,3.6-2.4,4.96H858.69z M884.02,276.99h-4.68v-30.12h4.68V276.99z M893.82,242.83
			v42.76c0,3.05-0.65,4.47-2.45,5.34c-1.74,0.87-4.79,0.98-8.88,0.98c-0.22-1.36-0.93-3.71-1.63-5.18c3.05,0.11,5.99,0.11,6.92,0.05
			c0.87,0,1.14-0.27,1.14-1.14v-42.82H893.82z"/>
		<path class="st0" d="M915.67,243.82c-1.47,3.81-3.32,7.74-5.39,11.39v36.77h-5.12v-28.76c-1.42,1.96-2.94,3.76-4.47,5.34
			c-0.49-1.25-1.96-4.09-2.83-5.23c5.17-5.12,10.02-13.07,12.96-21.03L915.67,243.82z M932.12,255.85v6.92h14.82v4.63h-14.82v7.25
			h15.58v4.74h-15.58v12.64h-5.18v-36.17h-3.05c-2.29,4.25-4.79,8.06-7.41,10.95c-0.82-0.87-2.78-2.67-3.92-3.43
			c4.79-5.01,9.15-12.86,11.77-20.7l4.85,1.31c-0.87,2.34-1.8,4.74-2.83,7.03h21.9v4.85H932.12z"/>
		<path class="st0" d="M995.47,278.57c-2.4,1.85-5.39,3.6-8.01,5.01c3.05,2.02,6.75,3.54,11.06,4.41c-1.09,0.93-2.34,2.89-3,4.14
			c-9.64-2.4-16.07-7.84-19.83-16.07h-5.77v9.15c3.38-0.49,6.97-1.09,10.57-1.63l0.16,4.41c-7.25,1.2-14.93,2.45-20.59,3.32
			l-0.76-4.63c1.74-0.22,3.76-0.49,5.94-0.82v-9.81h-6.32v-4.25h9.15v-4.74h-7.57v-4.3h7.57v-4.36h-9.1v2.02
			c0,9.32-0.76,22.88-6.43,31.7c-0.98-0.82-3.21-2.12-4.47-2.62c5.39-8.39,5.83-20.43,5.83-29.09v-15.91h40.96v13.89h-7.73v4.36
			h8.55v4.3h-8.55v4.74h10.79v4.25h-6.1L995.47,278.57z M958.97,254.06h30.83v-5.18h-30.83V254.06z M972.7,262.77h9.7v-4.36h-9.7
			V262.77z M972.7,271.81h9.7v-4.74h-9.7V271.81z M980.49,276.06c1.04,1.85,2.29,3.49,3.81,4.96c2.51-1.47,5.34-3.38,7.25-4.96
			H980.49z"/>
	</g>
	<g>
		<path class="st0" d="M36.89,261.65v3.16H12.62v-3.16h10.42v-5.43h-7.31v-3.1h7.31v-4.75h-5.59c-0.78,1.48-1.62,2.86-2.51,3.91
			c-0.65-0.51-2.08-1.48-2.89-1.92c2.11-2.27,3.86-5.99,4.78-9.66l3.32,0.73c-0.38,1.3-0.81,2.56-1.27,3.81h4.16v-4.86h3.37v4.86
			h9.1v3.13h-9.1v4.75h8.07v3.1h-8.07v5.43H36.89z"/>
		<path class="st0" d="M44.51,253.36c-1.11-0.78-3.43-2.05-5.02-2.92l1.73-2.38c1.48,0.73,3.89,1.89,5.07,2.62L44.51,253.36z
			 M39.87,263.08c1.43-2.02,3.51-5.37,5.13-8.5l2.35,2.16c-1.43,2.83-3.13,5.91-4.78,8.53L39.87,263.08z M45.67,245.99
			c-1.05-0.81-3.35-2.08-4.91-2.97l1.81-2.32c1.51,0.76,3.86,1.94,5.02,2.7L45.67,245.99z M57.63,251.26v3.4h5.51v10.77h-3.05v-0.97
			h-8.1v1.11h-2.92v-10.9h5.51v-3.4H47.4v-3.08h7.18v-3.16c-1.75,0.27-3.56,0.46-5.24,0.62c-0.14-0.78-0.57-2.02-0.94-2.75
			c4.59-0.46,9.66-1.35,12.63-2.54l2.46,2.54c-1.73,0.65-3.75,1.19-5.86,1.59v3.7h6.86v3.08H57.63z M60.08,257.57h-8.1v3.97h8.1
			V257.57z"/>
		<path class="st0" d="M76.56,259.46c-3.08,0.89-6.34,1.78-8.93,2.43l-0.67-2.97c0.97-0.22,2.13-0.49,3.4-0.81v-5.29H67.6v-2.83
			h2.75v-4.91h-3v-2.81h8.64v2.81h-2.81v4.91h2.46v2.83h-2.46v4.59l2.97-0.78L76.56,259.46z M91.94,259.52
			c-0.94,0.73-2,1.43-2.86,1.94c1,0.67,2.11,1.24,3.29,1.62c-0.65,0.57-1.54,1.7-2,2.48c-2.78-1.11-4.99-3.21-6.56-5.8v5.8H80.8
			v-3.94c-1.65,1.08-3.4,2-5.05,2.65c-0.4-0.67-1.27-1.73-1.89-2.29c2.7-0.81,5.67-2.32,7.83-4h-4.37v-6.32h13.52v6.32h-1
			L91.94,259.52z M75.69,248.15h16.6v2.54h-16.6V248.15z M91.3,247.26H76.88v-6.07H91.3V247.26z M81.09,243.35h-1.65v1.75h1.65
			V243.35z M80.12,255.71h7.75v-1.75h-7.75V255.71z M84.84,243.35h-1.7v1.75h1.7V243.35z M85.65,257.98
			c0.43,0.7,0.97,1.35,1.59,1.97c0.81-0.57,1.78-1.38,2.4-1.97H85.65z M88.62,243.35h-1.75v1.75h1.75V243.35z"/>
		<path class="st0" d="M104.23,257.6c-2.83,1.38-5.94,2.78-8.39,3.91l-1.08-3.21c0.92-0.32,2.05-0.76,3.29-1.24v-7.29h-2.67v-3.02
			h2.67v-6.02h2.97v6.02h2.46v3.02h-2.46v6.07c0.84-0.35,1.67-0.73,2.51-1.08L104.23,257.6z M117.3,262.7
			c0.43,0,0.57-0.27,0.62-2.32c0.59,0.46,1.84,0.97,2.67,1.13c-0.3,3.1-1.05,3.91-2.94,3.91h-2.11c-2.54,0-3.08-0.89-3.08-3.46
			v-3.16h-1.92c-0.59,3.24-2.16,5.51-7.31,6.83c-0.3-0.78-1.13-2.08-1.75-2.7c4.24-0.81,5.43-2.16,5.91-4.13h-2.29v-8.56h13.74v8.56
			h-3.32v3.13c0,0.67,0.08,0.76,0.57,0.76H117.3z M120.08,249.2h-16.49v-2.62h3.56c-0.14-0.59-0.4-1.3-0.67-1.84l1-0.22h-3.29v-2.48
			h5.86v-1.65h3.16v1.65h6.4v2.48h-3.05l0.67,0.14c-0.35,0.73-0.7,1.38-1,1.92h3.86V249.2z M108.09,253.58h7.58v-1.35h-7.58V253.58z
			 M108.09,256.82h7.58v-1.38h-7.58V256.82z M109.47,244.53c0.35,0.65,0.62,1.4,0.76,1.97l-0.35,0.08h3.43l-0.13-0.03
			c0.27-0.59,0.59-1.38,0.81-2.02H109.47z"/>
		<path class="st0" d="M125.62,250.02h16.62c0.53,0,1.65-0.05,2.31-0.16v3.37c-0.63-0.05-1.6-0.08-2.31-0.08h-6.12
			c-0.15,2.67-0.71,4.85-1.62,6.66c-0.89,1.81-2.84,3.81-5.1,4.98l-2.97-2.2c1.8-0.7,3.58-2.18,4.59-3.71
			c1.04-1.61,1.47-3.55,1.57-5.73h-6.98c-0.74,0-1.73,0.05-2.44,0.1v-3.4C123.94,249.97,124.83,250.02,125.62,250.02z
			 M128.84,243.44h8.3c0.86,0,1.88-0.08,2.74-0.21v3.34c-0.86-0.05-1.85-0.08-2.74-0.08h-8.3c-0.86,0-1.95,0.03-2.72,0.08v-3.34
			C126.94,243.36,127.98,243.44,128.84,243.44z M143.4,244.99l-2.03,0.91c-0.53-1.06-1.32-2.62-2-3.6l2.03-0.86
			C142.03,242.4,142.92,244.03,143.4,244.99z M146.45,243.8l-2.03,0.91c-0.53-1.09-1.34-2.59-2.03-3.58l2-0.86
			C145.05,241.26,145.99,242.89,146.45,243.8z"/>
		<path class="st0" d="M157.9,264.85l-2.72-2.62c4.9-1.76,7.05-3.99,7.05-10.37v-0.98h-6.01v3.53c0,1.17,0.08,2.2,0.1,2.72h-3.55
			c0.08-0.52,0.15-1.56,0.15-2.72v-3.53h-2.16c-1.27,0-2.18,0.08-2.74,0.1v-3.53c0.46,0.08,1.47,0.23,2.74,0.23h2.16v-2.57
			c0-0.75-0.08-1.53-0.15-2.33h3.6c-0.05,0.49-0.15,1.32-0.15,2.36v2.54h6.01v-2.72c0-1.04-0.08-1.89-0.15-2.41h3.63
			c-0.08,0.54-0.18,1.37-0.18,2.41v2.72h1.88c1.34,0,2.11-0.05,2.79-0.18v3.45c-0.56-0.05-1.45-0.08-2.77-0.08h-1.9v0.86
			C165.54,258.16,164.04,262.08,157.9,264.85z M169.06,246.19l-1.75,0.57c-0.36-1.09-0.81-2.51-1.29-3.55l1.7-0.57
			C168.2,243.67,168.78,245.17,169.06,246.19z M171.73,245.33l-1.75,0.57c-0.36-1.11-0.84-2.51-1.37-3.53l1.73-0.57
			C170.81,242.84,171.4,244.34,171.73,245.33z"/>
		<path class="st0" d="M185.28,248.08c2.61-1.66,5.51-4.25,7.16-6.3l2.74,2.67c-1.93,1.94-4.36,3.97-6.83,5.63v10.47
			c0,1.14,0.05,2.75,0.23,3.4h-4.01c0.1-0.62,0.18-2.26,0.18-3.4v-8.3c-2.61,1.4-5.84,2.8-8.96,3.73l-1.6-3.27
			C178.74,251.53,182.47,249.84,185.28,248.08z"/>
		<path class="st0" d="M210.92,256.97c4.34-2.62,7.64-6.58,9.24-10.08l1.98,3.66c-1.93,3.5-5.3,7.08-9.39,9.59
			c-2.56,1.58-5.84,3.03-9.41,3.66l-2.13-3.42C205.16,259.8,208.46,258.47,210.92,256.97z M210.92,248.6l-2.59,2.7
			c-1.32-1.45-4.49-4.28-6.34-5.6l2.39-2.59C206.15,244.32,209.45,247.02,210.92,248.6z"/>
		<path class="st0" d="M230.49,244.55h12.79c0.74,0,1.8-0.03,2.23-0.05c-0.03,0.6-0.08,1.63-0.08,2.38v13.43
			c0,0.91,0.05,2.28,0.1,3.06h-3.68c0.03-0.41,0.03-0.86,0.03-1.35h-11.57c-0.99,0-2.44,0.08-3.27,0.16v-3.71
			c0.89,0.08,2.03,0.16,3.17,0.16h11.7V247.9h-11.39c-1.07,0-2.44,0.05-3.15,0.1v-3.6C228.3,244.5,229.62,244.55,230.49,244.55z"/>
		<path class="st0" d="M254.48,250.96h11.6c1.02,0,1.97-0.1,2.53-0.16v4.07c-0.52-0.03-1.62-0.13-2.53-0.13h-11.6
			c-1.23,0-2.68,0.05-3.48,0.13v-4.07C251.78,250.88,253.36,250.96,254.48,250.96z"/>
		<path class="st0" d="M291.11,246.83c-0.86,2.02-2.28,4.8-3.98,7.13c2.51,2.23,5.58,5.55,7.08,7.41l-2.89,2.57
			c-1.65-2.33-4.01-4.98-6.39-7.34c-2.69,2.9-6.06,5.6-9.54,7.28l-2.61-2.8c4.09-1.56,8.02-4.72,10.4-7.44
			c1.67-1.94,3.22-4.51,3.78-6.35h-8.6c-1.07,0-2.46,0.16-2.99,0.18v-3.68c0.69,0.1,2.23,0.18,2.99,0.18h8.96
			c1.09,0,2.11-0.16,2.61-0.34l2.08,1.58C291.79,245.51,291.33,246.31,291.11,246.83z"/>
		<path class="st0" d="M302.93,252.95c0,1.51-1.25,2.77-2.77,2.77s-2.77-1.25-2.77-2.77s1.25-2.77,2.77-2.77
			S302.93,251.44,302.93,252.95z"/>
		<path class="st0" d="M313.76,246.96c0,3.32-0.51,8.02-3.08,11.07c-0.46-0.57-1.7-1.62-2.32-1.94c2.21-2.67,2.46-6.45,2.46-9.18
			v-4.05h11.47c-0.08-0.84-0.14-1.67-0.16-2.51h3c0.03,0.84,0.08,1.7,0.16,2.51h2.89c-0.7-0.38-1.48-0.73-2.19-1l1.59-1.75
			c1.27,0.38,2.92,1.11,3.75,1.78l-0.81,0.97h2.48v2.54h-7.34c0.27,1.54,0.67,2.97,1.11,4.24c0.67-1.11,1.24-2.29,1.65-3.56
			l2.97,0.7c-0.76,2.19-1.84,4.16-3.13,5.91c0.73,1.08,1.48,1.7,2.24,1.7c0.59-0.03,0.81-0.92,0.94-3.24
			c0.68,0.59,1.67,1.16,2.43,1.4c-0.46,3.83-1.4,4.72-3.54,4.72c-1.54,0-2.92-0.86-4.08-2.32c-0.81,0.78-1.65,1.48-2.54,2.08
			c-0.32-0.46-1-1.16-1.59-1.7v0.49h-1.73c1.43,0.78,3.02,2,3.83,2.94l-2.21,1.89c-0.78-1.03-2.54-2.4-4.02-3.29l1.84-1.54h-5.34
			v-5.83h7.64v4.43c0.92-0.59,1.75-1.3,2.54-2.08c-0.89-1.94-1.59-4.32-2.02-6.94h-8.88V246.96z M308.61,263.21
			c1.59-1.24,2.75-3.16,3.29-5.16l2.86,1.03c-0.62,2.24-1.67,4.48-3.51,5.91L308.61,263.21z M322.32,248.69h-7.94v-2.05h7.94V248.69
			z M323.83,262.35c1.03,0,1.21-0.27,1.35-2.4c0.59,0.49,1.97,0.94,2.81,1.13c-0.35,3.32-1.24,4.13-3.86,4.13h-4.32
			c-3.48,0-4.29-0.86-4.29-3.64v-3.48h3.19v3.46c0,0.73,0.22,0.81,1.46,0.81H323.83z M319.51,252.04h-2.46v1.7h2.46V252.04z
			 M329.53,257.65c1.75,1.59,3.62,3.86,4.32,5.61l-2.92,1.46c-0.59-1.65-2.35-4.02-4.1-5.72L329.53,257.65z"/>
		<path class="st0" d="M360.96,261.65v3.05h-16.79v-3.05h7.21v-5.4h-5.21v-3h5.21v-4.43h-2.97c-0.41,1.4-0.94,2.7-1.51,3.73
			c-0.65-0.4-2.11-1.13-2.86-1.46c0.27-0.49,0.54-1,0.81-1.57l-1.54,0.7c-0.16-0.81-0.57-2-1.03-3.1v18.44h-3.21v-19.3
			c-0.16,2.27-0.59,5.24-1.21,7.15l-2.38-0.86c0.65-1.78,1.13-4.8,1.32-7.02l2.27,0.32v-5.51h3.21v5.1l1.57-0.65
			c0.54,1.05,1.11,2.35,1.48,3.4c0.67-1.97,1.16-4.29,1.43-6.59l3.13,0.43c-0.19,1.27-0.41,2.54-0.68,3.75h2.16v-5.29h3.21v5.29
			h5.51v3.02h-5.51v4.43h4.94v3h-4.94v5.4H360.96z"/>
		<path class="st0" d="M362.8,252.71c0.57-1.84,0.97-4.86,1.11-7.05l2.27,0.3c-0.05,2.24-0.49,5.45-1.05,7.53L362.8,252.71z
			 M388.28,248.88v2.29H370.6v-2.29h7.15v-1.16h-5.59l0.05,0.13l-2.11,1.03c-0.19-0.78-0.57-1.92-1-2.97v19.62h-2.89v-25.18h2.89
			v4.32l1.54-0.65c0.57,1.16,1.19,2.67,1.51,3.67v-2.13h5.59v-1.08h-6.32v-2.29h6.32v-1.84h3.19v1.84h6.53v2.29h-6.53v1.08h5.8v2.16
			h-5.8v1.16H388.28z M386.47,262.48c0,1.4-0.27,2.16-1.24,2.59c-0.94,0.46-2.29,0.46-4.16,0.46c-0.11-0.78-0.49-1.94-0.86-2.73
			c1.11,0.08,2.38,0.05,2.73,0.05c0.38,0,0.51-0.11,0.51-0.43v-0.89h-8.07v4.05h-2.97V252.2h14.06V262.48z M375.38,254.55v1.27h8.07
			v-1.27H375.38z M383.45,259.33v-1.24h-8.07v1.24H383.45z"/>
		<path class="st0" d="M398.73,247.26h4.51v2.7H401l1.05,0.27c-0.46,1-0.86,2.05-1.24,2.86h2.02v2.7h-4.1v2.08h3.81v2.7h-3.81v4.91
			h-2.97v-4.91h-4.02v-2.7h4.02v-2.08h-4.24v-2.7h2.02c-0.16-0.86-0.51-2-0.89-2.89l0.97-0.24h-2.67v-2.7h4.8v-1.86h-3.86v-2.65
			h3.86v-2.35h2.97v2.35h3.51v2.65h-3.51V247.26z M398.33,252.85c0.32-0.81,0.73-1.97,0.97-2.89h-4.1c0.46,0.97,0.84,2.13,0.94,2.89
			l-0.86,0.24h3.91L398.33,252.85z M415.6,251.28c-0.51,3.27-1.46,6.29-2.83,8.83c1.11,1.21,2.35,2.24,3.75,2.94
			c-0.7,0.59-1.62,1.73-2.08,2.54c-1.27-0.76-2.38-1.73-3.37-2.86c-0.86,1.11-1.84,2.08-2.94,2.89c-0.35-0.54-0.92-1.16-1.48-1.67
			v1.59h-2.92v-24.05h11.26v5.07c0,1.38-0.3,2.16-1.35,2.59c-1.03,0.43-2.48,0.46-4.45,0.46c-0.14-0.86-0.54-1.97-0.92-2.75
			c1.32,0.05,2.81,0.05,3.21,0.05c0.41-0.03,0.54-0.11,0.54-0.4v-2.21h-5.37v6.45h6.51l0.54-0.13L415.6,251.28z M406.64,262.97
			c0.97-0.78,1.84-1.7,2.59-2.75c-1.05-1.73-1.92-3.7-2.59-5.83V262.97z M408.91,253.28c0.49,1.48,1.13,2.89,1.92,4.18
			c0.62-1.3,1.11-2.73,1.43-4.18H408.91z"/>
		<path class="st0" d="M421.6,250.02h16.62c0.53,0,1.65-0.05,2.31-0.16v3.37c-0.63-0.05-1.6-0.08-2.31-0.08h-6.12
			c-0.15,2.67-0.71,4.85-1.62,6.66c-0.89,1.81-2.84,3.81-5.1,4.98l-2.97-2.2c1.8-0.7,3.58-2.18,4.59-3.71
			c1.04-1.61,1.47-3.55,1.57-5.73h-6.98c-0.74,0-1.73,0.05-2.44,0.1v-3.4C419.93,249.97,420.81,250.02,421.6,250.02z M424.82,243.44
			h8.3c0.86,0,1.88-0.08,2.74-0.21v3.34c-0.86-0.05-1.85-0.08-2.74-0.08h-8.3c-0.86,0-1.95,0.03-2.72,0.08v-3.34
			C422.92,243.36,423.96,243.44,424.82,243.44z M439.39,244.99l-2.03,0.91c-0.53-1.06-1.32-2.62-2-3.6l2.03-0.86
			C438.02,242.4,438.91,244.03,439.39,244.99z M442.43,243.8l-2.03,0.91c-0.53-1.09-1.34-2.59-2.03-3.58l2-0.86
			C441.04,241.26,441.98,242.89,442.43,243.8z"/>
		<path class="st0" d="M453.88,264.85l-2.72-2.62c4.9-1.76,7.05-3.99,7.05-10.37v-0.98h-6.01v3.53c0,1.17,0.08,2.2,0.1,2.72h-3.55
			c0.08-0.52,0.15-1.56,0.15-2.72v-3.53h-2.16c-1.27,0-2.18,0.08-2.74,0.1v-3.53c0.46,0.08,1.47,0.23,2.74,0.23h2.16v-2.57
			c0-0.75-0.08-1.53-0.15-2.33h3.6c-0.05,0.49-0.15,1.32-0.15,2.36v2.54h6.01v-2.72c0-1.04-0.08-1.89-0.15-2.41h3.63
			c-0.08,0.54-0.18,1.37-0.18,2.41v2.72h1.88c1.34,0,2.11-0.05,2.79-0.18v3.45c-0.56-0.05-1.45-0.08-2.77-0.08h-1.9v0.86
			C461.52,258.16,460.02,262.08,453.88,264.85z M465.05,246.19l-1.75,0.57c-0.36-1.09-0.81-2.51-1.29-3.55l1.7-0.57
			C464.19,243.67,464.77,245.17,465.05,246.19z M467.71,245.33l-1.75,0.57c-0.36-1.11-0.84-2.51-1.37-3.53l1.73-0.57
			C466.8,242.84,467.38,244.34,467.71,245.33z"/>
		<path class="st0" d="M481.27,248.08c2.61-1.66,5.51-4.25,7.16-6.3l2.74,2.67c-1.93,1.94-4.36,3.97-6.83,5.63v10.47
			c0,1.14,0.05,2.75,0.23,3.4h-4.01c0.1-0.62,0.18-2.26,0.18-3.4v-8.3c-2.61,1.4-5.84,2.8-8.96,3.73l-1.6-3.27
			C474.72,251.53,478.45,249.84,481.27,248.08z"/>
		<path class="st0" d="M506.9,256.97c4.34-2.62,7.64-6.58,9.24-10.08l1.98,3.66c-1.93,3.5-5.3,7.08-9.39,9.59
			c-2.56,1.58-5.84,3.03-9.41,3.66l-2.13-3.42C501.14,259.8,504.44,258.47,506.9,256.97z M506.9,248.6l-2.59,2.7
			c-1.32-1.45-4.49-4.28-6.34-5.6l2.39-2.59C502.13,244.32,505.43,247.02,506.9,248.6z"/>
		<path class="st0" d="M526.98,244.55h12.79c0.74,0,1.8-0.03,2.23-0.05c-0.03,0.6-0.08,1.63-0.08,2.38v13.43
			c0,0.91,0.05,2.28,0.1,3.06h-3.68c0.03-0.41,0.03-0.86,0.03-1.35H526.8c-0.99,0-2.44,0.08-3.27,0.16v-3.71
			c0.89,0.08,2.03,0.16,3.17,0.16h11.7V247.9H527c-1.07,0-2.44,0.05-3.15,0.1v-3.6C524.8,244.5,526.12,244.55,526.98,244.55z"/>
		<path class="st0" d="M550.97,250.96h11.6c1.02,0,1.97-0.1,2.53-0.16v4.07c-0.52-0.03-1.62-0.13-2.53-0.13h-11.6
			c-1.23,0-2.68,0.05-3.48,0.13v-4.07C548.27,250.88,549.85,250.96,550.97,250.96z"/>
		<path class="st0" d="M587.6,246.83c-0.86,2.02-2.28,4.8-3.98,7.13c2.51,2.23,5.58,5.55,7.08,7.41l-2.89,2.57
			c-1.65-2.33-4.01-4.98-6.39-7.34c-2.69,2.9-6.06,5.6-9.54,7.28l-2.61-2.8c4.09-1.56,8.02-4.72,10.4-7.44
			c1.67-1.94,3.22-4.51,3.78-6.35h-8.6c-1.07,0-2.46,0.16-2.99,0.18v-3.68c0.69,0.1,2.23,0.18,2.99,0.18h8.96
			c1.09,0,2.11-0.16,2.61-0.34l2.08,1.58C588.28,245.51,587.83,246.31,587.6,246.83z"/>
		<path class="st0" d="M24.45,275.96c-0.49,4.48-1.97,7.32-8.83,8.8c-0.27-0.76-1.08-2.05-1.73-2.7c5.88-1.03,6.83-2.92,7.26-6.1
			h-3.73v3.13h-3.16v-6.05h9.77v-2.43h3.29v2.43h10.01v5.59h-3.32v-2.67h-3.81v4.26c0,0.73,0.16,0.84,1,0.84h2.4
			c0.67,0,0.81-0.27,0.92-1.97c0.59,0.46,1.92,0.92,2.75,1.11c-0.32,2.83-1.19,3.59-3.35,3.59h-3.21c-3.02,0-3.67-0.86-3.67-3.54
			v-4.29H24.45z M37.59,292.18v2.92H13.97v-2.92h10.07v-4.02h-7.23v-2.89H35.3v2.89h-7.96v4.02H37.59z"/>
		<path class="st0" d="M49.24,281.39v14.44h-3.19v-24.19h10.34v9.75H49.24z M49.24,273.96v1.43h4.16v-1.43H49.24z M53.39,279.09
			v-1.54h-4.16v1.54H53.39z M68.83,292.02c0,1.73-0.35,2.67-1.43,3.19c-1.05,0.54-2.62,0.62-4.94,0.62
			c-0.08-0.67-0.38-1.67-0.7-2.51h-6.69v1.38h-2.92v-11.66h1.32V283l9.07,0.03v9.56c1.05,0.03,2.05,0.03,2.4,0
			c0.49,0,0.65-0.16,0.65-0.59v-10.55h-7.34v-9.8h10.58V292.02z M59.52,285.38h-4.45V287h4.45V285.38z M59.52,290.97v-1.67h-4.45
			v1.67H59.52z M61.3,273.96v1.43h4.29v-1.43H61.3z M65.59,279.15v-1.59H61.3v1.59H65.59z"/>
		<path class="st0" d="M77.56,280.29h16.62c0.53,0,1.65-0.05,2.31-0.16v3.37c-0.63-0.05-1.6-0.08-2.31-0.08h-6.12
			c-0.15,2.67-0.71,4.85-1.62,6.66c-0.89,1.82-2.84,3.81-5.1,4.98l-2.97-2.2c1.8-0.7,3.58-2.18,4.59-3.71
			c1.04-1.61,1.47-3.55,1.57-5.73h-6.98c-0.74,0-1.73,0.05-2.44,0.1v-3.4C75.88,280.23,76.77,280.29,77.56,280.29z M80.78,273.7h8.3
			c0.86,0,1.88-0.08,2.74-0.21v3.34c-0.86-0.05-1.85-0.08-2.74-0.08h-8.3c-0.86,0-1.95,0.03-2.72,0.08v-3.34
			C78.88,273.62,79.92,273.7,80.78,273.7z M95.34,275.26l-2.03,0.91c-0.53-1.06-1.32-2.62-2-3.6l2.03-0.86
			C93.97,272.66,94.86,274.3,95.34,275.26z M98.39,274.06l-2.03,0.91c-0.53-1.09-1.34-2.59-2.03-3.58l2-0.86
			C96.99,271.52,97.93,273.16,98.39,274.06z"/>
		<path class="st0" d="M112.38,295.11l-2.72-2.62c4.9-1.76,7.05-3.99,7.05-10.37v-0.98h-6.01v3.53c0,1.17,0.08,2.2,0.1,2.72h-3.55
			c0.08-0.52,0.15-1.55,0.15-2.72v-3.53h-2.16c-1.27,0-2.18,0.08-2.74,0.1v-3.53c0.46,0.08,1.47,0.23,2.74,0.23h2.16v-2.57
			c0-0.75-0.08-1.53-0.15-2.33h3.6c-0.05,0.49-0.15,1.32-0.15,2.36v2.54h6.01v-2.72c0-1.04-0.08-1.89-0.15-2.41h3.63
			c-0.08,0.54-0.18,1.37-0.18,2.41v2.72h1.88c1.34,0,2.11-0.05,2.79-0.18v3.45c-0.56-0.05-1.45-0.08-2.77-0.08h-1.9V282
			C120.01,288.43,118.52,292.34,112.38,295.11z M123.54,276.45l-1.75,0.57c-0.36-1.09-0.81-2.51-1.29-3.55l1.7-0.57
			C122.68,273.94,123.26,275.44,123.54,276.45z M126.21,275.59l-1.75,0.57c-0.36-1.12-0.84-2.51-1.37-3.53l1.73-0.57
			C125.29,273.1,125.88,274.61,126.21,275.59z"/>
		<path class="st0" d="M142.3,278.34c2.61-1.66,5.51-4.25,7.16-6.3l2.74,2.67c-1.93,1.94-4.36,3.97-6.83,5.63v10.47
			c0,1.14,0.05,2.75,0.23,3.4h-4.01c0.1-0.62,0.18-2.25,0.18-3.4v-8.3c-2.61,1.4-5.84,2.8-8.96,3.73l-1.6-3.27
			C135.75,281.79,139.48,280.1,142.3,278.34z"/>
		<path class="st0" d="M170.47,287.23c4.34-2.62,7.64-6.58,9.24-10.08l1.98,3.66c-1.93,3.5-5.3,7.08-9.39,9.59
			c-2.56,1.58-5.84,3.03-9.41,3.66l-2.13-3.42C164.71,290.06,168.01,288.74,170.47,287.23z M170.47,278.86l-2.59,2.7
			c-1.32-1.45-4.49-4.28-6.34-5.6l2.39-2.59C165.7,274.58,169,277.28,170.47,278.86z"/>
		<path class="st0" d="M193.09,274.82h12.79c0.74,0,1.8-0.03,2.23-0.05c-0.03,0.6-0.08,1.63-0.08,2.38v13.43
			c0,0.91,0.05,2.28,0.1,3.06h-3.68c0.03-0.41,0.03-0.86,0.03-1.35h-11.57c-0.99,0-2.44,0.08-3.27,0.16v-3.71
			c0.89,0.08,2.03,0.16,3.17,0.16h11.7v-10.73h-11.39c-1.07,0-2.44,0.05-3.15,0.1v-3.6C190.9,274.76,192.22,274.82,193.09,274.82z"
			/>
		<path class="st0" d="M219.62,281.22h11.6c1.02,0,1.97-0.1,2.53-0.16v4.07c-0.52-0.03-1.62-0.13-2.53-0.13h-11.6
			c-1.23,0-2.68,0.05-3.48,0.13v-4.07C216.92,281.14,218.5,281.22,219.62,281.22z"/>
		<path class="st0" d="M258.4,277.1c-0.86,2.02-2.28,4.8-3.98,7.13c2.51,2.23,5.58,5.55,7.08,7.41l-2.89,2.57
			c-1.65-2.33-4.01-4.98-6.39-7.34c-2.69,2.9-6.06,5.6-9.54,7.28l-2.61-2.8c4.09-1.56,8.02-4.72,10.4-7.44
			c1.67-1.94,3.22-4.51,3.78-6.35h-8.6c-1.07,0-2.46,0.16-2.99,0.18v-3.68c0.69,0.1,2.23,0.18,2.99,0.18h8.96
			c1.09,0,2.11-0.16,2.61-0.34l2.08,1.58C259.09,275.77,258.63,276.58,258.4,277.1z"/>
		<path class="st0" d="M280.88,283.22c0,1.51-1.25,2.77-2.77,2.77s-2.77-1.25-2.77-2.77s1.25-2.77,2.77-2.77
			S280.88,281.7,280.88,283.22z"/>
		<path class="st0" d="M311.19,276.35c-0.76,2.05-1.9,4.67-3.4,7.05c2.23,1.87,4.36,3.86,6.09,5.73l-2.61,2.96
			c-1.78-2.12-3.6-3.94-5.63-5.73c-2.23,2.75-5.15,5.62-9.44,8.01l-2.84-2.62c4.14-2.05,7.13-4.56,9.64-7.65
			c-1.83-1.48-4.26-3.32-6.85-4.93l2.16-2.64c2.03,1.27,4.69,3.14,6.75,4.69c1.29-2.07,2.16-4.12,2.82-6.17
			c0.23-0.67,0.51-1.71,0.61-2.38l3.78,1.35C311.92,274.61,311.44,275.75,311.19,276.35z"/>
		<path class="st0" d="M323.29,280.29h16.62c0.53,0,1.65-0.05,2.31-0.16v3.37c-0.63-0.05-1.6-0.08-2.31-0.08h-6.12
			c-0.15,2.67-0.71,4.85-1.62,6.66c-0.89,1.82-2.84,3.81-5.1,4.98l-2.97-2.2c1.8-0.7,3.58-2.18,4.59-3.71
			c1.04-1.61,1.47-3.55,1.57-5.73h-6.98c-0.74,0-1.73,0.05-2.44,0.1v-3.4C321.62,280.23,322.51,280.29,323.29,280.29z M326.52,273.7
			h8.3c0.86,0,1.88-0.08,2.74-0.21v3.34c-0.86-0.05-1.85-0.08-2.74-0.08h-8.3c-0.86,0-1.95,0.03-2.72,0.08v-3.34
			C324.61,273.62,325.65,273.7,326.52,273.7z M341.08,275.26l-2.03,0.91c-0.53-1.06-1.32-2.62-2-3.6l2.03-0.86
			C339.71,272.66,340.6,274.3,341.08,275.26z M344.13,274.06l-2.03,0.91c-0.53-1.09-1.34-2.59-2.03-3.58l2-0.86
			C342.73,271.52,343.67,273.16,344.13,274.06z"/>
		<path class="st0" d="M359,281.97c2.46-1.53,5.02-3.86,6.32-5.55l2.51,2.51c-1.19,1.35-3.43,3.19-5.68,4.72v8.89
			c0,0.91,0.03,2.28,0.18,2.8h-3.76c0.05-0.52,0.13-1.89,0.13-2.8v-6.84c-2.23,1.14-5.08,2.33-7.28,3.03l-1.5-3.06
			C353.22,284.95,357,283.22,359,281.97z"/>
		<path class="st0" d="M398.62,276.86c-1.19,2.02-3.6,5.29-6.09,7.1l-2.64-2.15c2.03-1.27,4.01-3.55,4.67-4.82h-13.22
			c-1.07,0-1.9,0.08-3.1,0.18v-3.6c0.96,0.16,2.03,0.26,3.1,0.26h13.68c0.71,0,2.11-0.08,2.59-0.23l2,1.92
			C399.33,275.85,398.85,276.48,398.62,276.86z M382.23,294.52l-2.97-2.46c0.81-0.29,1.73-0.73,2.66-1.43
			c3.22-2.28,3.83-5.03,3.83-9.28c0-0.8-0.05-1.5-0.18-2.33h3.68C389.25,285.44,389.13,290.73,382.23,294.52z"/>
		<path class="st0" d="M407.81,280.29h16.62c0.53,0,1.65-0.05,2.31-0.16v3.37c-0.63-0.05-1.6-0.08-2.31-0.08h-6.12
			c-0.15,2.67-0.71,4.85-1.62,6.66c-0.89,1.82-2.84,3.81-5.1,4.98l-2.97-2.2c1.8-0.7,3.58-2.18,4.59-3.71
			c1.04-1.61,1.47-3.55,1.57-5.73h-6.98c-0.74,0-1.73,0.05-2.44,0.1v-3.4C406.13,280.23,407.02,280.29,407.81,280.29z M411.03,273.7
			h8.3c0.86,0,1.88-0.08,2.74-0.21v3.34c-0.86-0.05-1.85-0.08-2.74-0.08h-8.3c-0.86,0-1.95,0.03-2.72,0.08v-3.34
			C409.13,273.62,410.17,273.7,411.03,273.7z M425.6,275.26l-2.03,0.91c-0.53-1.06-1.32-2.62-2-3.6l2.03-0.86
			C424.23,272.66,425.12,274.3,425.6,275.26z M428.64,274.06l-2.03,0.91c-0.53-1.09-1.34-2.59-2.03-3.58l2-0.86
			C427.25,271.52,428.19,273.16,428.64,274.06z"/>
		<path class="st0" d="M442.63,295.11l-2.72-2.62c4.9-1.76,7.05-3.99,7.05-10.37v-0.98h-6.01v3.53c0,1.17,0.08,2.2,0.1,2.72h-3.55
			c0.08-0.52,0.15-1.55,0.15-2.72v-3.53h-2.16c-1.27,0-2.18,0.08-2.74,0.1v-3.53c0.46,0.08,1.47,0.23,2.74,0.23h2.16v-2.57
			c0-0.75-0.08-1.53-0.15-2.33h3.6c-0.05,0.49-0.15,1.32-0.15,2.36v2.54h6.01v-2.72c0-1.04-0.08-1.89-0.15-2.41h3.63
			c-0.08,0.54-0.18,1.37-0.18,2.41v2.72h1.88c1.34,0,2.11-0.05,2.79-0.18v3.45c-0.56-0.05-1.45-0.08-2.77-0.08h-1.9V282
			C450.27,288.43,448.77,292.34,442.63,295.11z M453.79,276.45l-1.75,0.57c-0.36-1.09-0.81-2.51-1.29-3.55l1.7-0.57
			C452.93,273.94,453.52,275.44,453.79,276.45z M456.46,275.59l-1.75,0.57c-0.36-1.12-0.84-2.51-1.37-3.53l1.73-0.57
			C455.55,273.1,456.13,274.61,456.46,275.59z"/>
		<path class="st0" d="M472.55,278.34c2.61-1.66,5.51-4.25,7.16-6.3l2.74,2.67c-1.93,1.94-4.36,3.97-6.83,5.63v10.47
			c0,1.14,0.05,2.75,0.23,3.4h-4.01c0.1-0.62,0.18-2.25,0.18-3.4v-8.3c-2.61,1.4-5.84,2.8-8.96,3.73l-1.6-3.27
			C466,281.79,469.74,280.1,472.55,278.34z"/>
		<path class="st0" d="M500.72,287.23c4.34-2.62,7.64-6.58,9.24-10.08l1.98,3.66c-1.93,3.5-5.3,7.08-9.39,9.59
			c-2.56,1.58-5.84,3.03-9.41,3.66l-2.13-3.42C494.96,290.06,498.26,288.74,500.72,287.23z M500.72,278.86l-2.59,2.7
			c-1.32-1.45-4.49-4.28-6.34-5.6l2.39-2.59C495.95,274.58,499.25,277.28,500.72,278.86z"/>
		<path class="st0" d="M523.34,274.82h12.79c0.74,0,1.8-0.03,2.23-0.05c-0.03,0.6-0.08,1.63-0.08,2.38v13.43
			c0,0.91,0.05,2.28,0.1,3.06h-3.68c0.03-0.41,0.03-0.86,0.03-1.35h-11.57c-0.99,0-2.44,0.08-3.27,0.16v-3.71
			c0.89,0.08,2.03,0.16,3.17,0.16h11.7v-10.73h-11.39c-1.07,0-2.44,0.05-3.15,0.1v-3.6C521.16,274.76,522.48,274.82,523.34,274.82z"
			/>
		<path class="st0" d="M549.87,281.22h11.6c1.02,0,1.97-0.1,2.53-0.16v4.07c-0.52-0.03-1.62-0.13-2.53-0.13h-11.6
			c-1.23,0-2.68,0.05-3.48,0.13v-4.07C547.17,281.14,548.75,281.22,549.87,281.22z"/>
		<path class="st0" d="M588.66,277.1c-0.86,2.02-2.28,4.8-3.98,7.13c2.51,2.23,5.58,5.55,7.08,7.41l-2.89,2.57
			c-1.65-2.33-4.01-4.98-6.39-7.34c-2.69,2.9-6.06,5.6-9.54,7.28l-2.61-2.8c4.09-1.56,8.02-4.72,10.4-7.44
			c1.67-1.94,3.22-4.51,3.78-6.35h-8.6c-1.07,0-2.46,0.16-2.99,0.18v-3.68c0.69,0.1,2.23,0.18,2.99,0.18h8.96
			c1.09,0,2.11-0.16,2.61-0.34l2.08,1.58C589.34,275.77,588.88,276.58,588.66,277.1z"/>
	</g>
	<g>
		<path class="st0" d="M56.46,485.3H19.11c-0.26-9.81,5.04-16.77,19.4-25.44c8.46-5.32,10.68-8.02,10.68-13.17
			c0-5.73-4.27-9.73-10.34-9.73c-4.7,0-8.29,2.29-9.74,6.13c-0.51,1.55-0.68,3.03-0.68,7.03h-7.61v-2.04c0-5.56,1.2-9.32,4.02-12.35
			c3.25-3.68,8.2-5.56,14.27-5.56c10.77,0,18.03,6.62,18.03,16.44c0,4.74-1.71,8.75-5.04,12.1c-2.31,2.29-3.42,3.11-11.79,8.26
			c-5.9,3.76-10.68,8.42-11.71,11.53h27.86V485.3z"/>
		<path class="st0" d="M112.78,439.17c2.82,4.99,4.02,10.8,4.02,19.46c0,7.85-1.28,13.9-4.02,18.73c-3.25,5.64-9.06,9-15.64,9
			c-6.5,0-12.31-3.35-15.55-9c-2.73-4.99-4.02-10.8-4.02-19.14c0-8.26,1.28-14.31,4.02-19.06c3.33-5.64,9.06-9,15.55-9
			C103.81,430.17,109.53,433.45,112.78,439.17z M87.91,443.26c-1.62,3.68-2.39,8.26-2.39,14.97c0,6.71,0.77,11.37,2.39,15.05
			c1.79,3.84,5.3,6.3,9.32,6.3c3.93,0,7.52-2.45,9.23-6.3c1.62-3.68,2.39-8.26,2.39-14.72c0-7.03-0.68-11.7-2.39-15.29
			c-1.79-3.93-5.38-6.3-9.32-6.3C93.21,436.96,89.71,439.33,87.91,443.26z"/>
		<path class="st0" d="M175.85,485.3H138.5c-0.26-9.81,5.04-16.77,19.4-25.44c8.46-5.32,10.68-8.02,10.68-13.17
			c0-5.73-4.27-9.73-10.34-9.73c-4.7,0-8.29,2.29-9.74,6.13c-0.51,1.55-0.68,3.03-0.68,7.03h-7.61v-2.04c0-5.56,1.2-9.32,4.02-12.35
			c3.25-3.68,8.2-5.56,14.27-5.56c10.77,0,18.03,6.62,18.03,16.44c0,4.74-1.71,8.75-5.04,12.1c-2.31,2.29-3.42,3.11-11.79,8.26
			c-5.9,3.76-10.68,8.42-11.71,11.53h27.86V485.3z"/>
		<path class="st0" d="M233.36,485.3h-37.35c-0.26-9.81,5.04-16.77,19.4-25.44c8.46-5.32,10.68-8.02,10.68-13.17
			c0-5.73-4.27-9.73-10.34-9.73c-4.7,0-8.29,2.29-9.74,6.13c-0.51,1.55-0.68,3.03-0.68,7.03h-7.61v-2.04c0-5.56,1.2-9.32,4.02-12.35
			c3.25-3.68,8.2-5.56,14.27-5.56c10.77,0,18.03,6.62,18.03,16.44c0,4.74-1.71,8.75-5.04,12.1c-2.31,2.29-3.42,3.11-11.79,8.26
			c-5.9,3.76-10.68,8.42-11.71,11.53h27.86V485.3z"/>
		<path class="st0" d="M267.72,484.21h-7.92v-7.36h7.92V484.21z"/>
		<path class="st0" d="M352.09,485.03h-52.66c-0.36-13.84,7.11-23.64,27.35-35.86c11.93-7.5,15.06-11.3,15.06-18.57
			c0-8.07-6.02-13.72-14.58-13.72c-6.63,0-11.69,3.23-13.74,8.65c-0.72,2.19-0.96,4.27-0.96,9.92h-10.72v-2.88
			c0-7.84,1.69-13.15,5.66-17.41c4.58-5.19,11.57-7.84,20.12-7.84c15.18,0,25.43,9.34,25.43,23.18c0,6.69-2.41,12.34-7.11,17.07
			c-3.25,3.23-4.82,4.38-16.63,11.65c-8.31,5.3-15.06,11.88-16.51,16.26h39.28V485.03z"/>
		<path class="st0" d="M389.98,484.21h-7.92v-7.36h7.92V484.21z"/>
		<path class="st0" d="M440.03,485.03h-10.6v-54.66h-18.19v-7.5c10.36,0.35,18.68-5.3,20.6-13.95h8.19V485.03z"/>
		<path class="st0" d="M525.46,463.12c0,13.49-11.69,23.41-27.35,23.41c-15.78,0-27.47-10.03-27.47-23.41
			c0-8.65,4.46-15.22,13.61-20.06c-6.63-3.69-10-9.22-10-16.03c0-11.42,10-19.72,23.86-19.72c13.74,0,23.74,8.3,23.74,19.72
			c0,6.8-3.37,12.34-10,16.03C521,447.9,525.46,454.48,525.46,463.12z M481.84,462.55c0,8.53,6.63,14.41,16.27,14.41
			c9.4,0,16.14-5.88,16.14-14.18c0-8.65-6.51-14.53-16.27-14.53C488.47,448.25,481.84,454.13,481.84,462.55z M485.09,427.84
			c0,6.46,5.3,10.95,13.01,10.95c7.47,0,12.89-4.5,12.89-10.84c0-6.57-5.18-11.07-13.01-11.07
			C490.39,416.88,485.09,421.38,485.09,427.84z"/>
		<path class="st0" d="M577.22,456.16h-18.97v10.63h15.92v4.25h-15.92v16.16h-5.08v-35.46h24.05V456.16z"/>
		<path class="st0" d="M592.82,461.53v4.04c1.02-1.49,1.44-2.07,2.14-2.71c1.18-1.22,3.05-2.02,4.6-2.02c0.96,0,1.87,0.21,2.73,0.64
			v4.41c-1.02-0.21-1.55-0.27-2.24-0.27c-3.95,0-7,3.51-7,8.08v13.5h-4.92v-25.68H592.82z"/>
		<path class="st0" d="M620.45,457.43h-4.92v-5.69h4.92V457.43z M620.45,487.2h-4.92v-25.68h4.92V487.2z"/>
		<path class="st0" d="M691.36,454.34h-30.24v-7.02h30.24V454.34z"/>
		<path class="st0" d="M790.82,485.19h-52.87c-0.36-13.9,7.14-23.74,27.46-36.01c11.98-7.53,15.12-11.35,15.12-18.64
			c0-8.11-6.05-13.78-14.64-13.78c-6.65,0-11.74,3.24-13.79,8.68c-0.73,2.2-0.97,4.29-0.97,9.96h-10.77v-2.89
			c0-7.88,1.69-13.2,5.69-17.49c4.6-5.21,11.61-7.87,20.2-7.87c15.24,0,25.53,9.38,25.53,23.28c0,6.72-2.42,12.39-7.14,17.14
			c-3.27,3.24-4.84,4.4-16.7,11.7c-8.35,5.33-15.12,11.93-16.58,16.33h39.44V485.19z"/>
		<path class="st0" d="M865.84,419.88c3.99,7.06,5.69,15.29,5.69,27.56c0,11.12-1.81,19.69-5.69,26.52
			c-4.6,7.99-12.82,12.74-22.14,12.74c-9.19,0-17.42-4.75-22.02-12.74c-3.87-7.06-5.69-15.29-5.69-27.1
			c0-11.7,1.81-20.26,5.69-26.98c4.72-7.99,12.82-12.74,22.02-12.74C853.13,407.15,861.24,411.78,865.84,419.88z M830.63,425.67
			c-2.3,5.21-3.39,11.7-3.39,21.19c0,9.5,1.09,16.1,3.39,21.31c2.54,5.44,7.5,8.92,13.19,8.92c5.57,0,10.65-3.47,13.07-8.92
			c2.3-5.21,3.39-11.7,3.39-20.84c0-9.96-0.97-16.56-3.39-21.65c-2.54-5.56-7.62-8.92-13.19-8.92
			C838.13,416.76,833.17,420.11,830.63,425.67z"/>
		<path class="st0" d="M916.13,462.7c-0.53-4.89-3.47-7.28-8.87-7.28c-4.76,0-7.8,2.02-7.8,5.1c0,2.6,1.87,4.15,6.41,5.16l5.77,1.28
			c4.22,0.96,6.36,1.86,8.07,3.4c1.87,1.65,2.89,4.04,2.89,6.8c0,6.7-5.45,10.84-14.11,10.84c-9.24,0-14.8-4.68-15.55-13.18h5.29
			c0.53,5.64,4.27,8.77,10.42,8.77c5.13,0,8.76-2.5,8.76-6.06c0-2.66-1.92-4.41-5.66-5.32l-8.02-1.91c-6.52-1.54-9.46-4.41-9.46-9.2
			c0-6.22,5.18-10.15,13.36-10.15s12.56,3.77,13.68,11.75H916.13z"/>
		<path class="st0" d="M952.47,487.2v-2.92c-2.56,2.71-4.65,3.62-8.18,3.62c-3.05,0-5.56-1.01-7-2.82c-1.23-1.59-1.71-3.4-1.71-6.38
			v-17.17h4.92v16.8c0,3.51,1.6,5.21,4.97,5.21c4.22,0,6.79-2.45,6.79-6.43v-15.58h4.92v25.68H952.47z"/>
		<path class="st0" d="M974.86,461.53v2.92c2.56-2.71,4.65-3.62,8.18-3.62c3.05,0,5.56,1.01,7,2.82c1.23,1.6,1.71,3.4,1.71,6.38
			v17.17h-4.92v-16.8c0-3.51-1.6-5.21-4.97-5.21c-4.22,0-6.79,2.45-6.79,6.43v15.58h-4.92v-25.68H974.86z"/>
	</g>
	<path class="st0" d="M1000.03,196.21H9.04c-1.38,0-2.5-1.12-2.5-2.5s1.12-2.5,2.5-2.5h990.99c1.38,0,2.5,1.12,2.5,2.5
		S1001.41,196.21,1000.03,196.21z"/>
</g>
</svg>
